Space-Mono-Regular-Italic.ufo
<glyph name="exclam" format="1">
  <advance width="612"/>
  <unicode hex="0021"/>
  <outline>
    <contour>
      <point x="342" y="700" type="line"/>
      <point x="231" y="186" type="line"/>
      <point x="311" y="186" type="line"/>
      <point x="422" y="700" type="line"/>
    </contour>
    <contour>
      <point x="175" y="56" type="curve" smooth="yes"/>
      <point x="175" y="18"/>
      <point x="207" y="-14"/>
      <point x="245" y="-14" type="curve" smooth="yes"/>
      <point x="283" y="-14"/>
      <point x="315" y="18"/>
      <point x="315" y="56" type="curve" smooth="yes"/>
      <point x="315" y="94"/>
      <point x="283" y="126"/>
      <point x="245" y="126" type="curve" smooth="yes"/>
      <point x="207" y="126"/>
      <point x="175" y="94"/>
    </contour>
  </outline>
</glyph>
<glyph name="quotedbl" format="1">
  <advance width="612"/>
  <unicode hex="0022"/>
  <outline>
    <contour>
      <point x="204" y="644" type="curve" smooth="yes"/>
      <point x="204" y="620"/>
      <point x="217" y="598"/>
      <point x="236" y="585" type="curve"/>
      <point x="212" y="479" type="line"/>
      <point x="265" y="468" type="line"/>
      <point x="288" y="575" type="line"/>
      <point x="320" y="582"/>
      <point x="344" y="611"/>
      <point x="344" y="644" type="curve" smooth="yes"/>
      <point x="344" y="682"/>
      <point x="312" y="714"/>
      <point x="274" y="714" type="curve" smooth="yes"/>
      <point x="236" y="714"/>
      <point x="204" y="682"/>
    </contour>
    <contour>
      <point x="386" y="644" type="curve" smooth="yes"/>
      <point x="386" y="620"/>
      <point x="399" y="598"/>
      <point x="418" y="585" type="curve"/>
      <point x="394" y="479" type="line"/>
      <point x="447" y="468" type="line"/>
      <point x="470" y="575" type="line"/>
      <point x="502" y="582"/>
      <point x="526" y="611"/>
      <point x="526" y="644" type="curve" smooth="yes"/>
      <point x="526" y="682"/>
      <point x="494" y="714"/>
      <point x="456" y="714" type="curve" smooth="yes"/>
      <point x="418" y="714"/>
      <point x="386" y="682"/>
    </contour>
  </outline>
</glyph>
<glyph name="dollar" format="1">
  <advance width="612"/>
  <unicode hex="0024"/>
  <outline>
    <contour>
      <point x="400" y="672" type="line"/>
      <point x="328" y="672" type="line"/>
      <point x="315" y="610" type="line"/>
      <point x="231" y="609"/>
      <point x="126" y="550"/>
      <point x="126" y="453" type="curve" smooth="yes"/>
      <point x="126" y="376"/>
      <point x="180" y="337"/>
      <point x="255" y="326" type="curve"/>
      <point x="220" y="164" type="line"/>
      <point x="173" y="172"/>
      <point x="148" y="196"/>
      <point x="148" y="241" type="curve" smooth="yes"/>
      <point x="148" y="250"/>
      <point x="149" y="259"/>
      <point x="151" y="270" type="curve" smooth="yes"/>
      <point x="155" y="292" type="line"/>
      <point x="79" y="292" type="line"/>
      <point x="74" y="268" type="line" smooth="yes"/>
      <point x="72" y="256"/>
      <point x="70" y="244"/>
      <point x="70" y="232" type="curve" smooth="yes"/>
      <point x="70" y="167"/>
      <point x="109" y="106"/>
      <point x="204" y="91" type="curve"/>
      <point x="191" y="28" type="line"/>
      <point x="263" y="28" type="line"/>
      <point x="276" y="89" type="line"/>
      <point x="394" y="94"/>
      <point x="483" y="160"/>
      <point x="483" y="270" type="curve" smooth="yes"/>
      <point x="483" y="334"/>
      <point x="438" y="379"/>
      <point x="340" y="391" type="curve"/>
      <point x="371" y="534" type="line"/>
      <point x="409" y="527"/>
      <point x="433" y="502"/>
      <point x="433" y="467" type="curve" smooth="yes"/>
      <point x="433" y="460"/>
      <point x="432" y="453"/>
      <point x="430" y="446" type="curve" smooth="yes"/>
      <point x="427" y="434" type="line"/>
      <point x="503" y="434" type="line"/>
      <point x="507" y="452" type="line" smooth="yes"/>
      <point x="509" y="461"/>
      <point x="510" y="471"/>
      <point x="510" y="480" type="curve" smooth="yes"/>
      <point x="510" y="540"/>
      <point x="466" y="594"/>
      <point x="386" y="608" type="curve"/>
    </contour>
    <contour>
      <point x="325" y="319" type="line"/>
      <point x="378" y="310"/>
      <point x="403" y="294"/>
      <point x="403" y="256" type="curve" smooth="yes"/>
      <point x="403" y="202"/>
      <point x="352" y="166"/>
      <point x="291" y="161" type="curve"/>
    </contour>
    <contour>
      <point x="270" y="400" type="line"/>
      <point x="224" y="406"/>
      <point x="207" y="426"/>
      <point x="207" y="452" type="curve" smooth="yes"/>
      <point x="207" y="504"/>
      <point x="250" y="532"/>
      <point x="299" y="538" type="curve"/>
    </contour>
  </outline>
</glyph>
<glyph name="ampersand" format="1">
  <advance width="612"/>
  <unicode hex="0026"/>
  <outline>
    <contour>
      <point x="574" y="390" type="line"/>
      <point x="487" y="390" type="line"/>
      <point x="510" y="496" type="line"/>
      <point x="426" y="496" type="line"/>
      <point x="403" y="390" type="line"/>
      <point x="266" y="390" type="line" smooth="yes"/>
      <point x="198" y="390"/>
      <point x="158" y="422"/>
      <point x="158" y="478" type="curve" smooth="yes"/>
      <point x="158" y="570"/>
      <point x="234" y="622"/>
      <point x="318" y="622" type="curve" smooth="yes"/>
      <point x="440" y="622" type="line"/>
      <point x="440" y="700" type="line"/>
      <point x="329" y="700" type="line" smooth="yes"/>
      <point x="184" y="700"/>
      <point x="78" y="612"/>
      <point x="78" y="485" type="curve" smooth="yes"/>
      <point x="78" y="418"/>
      <point x="116" y="374"/>
      <point x="167" y="357" type="curve"/>
      <point x="167" y="345" type="line"/>
      <point x="68" y="322"/>
      <point x="8" y="252"/>
      <point x="8" y="159" type="curve" smooth="yes"/>
      <point x="8" y="64"/>
      <point x="74" y="0"/>
      <point x="184" y="0" type="curve" smooth="yes"/>
      <point x="404" y="0" type="line"/>
      <point x="470" y="312" type="line"/>
      <point x="574" y="312" type="line"/>
    </contour>
    <contour>
      <point x="203" y="78" type="line" smooth="yes"/>
      <point x="135" y="78"/>
      <point x="91" y="113"/>
      <point x="91" y="173" type="curve" smooth="yes"/>
      <point x="91" y="256"/>
      <point x="167" y="312"/>
      <point x="249" y="312" type="curve" smooth="yes"/>
      <point x="386" y="312" type="line"/>
      <point x="337" y="78" type="line"/>
    </contour>
  </outline>
</glyph>
<glyph name="parenleft" format="1">
  <advance width="612"/>
  <unicode hex="0028"/>
  <outline>
    <contour>
      <point x="377" y="-82" type="line" smooth="yes"/>
      <point x="250" y="-82"/>
      <point x="157" y="-9"/>
      <point x="157" y="139" type="curve" smooth="yes"/>
      <point x="157" y="166"/>
      <point x="160" y="196"/>
      <point x="167" y="228" type="curve" smooth="yes"/>
      <point x="218" y="472" type="line" smooth="yes"/>
      <point x="268" y="710"/>
      <point x="400" y="782"/>
      <point x="566" y="782" type="curve" smooth="yes"/>
      <point x="612" y="782" type="line"/>
      <point x="612" y="856" type="line"/>
      <point x="574" y="856" type="line" smooth="yes"/>
      <point x="352" y="856"/>
      <point x="201" y="756"/>
      <point x="145" y="494" type="curve" smooth="yes"/>
      <point x="90" y="236" type="line" smooth="yes"/>
      <point x="82" y="199"/>
      <point x="78" y="165"/>
      <point x="78" y="133" type="curve" smooth="yes"/>
      <point x="78" y="-51"/>
      <point x="201" y="-156"/>
      <point x="361" y="-156" type="curve" smooth="yes"/>
      <point x="413" y="-156" type="line"/>
      <point x="413" y="-82" type="line"/>
    </contour>
  </outline>
</glyph>
<glyph name="plus" format="1">
  <advance width="612"/>
  <unicode hex="002B"/>
  <outline>
    <contour>
      <point x="97" y="314" type="line"/>
      <point x="261" y="314" type="line"/>
      <point x="224" y="141" type="line"/>
      <point x="298" y="141" type="line"/>
      <point x="335" y="314" type="line"/>
      <point x="515" y="314" type="line"/>
      <point x="515" y="386" type="line"/>
      <point x="350" y="386" type="line"/>
      <point x="387" y="559" type="line"/>
      <point x="313" y="559" type="line"/>
      <point x="276" y="386" type="line"/>
      <point x="97" y="386" type="line"/>
    </contour>
  </outline>
</glyph>
<glyph name="period" format="1">
  <advance width="612"/>
  <unicode hex="002E"/>
  <outline>
    <contour>
      <point x="186" y="56" type="curve" smooth="yes"/>
      <point x="186" y="18"/>
      <point x="218" y="-14"/>
      <point x="256" y="-14" type="curve" smooth="yes"/>
      <point x="294" y="-14"/>
      <point x="326" y="18"/>
      <point x="326" y="56" type="curve" smooth="yes"/>
      <point x="326" y="94"/>
      <point x="294" y="126"/>
      <point x="256" y="126" type="curve" smooth="yes"/>
      <point x="218" y="126"/>
      <point x="186" y="94"/>
    </contour>
  </outline>
</glyph>
<glyph name="slash" format="1">
  <advance width="612"/>
  <unicode hex="002F"/>
  <outline>
    <contour>
      <point x="39" y="-71" type="line"/>
      <point x="99" y="-106" type="line"/>
      <point x="573" y="772" type="line"/>
      <point x="513" y="806" type="line"/>
    </contour>
  </outline>
</glyph>
<glyph name="zero" format="1">
  <advance width="612"/>
  <unicode hex="0030"/>
  <outline>
    <contour>
      <point x="240" y="350" type="curve" smooth="yes"/>
      <point x="240" y="316"/>
      <point x="270" y="286"/>
      <point x="304" y="286" type="curve" smooth="yes"/>
      <point x="338" y="286"/>
      <point x="368" y="316"/>
      <point x="368" y="350" type="curve" smooth="yes"/>
      <point x="368" y="384"/>
      <point x="338" y="414"/>
      <point x="304" y="414" type="curve" smooth="yes"/>
      <point x="270" y="414"/>
      <point x="240" y="384"/>
    </contour>
    <component base="O" xOffset="-2"/>
  </outline>
</glyph>
<glyph name="two" format="1">
  <advance width="612"/>
  <unicode hex="0032"/>
  <outline>
    <contour>
      <point x="100" y="78" type="line"/>
      <point x="107" y="108" type="line" smooth="yes"/>
      <point x="128" y="198"/>
      <point x="193" y="238"/>
      <point x="325" y="264" type="curve" smooth="yes"/>
      <point x="490" y="296"/>
      <point x="589" y="382"/>
      <point x="589" y="538" type="curve" smooth="yes"/>
      <point x="589" y="630"/>
      <point x="514" y="714"/>
      <point x="382" y="714" type="curve" smooth="yes"/>
      <point x="212" y="714"/>
      <point x="119" y="607"/>
      <point x="91" y="470" type="curve" smooth="yes"/>
      <point x="81" y="420" type="line"/>
      <point x="166" y="420" type="line"/>
      <point x="175" y="464" type="line" smooth="yes"/>
      <point x="197" y="568"/>
      <point x="270" y="636"/>
      <point x="372" y="636" type="curve" smooth="yes"/>
      <point x="464" y="636"/>
      <point x="502" y="585"/>
      <point x="502" y="524" type="curve" smooth="yes"/>
      <point x="502" y="406"/>
      <point x="402" y="356"/>
      <point x="298" y="336" type="curve" smooth="yes"/>
      <point x="149" y="307"/>
      <point x="50" y="250"/>
      <point x="24" y="120" type="curve" smooth="yes"/>
      <point x="0" y="0" type="line"/>
      <point x="489" y="0" type="line"/>
      <point x="489" y="78" type="line"/>
    </contour>
  </outline>
</glyph>
<glyph name="four" format="1">
  <advance width="612"/>
  <unicode hex="0034"/>
  <outline>
    <contour>
      <point x="375" y="700" type="line"/>
      <point x="375" y="700"/>
      <point x="548" y="700"/>
      <point x="548" y="700" type="curve"/>
      <point x="548" y="700"/>
      <point x="444" y="210"/>
      <point x="444" y="210" type="curve"/>
      <point x="444" y="210"/>
      <point x="535" y="210"/>
      <point x="535" y="210" type="curve"/>
      <point x="535" y="210"/>
      <point x="535" y="132"/>
      <point x="535" y="132" type="curve"/>
      <point x="535" y="132"/>
      <point x="427" y="132"/>
      <point x="427" y="132" type="curve"/>
      <point x="427" y="132"/>
      <point x="399" y="0"/>
      <point x="399" y="0" type="curve"/>
      <point x="399" y="0"/>
      <point x="315" y="0"/>
      <point x="315" y="0" type="curve"/>
      <point x="315" y="0"/>
      <point x="343" y="132"/>
      <point x="343" y="132" type="curve"/>
      <point x="343" y="132"/>
      <point x="19" y="132"/>
      <point x="19" y="132" type="curve"/>
      <point x="19" y="264" type="line"/>
    </contour>
    <contour>
      <point x="83" y="222" type="line"/>
      <point x="83" y="210" type="line"/>
      <point x="83" y="210"/>
      <point x="360" y="210"/>
      <point x="360" y="210" type="curve"/>
      <point x="360" y="210"/>
      <point x="456" y="664"/>
      <point x="456" y="664" type="curve"/>
      <point x="456" y="664"/>
      <point x="444" y="664"/>
      <point x="444" y="664" type="curve"/>
    </contour>
  </outline>
</glyph>
<glyph name="five" format="1">
  <advance width="612"/>
  <unicode hex="0035"/>
  <outline>
    <contour>
      <point x="73" y="330" type="line"/>
      <point x="151" y="700" type="line"/>
      <point x="573" y="700" type="line"/>
      <point x="573" y="622" type="line"/>
      <point x="217" y="622" type="line"/>
      <point x="164" y="372" type="line"/>
      <point x="176" y="372" type="line"/>
      <point x="208" y="426"/>
      <point x="264" y="474"/>
      <point x="364" y="474" type="curve" smooth="yes"/>
      <point x="468" y="474"/>
      <point x="548" y="400"/>
      <point x="548" y="300" type="curve" smooth="yes"/>
      <point x="548" y="122"/>
      <point x="428" y="-14"/>
      <point x="244" y="-14" type="curve" smooth="yes"/>
      <point x="105" y="-14"/>
      <point x="32" y="64"/>
      <point x="32" y="170" type="curve" smooth="yes"/>
      <point x="32" y="187"/>
      <point x="34" y="205"/>
      <point x="38" y="224" type="curve" smooth="yes"/>
      <point x="44" y="252" type="line"/>
      <point x="128" y="252" type="line"/>
      <point x="123" y="230" type="line" smooth="yes"/>
      <point x="119" y="210"/>
      <point x="116" y="193"/>
      <point x="116" y="177" type="curve" smooth="yes"/>
      <point x="116" y="97"/>
      <point x="171" y="64"/>
      <point x="256" y="64" type="curve" smooth="yes"/>
      <point x="376" y="64"/>
      <point x="461" y="176"/>
      <point x="461" y="283" type="curve" smooth="yes"/>
      <point x="461" y="348"/>
      <point x="418" y="396"/>
      <point x="344" y="396" type="curve" smooth="yes"/>
      <point x="285" y="396"/>
      <point x="248" y="360"/>
      <point x="232" y="330" type="curve"/>
    </contour>
  </outline>
</glyph>
<glyph name="seven" format="1">
  <advance width="612"/>
  <unicode hex="0037"/>
  <outline>
    <contour>
      <point x="119" y="622" type="line"/>
      <point x="538" y="622" type="line"/>
      <point x="538" y="610" type="line"/>
      <point x="134" y="180" type="line" smooth="yes"/>
      <point x="78" y="120"/>
      <point x="51" y="84"/>
      <point x="43" y="36" type="curve" smooth="yes"/>
      <point x="37" y="0" type="line"/>
      <point x="128" y="0" type="line"/>
      <point x="133" y="26" type="line" smooth="yes"/>
      <point x="140" y="64"/>
      <point x="161" y="91"/>
      <point x="199" y="132" type="curve" smooth="yes"/>
      <point x="604" y="562" type="line"/>
      <point x="604" y="700" type="line"/>
      <point x="119" y="700" type="line"/>
    </contour>
  </outline>
</glyph>
<glyph name="eight" format="1">
  <advance width="612"/>
  <unicode hex="0038"/>
  <outline>
    <contour>
      <point x="226" y="-14" type="curve"/>
      <point x="392" y="-14"/>
      <point x="514" y="74"/>
      <point x="514" y="228" type="curve" smooth="yes"/>
      <point x="514" y="298"/>
      <point x="466" y="342"/>
      <point x="416" y="357" type="curve"/>
      <point x="416" y="369" type="line"/>
      <point x="512" y="396"/>
      <point x="569" y="474"/>
      <point x="569" y="566" type="curve" smooth="yes"/>
      <point x="569" y="652"/>
      <point x="494" y="714"/>
      <point x="376" y="714" type="curve" smooth="yes"/>
      <point x="228" y="714"/>
      <point x="109" y="626"/>
      <point x="109" y="488" type="curve" smooth="yes"/>
      <point x="109" y="428"/>
      <point x="149" y="386"/>
      <point x="193" y="369" type="curve"/>
      <point x="193" y="357" type="line"/>
      <point x="93" y="334"/>
      <point x="18" y="256"/>
      <point x="18" y="144" type="curve" smooth="yes"/>
      <point x="18" y="52"/>
      <point x="96" y="-14"/>
    </contour>
    <contour>
      <point x="240" y="62" type="curve" smooth="yes"/>
      <point x="156" y="62"/>
      <point x="106" y="98"/>
      <point x="106" y="161" type="curve" smooth="yes"/>
      <point x="106" y="267"/>
      <point x="198" y="324"/>
      <point x="296" y="324" type="curve" smooth="yes"/>
      <point x="379" y="324"/>
      <point x="430" y="290"/>
      <point x="430" y="223" type="curve" smooth="yes"/>
      <point x="430" y="117"/>
      <point x="336" y="62"/>
    </contour>
    <contour>
      <point x="313" y="402" type="curve" smooth="yes"/>
      <point x="240" y="402"/>
      <point x="194" y="439"/>
      <point x="194" y="496" type="curve" smooth="yes"/>
      <point x="194" y="588"/>
      <point x="280" y="638"/>
      <point x="363" y="638" type="curve" smooth="yes"/>
      <point x="437" y="638"/>
      <point x="482" y="604"/>
      <point x="482" y="547" type="curve" smooth="yes"/>
      <point x="482" y="456"/>
      <point x="398" y="402"/>
    </contour>
  </outline>
</glyph>
<glyph name="nine" format="1">
  <advance width="612"/>
  <unicode hex="0039"/>
  <outline>
    <contour>
      <point x="39" y="204" type="line"/>
      <point x="35" y="187"/>
      <point x="33" y="171"/>
      <point x="33" y="156" type="curve" smooth="yes"/>
      <point x="33" y="57"/>
      <point x="111" y="-14"/>
      <point x="232" y="-14" type="curve" smooth="yes"/>
      <point x="376" y="-14"/>
      <point x="484" y="62"/>
      <point x="519" y="228" type="curve" smooth="yes"/>
      <point x="572" y="478" type="line" smooth="yes"/>
      <point x="575" y="495"/>
      <point x="577" y="511"/>
      <point x="577" y="526" type="curve" smooth="yes"/>
      <point x="577" y="636"/>
      <point x="493" y="714"/>
      <point x="372" y="714" type="curve" smooth="yes"/>
      <point x="190" y="714"/>
      <point x="78" y="582"/>
      <point x="78" y="414" type="curve" smooth="yes"/>
      <point x="78" y="308"/>
      <point x="160" y="238"/>
      <point x="266" y="238" type="curve" smooth="yes"/>
      <point x="346" y="238"/>
      <point x="408" y="272"/>
      <point x="444" y="326" type="curve"/>
      <point x="456" y="326" type="line"/>
      <point x="435" y="228" type="line" smooth="yes"/>
      <point x="413" y="128"/>
      <point x="334" y="60"/>
      <point x="244" y="60" type="curve" smooth="yes"/>
      <point x="163" y="60"/>
      <point x="118" y="98"/>
      <point x="118" y="164" type="curve" smooth="yes"/>
      <point x="118" y="176"/>
      <point x="120" y="190"/>
      <point x="123" y="204" type="curve"/>
    </contour>
    <contour>
      <point x="363" y="640" type="curve"/>
      <point x="444" y="640"/>
      <point x="493" y="596"/>
      <point x="493" y="518" type="curve" smooth="yes"/>
      <point x="493" y="406"/>
      <point x="401" y="312"/>
      <point x="293" y="312" type="curve" smooth="yes"/>
      <point x="209" y="312"/>
      <point x="164" y="356"/>
      <point x="164" y="432" type="curve" smooth="yes"/>
      <point x="164" y="548"/>
      <point x="251" y="640"/>
    </contour>
  </outline>
</glyph>
<glyph name="semicolon" format="1">
  <advance width="612"/>
  <unicode hex="003B"/>
  <outline>
    <contour>
      <point x="262" y="440" type="curve" smooth="yes"/>
      <point x="262" y="402"/>
      <point x="294" y="370"/>
      <point x="332" y="370" type="curve" smooth="yes"/>
      <point x="370" y="370"/>
      <point x="402" y="402"/>
      <point x="402" y="440" type="curve" smooth="yes"/>
      <point x="402" y="478"/>
      <point x="370" y="510"/>
      <point x="332" y="510" type="curve" smooth="yes"/>
      <point x="294" y="510"/>
      <point x="262" y="478"/>
    </contour>
    <contour>
      <point x="178" y="56" type="curve" smooth="yes"/>
      <point x="178" y="18"/>
      <point x="210" y="-14"/>
      <point x="248" y="-14" type="curve" smooth="yes"/>
      <point x="252" y="-14" type="line"/>
      <point x="247" y="-36" type="line" smooth="yes"/>
      <point x="243" y="-55"/>
      <point x="232" y="-66"/>
      <point x="213" y="-66" type="curve" smooth="yes"/>
      <point x="154" y="-66" type="line"/>
      <point x="154" y="-120" type="line"/>
      <point x="206" y="-120" type="line" smooth="yes"/>
      <point x="258" y="-120"/>
      <point x="289" y="-92"/>
      <point x="299" y="-42" type="curve" smooth="yes"/>
      <point x="317" y="44" type="line" smooth="yes"/>
      <point x="318" y="49"/>
      <point x="318" y="53"/>
      <point x="318" y="56" type="curve" smooth="yes"/>
      <point x="318" y="94"/>
      <point x="286" y="126"/>
      <point x="248" y="126" type="curve" smooth="yes"/>
      <point x="210" y="126"/>
      <point x="178" y="94"/>
    </contour>
  </outline>
</glyph>
<glyph name="greater" format="1">
  <advance width="612"/>
  <unicode hex="003E"/>
  <outline>
    <contour>
      <point x="141" y="570" type="line"/>
      <point x="141" y="487" type="line"/>
      <point x="484" y="363" type="line"/>
      <point x="484" y="352" type="line"/>
      <point x="66" y="221" type="line"/>
      <point x="66" y="136" type="line"/>
      <point x="514" y="281" type="line"/>
      <point x="514" y="432" type="line"/>
    </contour>
  </outline>
</glyph>
<glyph name="B" format="1">
  <advance width="612"/>
  <unicode hex="0042"/>
  <outline>
    <contour>
      <point x="2" y="0" type="line"/>
      <point x="256" y="0" type="line" smooth="yes"/>
      <point x="400" y="0"/>
      <point x="506" y="90"/>
      <point x="506" y="219" type="curve" smooth="yes"/>
      <point x="506" y="278"/>
      <point x="473" y="329"/>
      <point x="418" y="345" type="curve"/>
      <point x="418" y="357" type="line"/>
      <point x="515" y="378"/>
      <point x="575" y="454"/>
      <point x="575" y="535" type="curve" smooth="yes"/>
      <point x="575" y="631"/>
      <point x="514" y="700"/>
      <point x="393" y="700" type="curve" smooth="yes"/>
      <point x="117" y="700" type="line"/>
      <point x="117" y="622" type="line"/>
      <point x="183" y="622" type="line"/>
      <point x="68" y="78" type="line"/>
      <point x="2" y="78" type="line"/>
    </contour>
    <contour>
      <point x="201" y="312" type="line"/>
      <point x="319" y="312" type="line" smooth="yes"/>
      <point x="386" y="312"/>
      <point x="428" y="277"/>
      <point x="428" y="216" type="curve" smooth="yes"/>
      <point x="428" y="135"/>
      <point x="356" y="78"/>
      <point x="267" y="78" type="curve" smooth="yes"/>
      <point x="152" y="78" type="line"/>
    </contour>
    <contour>
      <point x="267" y="622" type="line"/>
      <point x="382" y="622" type="line" smooth="yes"/>
      <point x="452" y="622"/>
      <point x="493" y="587"/>
      <point x="493" y="532" type="curve" smooth="yes"/>
      <point x="493" y="442"/>
      <point x="417" y="390"/>
      <point x="336" y="390" type="curve" smooth="yes"/>
      <point x="218" y="390" type="line"/>
    </contour>
  </outline>
</glyph>
<glyph name="E" format="1">
  <advance width="612"/>
  <unicode hex="0045"/>
  <outline>
    <contour>
      <point x="28" y="0" type="line"/>
      <point x="446" y="0" type="line"/>
      <point x="446" y="78" type="line"/>
      <point x="129" y="78" type="line"/>
      <point x="178" y="312" type="line"/>
      <point x="500" y="312" type="line"/>
      <point x="500" y="390" type="line"/>
      <point x="195" y="390" type="line"/>
      <point x="244" y="622" type="line"/>
      <point x="572" y="622" type="line"/>
      <point x="572" y="700" type="line"/>
      <point x="177" y="700" type="line"/>
    </contour>
  </outline>
</glyph>
<glyph name="J" format="1">
  <advance width="612"/>
  <unicode hex="004A"/>
  <outline>
    <contour>
      <point x="622" y="700" type="line"/>
      <point x="394" y="700" type="line"/>
      <point x="394" y="622" type="line"/>
      <point x="472" y="622" type="line"/>
      <point x="384" y="210" type="line" smooth="yes"/>
      <point x="366" y="124"/>
      <point x="320" y="64"/>
      <point x="227" y="64" type="curve" smooth="yes"/>
      <point x="150" y="64"/>
      <point x="114" y="97"/>
      <point x="114" y="160" type="curve" smooth="yes"/>
      <point x="114" y="175"/>
      <point x="116" y="192"/>
      <point x="120" y="210" type="curve" smooth="yes"/>
      <point x="132" y="264" type="line"/>
      <point x="48" y="264" type="line"/>
      <point x="36" y="210" type="line" smooth="yes"/>
      <point x="32" y="191"/>
      <point x="30" y="172"/>
      <point x="30" y="155" type="curve" smooth="yes"/>
      <point x="30" y="53"/>
      <point x="100" y="-14"/>
      <point x="216" y="-14" type="curve" smooth="yes"/>
      <point x="366" y="-14"/>
      <point x="437" y="68"/>
      <point x="467" y="206" type="curve" smooth="yes"/>
      <point x="556" y="622" type="line"/>
      <point x="622" y="622" type="line"/>
    </contour>
  </outline>
</glyph>
<glyph name="M" format="1">
  <advance width="612"/>
  <unicode hex="004D"/>
  <outline>
    <contour>
      <point x="-16" y="0" type="line"/>
      <point x="61" y="0" type="line"/>
      <point x="202" y="664" type="line"/>
      <point x="214" y="664" type="line"/>
      <point x="157" y="0" type="line"/>
      <point x="311" y="0" type="line"/>
      <point x="530" y="664" type="line"/>
      <point x="542" y="664" type="line"/>
      <point x="401" y="0" type="line"/>
      <point x="479" y="0" type="line"/>
      <point x="628" y="700" type="line"/>
      <point x="464" y="700" type="line"/>
      <point x="245" y="36" type="line"/>
      <point x="233" y="36" type="line"/>
      <point x="291" y="700" type="line"/>
      <point x="132" y="700" type="line"/>
    </contour>
  </outline>
</glyph>
<glyph name="O" format="1">
  <advance width="612"/>
  <unicode hex="004F"/>
  <outline>
    <contour>
      <point x="46" y="283" type="line" smooth="yes"/>
      <point x="39" y="252"/>
      <point x="36" y="222"/>
      <point x="36" y="195" type="curve" smooth="yes"/>
      <point x="36" y="65"/>
      <point x="107" y="-14"/>
      <point x="236" y="-14" type="curve" smooth="yes"/>
      <point x="400" y="-14"/>
      <point x="497" y="86"/>
      <point x="536" y="272" type="curve" smooth="yes"/>
      <point x="567" y="417" type="line" smooth="yes"/>
      <point x="574" y="448"/>
      <point x="577" y="478"/>
      <point x="577" y="505" type="curve" smooth="yes"/>
      <point x="577" y="635"/>
      <point x="506" y="714"/>
      <point x="377" y="714" type="curve" smooth="yes"/>
      <point x="213" y="714"/>
      <point x="116" y="614"/>
      <point x="77" y="428" type="curve" smooth="yes"/>
    </contour>
    <contour>
      <point x="248" y="62" type="curve" smooth="yes"/>
      <point x="163" y="62"/>
      <point x="120" y="116"/>
      <point x="120" y="202" type="curve" smooth="yes"/>
      <point x="120" y="223"/>
      <point x="123" y="247"/>
      <point x="128" y="272" type="curve" smooth="yes"/>
      <point x="160" y="422" type="line" smooth="yes"/>
      <point x="188" y="553"/>
      <point x="255" y="638"/>
      <point x="365" y="638" type="curve" smooth="yes"/>
      <point x="450" y="638"/>
      <point x="493" y="584"/>
      <point x="493" y="498" type="curve" smooth="yes"/>
      <point x="493" y="477"/>
      <point x="490" y="453"/>
      <point x="485" y="428" type="curve" smooth="yes"/>
      <point x="453" y="278" type="line" smooth="yes"/>
      <point x="425" y="148"/>
      <point x="358" y="62"/>
    </contour>
  </outline>
</glyph>
<glyph name="P" format="1">
  <advance width="612"/>
  <unicode hex="0050"/>
  <outline>
    <contour>
      <point x="317" y="288" type="line" smooth="yes"/>
      <point x="481" y="288"/>
      <point x="581" y="394"/>
      <point x="581" y="533" type="curve" smooth="yes"/>
      <point x="581" y="630"/>
      <point x="508" y="700"/>
      <point x="389" y="700" type="curve" smooth="yes"/>
      <point x="161" y="700" type="line"/>
      <point x="12" y="0" type="line"/>
      <point x="96" y="0" type="line"/>
      <point x="157" y="288" type="line"/>
    </contour>
    <contour>
      <point x="228" y="622" type="line"/>
      <point x="377" y="622" type="line" smooth="yes"/>
      <point x="453" y="622"/>
      <point x="495" y="588"/>
      <point x="495" y="518" type="curve" smooth="yes"/>
      <point x="495" y="424"/>
      <point x="423" y="366"/>
      <point x="324" y="366" type="curve" smooth="yes"/>
      <point x="174" y="366" type="line"/>
    </contour>
  </outline>
</glyph>
<glyph name="X" format="1">
  <advance width="612"/>
  <unicode hex="0058"/>
  <outline>
    <contour>
      <point x="125" y="700" type="line"/>
      <point x="227" y="362" type="line"/>
      <point x="227" y="350" type="line"/>
      <point x="-19" y="6" type="line"/>
      <point x="-19" y="0" type="line"/>
      <point x="75" y="0" type="line"/>
      <point x="294" y="312" type="line"/>
      <point x="312" y="312" type="line"/>
      <point x="403" y="0" type="line"/>
      <point x="489" y="0" type="line"/>
      <point x="387" y="338" type="line"/>
      <point x="387" y="350" type="line"/>
      <point x="634" y="694" type="line"/>
      <point x="634" y="700" type="line"/>
      <point x="539" y="700" type="line"/>
      <point x="320" y="390" type="line"/>
      <point x="302" y="390" type="line"/>
      <point x="211" y="700" type="line"/>
    </contour>
  </outline>
</glyph>
<glyph name="Y" format="1">
  <advance width="612"/>
  <unicode hex="0059"/>
  <outline>
    <contour>
      <point x="184" y="0" type="line"/>
      <point x="268" y="0" type="line"/>
      <point x="320" y="246" type="line"/>
      <point x="338" y="246" type="line"/>
      <point x="650" y="694" type="line"/>
      <point x="650" y="700" type="line"/>
      <point x="553" y="700" type="line"/>
      <point x="293" y="318" type="line"/>
      <point x="281" y="318" type="line"/>
      <point x="183" y="700" type="line"/>
      <point x="96" y="700" type="line"/>
      <point x="218" y="246" type="line"/>
      <point x="236" y="246" type="line"/>
    </contour>
  </outline>
</glyph>
<glyph name="bracketleft" format="1">
  <advance width="612"/>
  <unicode hex="005B"/>
  <outline>
    <contour>
      <point x="175" y="-60" type="line" smooth="yes"/>
      <point x="173" y="-69"/>
      <point x="172" y="-78"/>
      <point x="172" y="-86" type="curve" smooth="yes"/>
      <point x="172" y="-133"/>
      <point x="206" y="-156"/>
      <point x="254" y="-156" type="curve" smooth="yes"/>
      <point x="343" y="-156" type="line"/>
      <point x="343" y="-84" type="line"/>
      <point x="276" y="-84" type="line" smooth="yes"/>
      <point x="260" y="-84"/>
      <point x="253" y="-76"/>
      <point x="253" y="-64" type="curve" smooth="yes"/>
      <point x="253" y="-64"/>
      <point x="253" y="-60"/>
      <point x="254" y="-54" type="curve" smooth="yes"/>
      <point x="431" y="754" type="line" smooth="yes"/>
      <point x="435" y="774"/>
      <point x="445" y="784"/>
      <point x="465" y="784" type="curve" smooth="yes"/>
      <point x="534" y="784" type="line"/>
      <point x="534" y="856" type="line"/>
      <point x="452" y="856" type="line" smooth="yes"/>
      <point x="402" y="856"/>
      <point x="369" y="826"/>
      <point x="358" y="778" type="curve" smooth="yes"/>
    </contour>
  </outline>
</glyph>
<glyph name="bracketright" format="1">
  <advance width="612"/>
  <unicode hex="005D"/>
  <outline>
    <contour>
      <point x="440" y="760" type="line" smooth="yes"/>
      <point x="442" y="769"/>
      <point x="443" y="778"/>
      <point x="443" y="786" type="curve" smooth="yes"/>
      <point x="443" y="833"/>
      <point x="409" y="856"/>
      <point x="361" y="856" type="curve" smooth="yes"/>
      <point x="272" y="856" type="line"/>
      <point x="272" y="784" type="line"/>
      <point x="339" y="784" type="line" smooth="yes"/>
      <point x="355" y="784"/>
      <point x="362" y="776"/>
      <point x="362" y="764" type="curve" smooth="yes"/>
      <point x="362" y="764"/>
      <point x="362" y="760"/>
      <point x="361" y="754" type="curve" smooth="yes"/>
      <point x="184" y="-54" type="line" smooth="yes"/>
      <point x="180" y="-74"/>
      <point x="170" y="-84"/>
      <point x="150" y="-84" type="curve" smooth="yes"/>
      <point x="81" y="-84" type="line"/>
      <point x="81" y="-156" type="line"/>
      <point x="163" y="-156" type="line" smooth="yes"/>
      <point x="213" y="-156"/>
      <point x="246" y="-126"/>
      <point x="257" y="-78" type="curve" smooth="yes"/>
    </contour>
  </outline>
</glyph>
<glyph name="asciicircum" format="1">
  <advance width="612"/>
  <unicode hex="005E"/>
  <outline>
    <contour>
      <point x="448" y="700" type="line"/>
      <point x="300" y="700" type="line"/>
      <point x="83" y="430" type="line"/>
      <point x="83" y="424" type="line"/>
      <point x="179" y="424" type="line"/>
      <point x="361" y="670" type="line"/>
      <point x="373" y="670" type="line"/>
      <point x="457" y="424" type="line"/>
      <point x="546" y="424" type="line"/>
    </contour>
  </outline>
</glyph>
<glyph name="underscore" format="1">
  <advance width="612"/>
  <unicode hex="005F"/>
  <outline>
    <contour>
      <point x="4" y="-120" type="line"/>
      <point x="470" y="-120" type="line"/>
      <point x="470" y="-48" type="line"/>
      <point x="4" y="-48" type="line"/>
    </contour>
  </outline>
</glyph>
<glyph name="a" format="1">
  <advance width="612"/>
  <unicode hex="0061"/>
  <outline>
    <contour>
      <point x="359" y="78" type="line"/>
      <point x="358" y="71"/>
      <point x="357" y="64"/>
      <point x="357" y="58" type="curve" smooth="yes"/>
      <point x="357" y="6"/>
      <point x="398" y="-14"/>
      <point x="437" y="-14" type="curve" smooth="yes"/>
      <point x="460" y="-14"/>
      <point x="483" y="-7"/>
      <point x="498" y="4" type="curve" smooth="yes"/>
      <point x="543" y="38" type="line"/>
      <point x="501" y="97" type="line"/>
      <point x="465" y="71" type="line" smooth="yes"/>
      <point x="461" y="68"/>
      <point x="455" y="66"/>
      <point x="451" y="66" type="curve" smooth="yes"/>
      <point x="442" y="66"/>
      <point x="435" y="72"/>
      <point x="438" y="84" type="curve" smooth="yes"/>
      <point x="526" y="496" type="line"/>
      <point x="448" y="496" type="line"/>
      <point x="432" y="418" type="line"/>
      <point x="420" y="418" type="line"/>
      <point x="406" y="478"/>
      <point x="354" y="510"/>
      <point x="286" y="510" type="curve" smooth="yes"/>
      <point x="108" y="510"/>
      <point x="12" y="352"/>
      <point x="12" y="184" type="curve" smooth="yes"/>
      <point x="12" y="66"/>
      <point x="77" y="-14"/>
      <point x="184" y="-14" type="curve" smooth="yes"/>
      <point x="246" y="-14"/>
      <point x="306" y="8"/>
      <point x="347" y="78" type="curve"/>
    </contour>
    <contour>
      <point x="208" y="60" type="curve" smooth="yes"/>
      <point x="134" y="60"/>
      <point x="94" y="106"/>
      <point x="94" y="194" type="curve" smooth="yes"/>
      <point x="94" y="320"/>
      <point x="163" y="436"/>
      <point x="287" y="436" type="curve" smooth="yes"/>
      <point x="365" y="436"/>
      <point x="402" y="381"/>
      <point x="402" y="299" type="curve" smooth="yes"/>
      <point x="402" y="164"/>
      <point x="316" y="60"/>
    </contour>
  </outline>
</glyph>
<glyph name="g" format="1">
  <advance width="612"/>
  <unicode hex="0067"/>
  <outline>
    <contour>
      <point x="359" y="-98" type="line" smooth="yes"/>
      <point x="355" y="-117"/>
      <point x="344" y="-128"/>
      <point x="325" y="-128" type="curve" smooth="yes"/>
      <point x="36" y="-128" type="line"/>
      <point x="36" y="-200" type="line"/>
      <point x="338" y="-200" type="line" smooth="yes"/>
      <point x="383" y="-200"/>
      <point x="422" y="-167"/>
      <point x="432" y="-122" type="curve" smooth="yes"/>
      <point x="563" y="496" type="line"/>
      <point x="485" y="496" type="line"/>
      <point x="468" y="418" type="line"/>
      <point x="456" y="418" type="line"/>
      <point x="440" y="472"/>
      <point x="386" y="510"/>
      <point x="308" y="510" type="curve" smooth="yes"/>
      <point x="140" y="510"/>
      <point x="24" y="370"/>
      <point x="24" y="186" type="curve" smooth="yes"/>
      <point x="24" y="66"/>
      <point x="100" y="-14"/>
      <point x="215" y="-14" type="curve" smooth="yes"/>
      <point x="284" y="-14"/>
      <point x="344" y="14"/>
      <point x="383" y="70" type="curve"/>
      <point x="395" y="70" type="line"/>
    </contour>
    <contour>
      <point x="232" y="60" type="curve" smooth="yes"/>
      <point x="150" y="60"/>
      <point x="105" y="112"/>
      <point x="105" y="194" type="curve" smooth="yes"/>
      <point x="105" y="320"/>
      <point x="184" y="436"/>
      <point x="310" y="436" type="curve" smooth="yes"/>
      <point x="388" y="436"/>
      <point x="439" y="380"/>
      <point x="439" y="298" type="curve" smooth="yes"/>
      <point x="439" y="180"/>
      <point x="354" y="60"/>
    </contour>
  </outline>
</glyph>
<glyph name="h" format="1">
  <advance width="612"/>
  <unicode hex="0068"/>
  <outline>
    <contour>
      <point x="382" y="86" type="line" smooth="yes"/>
      <point x="380" y="76"/>
      <point x="379" y="68"/>
      <point x="379" y="60" type="curve" smooth="yes"/>
      <point x="379" y="9"/>
      <point x="416" y="-14"/>
      <point x="457" y="-14" type="curve" smooth="yes"/>
      <point x="478" y="-14"/>
      <point x="501" y="-7"/>
      <point x="518" y="5" type="curve" smooth="yes"/>
      <point x="564" y="38" type="line"/>
      <point x="522" y="97" type="line"/>
      <point x="483" y="69" type="line" smooth="yes"/>
      <point x="478" y="65"/>
      <point x="474" y="64"/>
      <point x="471" y="64" type="curve" smooth="yes"/>
      <point x="461" y="64"/>
      <point x="456" y="70"/>
      <point x="458" y="79" type="curve" smooth="yes"/>
      <point x="502" y="288" type="line" smooth="yes"/>
      <point x="507" y="311"/>
      <point x="509" y="332"/>
      <point x="509" y="352" type="curve" smooth="yes"/>
      <point x="509" y="452"/>
      <point x="444" y="510"/>
      <point x="356" y="510" type="curve" smooth="yes"/>
      <point x="290" y="510"/>
      <point x="234" y="484"/>
      <point x="201" y="422" type="curve"/>
      <point x="189" y="422" type="line"/>
      <point x="249" y="714" type="line"/>
      <point x="174" y="714" type="line"/>
      <point x="22" y="0" type="line"/>
      <point x="99" y="0" type="line"/>
      <point x="154" y="258" type="line" smooth="yes"/>
      <point x="177" y="366"/>
      <point x="238" y="436"/>
      <point x="328" y="436" type="curve" smooth="yes"/>
      <point x="388" y="436"/>
      <point x="434" y="409"/>
      <point x="434" y="340" type="curve" smooth="yes"/>
      <point x="434" y="326"/>
      <point x="432" y="313"/>
      <point x="428" y="294" type="curve" smooth="yes"/>
    </contour>
  </outline>
</glyph>
<glyph name="m" format="1">
  <advance width="612"/>
  <unicode hex="006D"/>
  <outline>
    <contour>
      <point x="414" y="78" type="line"/>
      <point x="413" y="72"/>
      <point x="412" y="65"/>
      <point x="412" y="58" type="curve" smooth="yes"/>
      <point x="412" y="6"/>
      <point x="453" y="-14"/>
      <point x="492" y="-14" type="curve" smooth="yes"/>
      <point x="515" y="-14"/>
      <point x="538" y="-7"/>
      <point x="553" y="4" type="curve" smooth="yes"/>
      <point x="598" y="38" type="line"/>
      <point x="556" y="97" type="line"/>
      <point x="514" y="66" type="line" smooth="yes"/>
      <point x="510" y="63"/>
      <point x="507" y="62"/>
      <point x="503" y="62" type="curve" smooth="yes"/>
      <point x="495" y="62"/>
      <point x="489" y="68"/>
      <point x="491" y="78" type="curve" smooth="yes"/>
      <point x="555" y="376" type="line" smooth="yes"/>
      <point x="557" y="387"/>
      <point x="559" y="402"/>
      <point x="559" y="414" type="curve" smooth="yes"/>
      <point x="559" y="471"/>
      <point x="527" y="510"/>
      <point x="468" y="510" type="curve" smooth="yes"/>
      <point x="426" y="510"/>
      <point x="397" y="490"/>
      <point x="378" y="454" type="curve"/>
      <point x="366" y="454" type="line"/>
      <point x="359" y="488"/>
      <point x="332" y="510"/>
      <point x="291" y="510" type="curve" smooth="yes"/>
      <point x="254" y="510"/>
      <point x="220" y="492"/>
      <point x="206" y="454" type="curve"/>
      <point x="194" y="454" type="line"/>
      <point x="203" y="496" type="line"/>
      <point x="125" y="496" type="line"/>
      <point x="20" y="0" type="line"/>
      <point x="97" y="0" type="line"/>
      <point x="174" y="360" type="line" smooth="yes"/>
      <point x="183" y="400"/>
      <point x="203" y="436"/>
      <point x="245" y="436" type="curve" smooth="yes"/>
      <point x="278" y="436"/>
      <point x="289" y="417"/>
      <point x="289" y="393" type="curve" smooth="yes"/>
      <point x="289" y="384"/>
      <point x="288" y="377"/>
      <point x="287" y="372" type="curve" smooth="yes"/>
      <point x="208" y="0" type="line"/>
      <point x="286" y="0" type="line"/>
      <point x="363" y="360" type="line" smooth="yes"/>
      <point x="373" y="408"/>
      <point x="395" y="436"/>
      <point x="433" y="436" type="curve" smooth="yes"/>
      <point x="464" y="436"/>
      <point x="478" y="416"/>
      <point x="478" y="390" type="curve" smooth="yes"/>
      <point x="478" y="384"/>
      <point x="477" y="378"/>
      <point x="476" y="372" type="curve" smooth="yes"/>
    </contour>
  </outline>
</glyph>
<glyph name="p" format="1">
  <advance width="612"/>
  <unicode hex="0070"/>
  <outline>
    <contour>
      <point x="136" y="76" type="line"/>
      <point x="148" y="76" type="line"/>
      <point x="170" y="24"/>
      <point x="228" y="-14"/>
      <point x="302" y="-14" type="curve" smooth="yes"/>
      <point x="488" y="-14"/>
      <point x="581" y="142"/>
      <point x="581" y="318" type="curve" smooth="yes"/>
      <point x="581" y="428"/>
      <point x="504" y="510"/>
      <point x="394" y="510" type="curve" smooth="yes"/>
      <point x="316" y="510"/>
      <point x="260" y="478"/>
      <point x="220" y="418" type="curve"/>
      <point x="208" y="418" type="line"/>
      <point x="208" y="424" type="line" smooth="yes"/>
      <point x="208" y="480"/>
      <point x="174" y="510"/>
      <point x="121" y="510" type="curve" smooth="yes"/>
      <point x="100" y="510"/>
      <point x="79" y="504"/>
      <point x="60" y="491" type="curve" smooth="yes"/>
      <point x="13" y="459" type="line"/>
      <point x="53" y="400" type="line"/>
      <point x="108" y="438" type="line" smooth="yes"/>
      <point x="111" y="440"/>
      <point x="115" y="441"/>
      <point x="117" y="441" type="curve" smooth="yes"/>
      <point x="127" y="441"/>
      <point x="134" y="435"/>
      <point x="131" y="421" type="curve" smooth="yes"/>
      <point x="0" y="-200" type="line"/>
      <point x="77" y="-200" type="line"/>
    </contour>
    <contour>
      <point x="292" y="60" type="curve" smooth="yes"/>
      <point x="214" y="60"/>
      <point x="167" y="110"/>
      <point x="167" y="195" type="curve" smooth="yes"/>
      <point x="167" y="314"/>
      <point x="250" y="436"/>
      <point x="372" y="436" type="curve" smooth="yes"/>
      <point x="448" y="436"/>
      <point x="498" y="390"/>
      <point x="498" y="302" type="curve" smooth="yes"/>
      <point x="498" y="176"/>
      <point x="424" y="60"/>
    </contour>
  </outline>
</glyph>
<glyph name="r" format="1">
  <advance width="612"/>
  <unicode hex="0072"/>
  <outline>
    <contour>
      <point x="122" y="72" type="line"/>
      <point x="0" y="72" type="line"/>
      <point x="0" y="0" type="line"/>
      <point x="318" y="0" type="line"/>
      <point x="318" y="72" type="line"/>
      <point x="200" y="72" type="line"/>
      <point x="247" y="294" type="line" smooth="yes"/>
      <point x="263" y="370"/>
      <point x="313" y="436"/>
      <point x="393" y="436" type="curve" smooth="yes"/>
      <point x="448" y="436"/>
      <point x="488" y="406"/>
      <point x="488" y="342" type="curve" smooth="yes"/>
      <point x="488" y="329"/>
      <point x="486" y="315"/>
      <point x="483" y="300" type="curve"/>
      <point x="568" y="306" type="line"/>
      <point x="572" y="324"/>
      <point x="574" y="342"/>
      <point x="574" y="359" type="curve" smooth="yes"/>
      <point x="574" y="449"/>
      <point x="515" y="510"/>
      <point x="420" y="510" type="curve" smooth="yes"/>
      <point x="368" y="510"/>
      <point x="318" y="490"/>
      <point x="280" y="436" type="curve"/>
      <point x="268" y="436" type="line"/>
      <point x="264" y="488"/>
      <point x="229" y="510"/>
      <point x="188" y="510" type="curve" smooth="yes"/>
      <point x="166" y="510"/>
      <point x="141" y="502"/>
      <point x="119" y="487" type="curve" smooth="yes"/>
      <point x="30" y="427" type="line"/>
      <point x="70" y="368" type="line"/>
      <point x="161" y="430" type="line" smooth="yes"/>
      <point x="167" y="434"/>
      <point x="172" y="435"/>
      <point x="176" y="435" type="curve" smooth="yes"/>
      <point x="188" y="435"/>
      <point x="198" y="426"/>
      <point x="194" y="410" type="curve" smooth="yes"/>
    </contour>
  </outline>
</glyph>
<glyph name="braceleft" format="1">
  <advance width="612"/>
  <unicode hex="007B"/>
  <outline>
    <contour>
      <point x="298" y="433" type="line" smooth="yes"/>
      <point x="294" y="414"/>
      <point x="284" y="404"/>
      <point x="265" y="404" type="curve" smooth="yes"/>
      <point x="201" y="404" type="line"/>
      <point x="201" y="296" type="line"/>
      <point x="240" y="296" type="line" smooth="yes"/>
      <point x="255" y="296"/>
      <point x="262" y="289"/>
      <point x="262" y="277" type="curve" smooth="yes"/>
      <point x="262" y="274"/>
      <point x="262" y="272"/>
      <point x="261" y="267" type="curve" smooth="yes"/>
      <point x="191" y="-54" type="line" smooth="yes"/>
      <point x="189" y="-65"/>
      <point x="188" y="-72"/>
      <point x="188" y="-83" type="curve" smooth="yes"/>
      <point x="188" y="-134"/>
      <point x="224" y="-156"/>
      <point x="272" y="-156" type="curve" smooth="yes"/>
      <point x="358" y="-156" type="line"/>
      <point x="358" y="-84" type="line"/>
      <point x="293" y="-84" type="line" smooth="yes"/>
      <point x="276" y="-84"/>
      <point x="268" y="-76"/>
      <point x="268" y="-64" type="curve" smooth="yes"/>
      <point x="268" y="-61"/>
      <point x="268" y="-60"/>
      <point x="269" y="-55" type="curve" smooth="yes"/>
      <point x="338" y="262" type="line" smooth="yes"/>
      <point x="340" y="273"/>
      <point x="340" y="276"/>
      <point x="340" y="283" type="curve" smooth="yes"/>
      <point x="340" y="321"/>
      <point x="315" y="344"/>
      <point x="279" y="344" type="curve" smooth="yes"/>
      <point x="267" y="344" type="line"/>
      <point x="267" y="356" type="line"/>
      <point x="282" y="356" type="line" smooth="yes"/>
      <point x="332" y="356"/>
      <point x="366" y="386"/>
      <point x="376" y="434" type="curve" smooth="yes"/>
      <point x="446" y="754" type="line" smooth="yes"/>
      <point x="450" y="774"/>
      <point x="460" y="784"/>
      <point x="480" y="784" type="curve" smooth="yes"/>
      <point x="549" y="784" type="line"/>
      <point x="549" y="856" type="line"/>
      <point x="467" y="856" type="line" smooth="yes"/>
      <point x="414" y="856"/>
      <point x="384" y="828"/>
      <point x="373" y="778" type="curve" smooth="yes"/>
    </contour>
  </outline>
</glyph>
<glyph name="braceright" format="1">
  <advance width="612"/>
  <unicode hex="007D"/>
  <outline>
    <contour>
      <point x="314" y="267" type="line"/>
      <point x="318" y="286"/>
      <point x="328" y="296"/>
      <point x="347" y="296" type="curve" smooth="yes"/>
      <point x="411" y="296" type="line"/>
      <point x="411" y="404" type="line"/>
      <point x="372" y="404" type="line" smooth="yes"/>
      <point x="357" y="404"/>
      <point x="350" y="411"/>
      <point x="350" y="423" type="curve" smooth="yes"/>
      <point x="350" y="426"/>
      <point x="350" y="428"/>
      <point x="351" y="433" type="curve" smooth="yes"/>
      <point x="421" y="754" type="line" smooth="yes"/>
      <point x="423" y="765"/>
      <point x="424" y="772"/>
      <point x="424" y="783" type="curve" smooth="yes"/>
      <point x="424" y="834"/>
      <point x="388" y="856"/>
      <point x="340" y="856" type="curve" smooth="yes"/>
      <point x="254" y="856" type="line"/>
      <point x="254" y="784" type="line"/>
      <point x="319" y="784" type="line" smooth="yes"/>
      <point x="336" y="784"/>
      <point x="344" y="776"/>
      <point x="344" y="764" type="curve" smooth="yes"/>
      <point x="344" y="761"/>
      <point x="344" y="760"/>
      <point x="343" y="755" type="curve" smooth="yes"/>
      <point x="274" y="438" type="line" smooth="yes"/>
      <point x="272" y="427"/>
      <point x="272" y="424"/>
      <point x="272" y="417" type="curve" smooth="yes"/>
      <point x="272" y="379"/>
      <point x="297" y="356"/>
      <point x="333" y="356" type="curve" smooth="yes"/>
      <point x="345" y="356" type="line"/>
      <point x="345" y="344" type="line"/>
      <point x="330" y="344" type="line" smooth="yes"/>
      <point x="280" y="344"/>
      <point x="246" y="314"/>
      <point x="236" y="266" type="curve" smooth="yes"/>
      <point x="166" y="-54" type="line" smooth="yes"/>
      <point x="162" y="-74"/>
      <point x="152" y="-84"/>
      <point x="132" y="-84" type="curve" smooth="yes"/>
      <point x="63" y="-84" type="line"/>
      <point x="63" y="-156" type="line"/>
      <point x="145" y="-156" type="line" smooth="yes"/>
      <point x="198" y="-156"/>
      <point x="228" y="-128"/>
      <point x="239" y="-78" type="curve" smooth="yes"/>
    </contour>
  </outline>
</glyph>
<glyph name="section" format="1">
  <advance width="612"/>
  <unicode hex="00A7"/>
  <outline>
    <contour>
      <point x="206" y="476" type="curve" smooth="yes"/>
      <point x="206" y="415"/>
      <point x="250" y="394"/>
      <point x="296" y="384" type="curve" smooth="yes"/>
      <point x="344" y="374"/>
      <point x="365" y="362"/>
      <point x="365" y="336" type="curve" smooth="yes"/>
      <point x="365" y="304"/>
      <point x="334" y="284"/>
      <point x="296" y="284" type="curve" smooth="yes"/>
      <point x="256" y="284"/>
      <point x="234" y="308"/>
      <point x="234" y="336" type="curve" smooth="yes"/>
      <point x="234" y="341"/>
      <point x="235" y="352"/>
      <point x="237" y="359" type="curve"/>
      <point x="169" y="359" type="line"/>
      <point x="165" y="343"/>
      <point x="164" y="332"/>
      <point x="164" y="316" type="curve" smooth="yes"/>
      <point x="164" y="266"/>
      <point x="204" y="218"/>
      <point x="286" y="218" type="curve" smooth="yes"/>
      <point x="373" y="218"/>
      <point x="440" y="268"/>
      <point x="440" y="352" type="curve" smooth="yes"/>
      <point x="440" y="374"/>
      <point x="434" y="387"/>
      <point x="431" y="393" type="curve"/>
      <point x="452" y="415"/>
      <point x="464" y="442"/>
      <point x="464" y="468" type="curve" smooth="yes"/>
      <point x="464" y="516"/>
      <point x="433" y="544"/>
      <point x="377" y="554" type="curve" smooth="yes"/>
      <point x="320" y="564"/>
      <point x="302" y="577"/>
      <point x="302" y="603" type="curve" smooth="yes"/>
      <point x="302" y="629"/>
      <point x="330" y="648"/>
      <point x="364" y="648" type="curve" smooth="yes"/>
      <point x="399" y="648"/>
      <point x="419" y="627"/>
      <point x="419" y="605" type="curve" smooth="yes"/>
      <point x="419" y="602"/>
      <point x="419" y="598"/>
      <point x="416" y="588" type="curve"/>
      <point x="485" y="588" type="line"/>
      <point x="490" y="606"/>
      <point x="490" y="619"/>
      <point x="490" y="626" type="curve" smooth="yes"/>
      <point x="490" y="672"/>
      <point x="448" y="714"/>
      <point x="376" y="714" type="curve" smooth="yes"/>
      <point x="292" y="714"/>
      <point x="229" y="664"/>
      <point x="229" y="586" type="curve" smooth="yes"/>
      <point x="229" y="568"/>
      <point x="234" y="554"/>
      <point x="238" y="545" type="curve"/>
      <point x="221" y="527"/>
      <point x="206" y="506"/>
    </contour>
    <contour>
      <point x="340" y="443" type="curve" smooth="yes"/>
      <point x="298" y="450"/>
      <point x="281" y="464"/>
      <point x="281" y="483" type="curve" smooth="yes"/>
      <point x="281" y="491"/>
      <point x="283" y="498"/>
      <point x="290" y="508" type="curve"/>
      <point x="321" y="501" type="line" smooth="yes"/>
      <point x="369" y="490"/>
      <point x="386" y="482"/>
      <point x="386" y="456" type="curve" smooth="yes"/>
      <point x="386" y="448"/>
      <point x="383" y="437"/>
      <point x="379" y="432" type="curve"/>
      <point x="371" y="435"/>
      <point x="366" y="438"/>
    </contour>
  </outline>
</glyph>
<glyph name="logicalnot" format="1">
  <advance width="612"/>
  <unicode hex="00AC"/>
  <outline>
    <contour>
      <point x="98" y="314" type="line"/>
      <point x="430" y="314" type="line"/>
      <point x="411" y="230" type="line"/>
      <point x="483" y="230" type="line"/>
      <point x="515" y="380" type="line"/>
      <point x="515" y="386" type="line"/>
      <point x="98" y="386" type="line"/>
    </contour>
  </outline>
</glyph>
<glyph name="degree" format="1">
  <advance width="612"/>
  <unicode hex="00B0"/>
  <outline>
    <contour>
      <point x="210" y="569" type="curve" smooth="yes"/>
      <point x="210" y="489"/>
      <point x="275" y="424"/>
      <point x="355" y="424" type="curve" smooth="yes"/>
      <point x="435" y="424"/>
      <point x="500" y="489"/>
      <point x="500" y="569" type="curve" smooth="yes"/>
      <point x="500" y="649"/>
      <point x="435" y="714"/>
      <point x="355" y="714" type="curve" smooth="yes"/>
      <point x="275" y="714"/>
      <point x="210" y="649"/>
    </contour>
    <contour>
      <point x="282" y="569" type="curve" smooth="yes"/>
      <point x="282" y="609"/>
      <point x="315" y="642"/>
      <point x="355" y="642" type="curve" smooth="yes"/>
      <point x="395" y="642"/>
      <point x="428" y="609"/>
      <point x="428" y="569" type="curve" smooth="yes"/>
      <point x="428" y="529"/>
      <point x="395" y="496"/>
      <point x="355" y="496" type="curve" smooth="yes"/>
      <point x="315" y="496"/>
      <point x="282" y="529"/>
    </contour>
  </outline>
</glyph>
<glyph name="plusminus" format="1">
  <advance width="612"/>
  <unicode hex="00B1"/>
  <outline>
    <contour>
      <point x="36" y="0" type="line"/>
      <point x="454" y="0" type="line"/>
      <point x="454" y="72" type="line"/>
      <point x="36" y="72" type="line"/>
    </contour>
    <contour>
      <point x="96" y="314" type="line"/>
      <point x="260" y="314" type="line"/>
      <point x="223" y="141" type="line"/>
      <point x="297" y="141" type="line"/>
      <point x="334" y="314" type="line"/>
      <point x="514" y="314" type="line"/>
      <point x="514" y="386" type="line"/>
      <point x="349" y="386" type="line"/>
      <point x="386" y="559" type="line"/>
      <point x="312" y="559" type="line"/>
      <point x="275" y="386" type="line"/>
      <point x="96" y="386" type="line"/>
    </contour>
  </outline>
</glyph>
<glyph name="acute" format="1">
  <advance width="612"/>
  <unicode hex="00B4"/>
  <outline>
    <contour>
      <point x="363" y="688" type="line"/>
      <point x="272" y="570" type="line"/>
      <point x="352" y="570" type="line"/>
      <point x="455" y="682" type="line"/>
      <point x="455" y="688" type="line"/>
    </contour>
  </outline>
</glyph>
<glyph name="mu" format="1">
  <advance width="612"/>
  <unicode hex="00B5"/>
  <outline>
    <contour>
      <point x="376" y="78" type="line"/>
      <point x="375" y="73"/>
      <point x="374" y="64"/>
      <point x="374" y="56" type="curve" smooth="yes"/>
      <point x="374" y="7"/>
      <point x="412" y="-14"/>
      <point x="452" y="-14" type="curve" smooth="yes"/>
      <point x="476" y="-14"/>
      <point x="500" y="-6"/>
      <point x="517" y="6" type="curve" smooth="yes"/>
      <point x="560" y="38" type="line"/>
      <point x="518" y="97" type="line"/>
      <point x="482" y="71" type="line" smooth="yes"/>
      <point x="478" y="68"/>
      <point x="474" y="66"/>
      <point x="469" y="66" type="curve" smooth="yes"/>
      <point x="460" y="66"/>
      <point x="453" y="74"/>
      <point x="456" y="86" type="curve" smooth="yes"/>
      <point x="543" y="496" type="line"/>
      <point x="465" y="496" type="line"/>
      <point x="410" y="238" type="line" smooth="yes"/>
      <point x="387" y="130"/>
      <point x="329" y="60"/>
      <point x="232" y="60" type="curve" smooth="yes"/>
      <point x="175" y="60"/>
      <point x="131" y="92"/>
      <point x="131" y="167" type="curve" smooth="yes"/>
      <point x="131" y="183"/>
      <point x="133" y="200"/>
      <point x="137" y="220" type="curve" smooth="yes"/>
      <point x="195" y="496" type="line"/>
      <point x="117" y="496" type="line"/>
      <point x="-30" y="-200" type="line"/>
      <point x="48" y="-200" type="line"/>
      <point x="103" y="60" type="line"/>
      <point x="115" y="60" type="line"/>
      <point x="125" y="14"/>
      <point x="165" y="-14"/>
      <point x="223" y="-14" type="curve" smooth="yes"/>
      <point x="297" y="-14"/>
      <point x="341" y="18"/>
      <point x="365" y="78" type="curve"/>
    </contour>
  </outline>
</glyph>
<glyph name="onesuperior" format="1">
  <advance width="612"/>
  <unicode hex="00B9"/>
  <outline>
    <contour>
      <point x="194" y="460" type="line"/>
      <point x="194" y="412" type="line"/>
      <point x="397" y="412" type="line"/>
      <point x="397" y="460" type="line"/>
      <point x="326" y="460" type="line"/>
      <point x="377" y="700" type="line"/>
      <point x="270" y="700" type="line"/>
      <point x="206" y="577" type="line"/>
      <point x="263" y="577" type="line"/>
      <point x="308" y="670" type="line"/>
      <point x="317" y="670" type="line"/>
      <point x="272" y="460" type="line"/>
    </contour>
  </outline>
</glyph>
<glyph name="ordmasculine" format="1">
  <advance width="612"/>
  <unicode hex="00BA"/>
  <outline>
    <contour>
      <point x="204" y="522" type="curve" smooth="yes"/>
      <point x="204" y="448"/>
      <point x="256" y="406"/>
      <point x="324" y="406" type="curve" smooth="yes"/>
      <point x="442" y="406"/>
      <point x="502" y="492"/>
      <point x="502" y="586" type="curve" smooth="yes"/>
      <point x="502" y="660"/>
      <point x="450" y="706"/>
      <point x="380" y="706" type="curve" smooth="yes"/>
      <point x="268" y="706"/>
      <point x="204" y="622"/>
    </contour>
    <contour>
      <point x="332" y="466" type="curve" smooth="yes"/>
      <point x="292" y="466"/>
      <point x="270" y="492"/>
      <point x="270" y="530" type="curve" smooth="yes"/>
      <point x="270" y="592"/>
      <point x="308" y="646"/>
      <point x="372" y="646" type="curve" smooth="yes"/>
      <point x="412" y="646"/>
      <point x="434" y="620"/>
      <point x="434" y="582" type="curve" smooth="yes"/>
      <point x="434" y="514"/>
      <point x="392" y="466"/>
    </contour>
  </outline>
</glyph>
<glyph name="questiondown" format="1">
  <advance width="612"/>
  <unicode hex="00BF"/>
  <outline>
    <contour>
      <point x="255" y="136" type="line" smooth="yes"/>
      <point x="313" y="136"/>
      <point x="349" y="168"/>
      <point x="360" y="222" type="curve" smooth="yes"/>
      <point x="380" y="316" type="line"/>
      <point x="300" y="316" type="line"/>
      <point x="285" y="242" type="line" smooth="yes"/>
      <point x="281" y="222"/>
      <point x="269" y="212"/>
      <point x="249" y="212" type="curve" smooth="yes"/>
      <point x="237" y="212" type="line" smooth="yes"/>
      <point x="91" y="212"/>
      <point x="9" y="89"/>
      <point x="9" y="-25" type="curve" smooth="yes"/>
      <point x="9" y="-131"/>
      <point x="91" y="-212"/>
      <point x="215" y="-212" type="curve" smooth="yes"/>
      <point x="361" y="-212"/>
      <point x="455" y="-122"/>
      <point x="485" y="20" type="curve" smooth="yes"/>
      <point x="495" y="68" type="line"/>
      <point x="411" y="68" type="line"/>
      <point x="402" y="26" type="line" smooth="yes"/>
      <point x="381" y="-74"/>
      <point x="315" y="-134"/>
      <point x="225" y="-134" type="curve" smooth="yes"/>
      <point x="141" y="-134"/>
      <point x="96" y="-82"/>
      <point x="96" y="-17" type="curve" smooth="yes"/>
      <point x="96" y="64"/>
      <point x="148" y="136"/>
      <point x="231" y="136" type="curve" smooth="yes"/>
    </contour>
    <contour>
      <point x="435" y="446" type="curve" smooth="yes"/>
      <point x="435" y="484"/>
      <point x="403" y="516"/>
      <point x="365" y="516" type="curve" smooth="yes"/>
      <point x="327" y="516"/>
      <point x="295" y="484"/>
      <point x="295" y="446" type="curve" smooth="yes"/>
      <point x="295" y="408"/>
      <point x="327" y="376"/>
      <point x="365" y="376" type="curve" smooth="yes"/>
      <point x="403" y="376"/>
      <point x="435" y="408"/>
    </contour>
  </outline>
</glyph>
<glyph name="Oslash" format="1">
  <advance width="612"/>
  <unicode hex="00D8"/>
  <outline>
    <contour>
      <point x="46" y="283" type="line" smooth="yes"/>
      <point x="39" y="252"/>
      <point x="36" y="222"/>
      <point x="36" y="195" type="curve" smooth="yes"/>
      <point x="36" y="124"/>
      <point x="57" y="69"/>
      <point x="96" y="33" type="curve"/>
      <point x="51" y="-51" type="line"/>
      <point x="111" y="-86" type="line"/>
      <point x="156" y="-2" type="line"/>
      <point x="180" y="-10"/>
      <point x="206" y="-14"/>
      <point x="236" y="-14" type="curve" smooth="yes"/>
      <point x="400" y="-14"/>
      <point x="497" y="86"/>
      <point x="536" y="272" type="curve" smooth="yes"/>
      <point x="567" y="417" type="line" smooth="yes"/>
      <point x="574" y="448"/>
      <point x="577" y="478"/>
      <point x="577" y="505" type="curve" smooth="yes"/>
      <point x="577" y="575"/>
      <point x="556" y="630"/>
      <point x="517" y="666" type="curve"/>
      <point x="557" y="740" type="line"/>
      <point x="497" y="774" type="line"/>
      <point x="457" y="701" type="line"/>
      <point x="434" y="709"/>
      <point x="407" y="714"/>
      <point x="377" y="714" type="curve" smooth="yes"/>
      <point x="213" y="714"/>
      <point x="116" y="614"/>
      <point x="77" y="428" type="curve" smooth="yes"/>
    </contour>
    <contour>
      <point x="120" y="202" type="curve" smooth="yes"/>
      <point x="120" y="223"/>
      <point x="123" y="247"/>
      <point x="128" y="272" type="curve" smooth="yes"/>
      <point x="160" y="422" type="line" smooth="yes"/>
      <point x="188" y="553"/>
      <point x="255" y="638"/>
      <point x="365" y="638" type="curve" smooth="yes"/>
      <point x="385" y="638"/>
      <point x="403" y="635"/>
      <point x="418" y="629" type="curve"/>
      <point x="140" y="115" type="line"/>
      <point x="126" y="138"/>
      <point x="120" y="167"/>
    </contour>
    <contour>
      <point x="248" y="62" type="curve" smooth="yes"/>
      <point x="228" y="62"/>
      <point x="210" y="65"/>
      <point x="195" y="70" type="curve"/>
      <point x="473" y="584" type="line"/>
      <point x="486" y="561"/>
      <point x="493" y="532"/>
      <point x="493" y="498" type="curve" smooth="yes"/>
      <point x="493" y="477"/>
      <point x="490" y="453"/>
      <point x="485" y="428" type="curve" smooth="yes"/>
      <point x="453" y="278" type="line" smooth="yes"/>
      <point x="425" y="148"/>
      <point x="358" y="62"/>
    </contour>
  </outline>
</glyph>
<glyph name="Thorn" format="1">
  <advance width="612"/>
  <unicode hex="00DE"/>
  <outline>
    <contour>
      <point x="288" y="150" type="line" smooth="yes"/>
      <point x="452" y="150"/>
      <point x="552" y="256"/>
      <point x="552" y="395" type="curve" smooth="yes"/>
      <point x="552" y="492"/>
      <point x="479" y="562"/>
      <point x="360" y="562" type="curve" smooth="yes"/>
      <point x="216" y="562" type="line"/>
      <point x="245" y="700" type="line"/>
      <point x="161" y="700" type="line"/>
      <point x="12" y="0" type="line"/>
      <point x="96" y="0" type="line"/>
      <point x="128" y="150" type="line"/>
    </contour>
    <contour>
      <point x="199" y="484" type="line"/>
      <point x="348" y="484" type="line" smooth="yes"/>
      <point x="424" y="484"/>
      <point x="466" y="450"/>
      <point x="466" y="380" type="curve" smooth="yes"/>
      <point x="466" y="286"/>
      <point x="394" y="228"/>
      <point x="295" y="228" type="curve" smooth="yes"/>
      <point x="145" y="228" type="line"/>
    </contour>
  </outline>
</glyph>
<glyph name="ae" format="1">
  <advance width="612"/>
  <unicode hex="00E6"/>
  <outline>
    <contour>
      <point x="319" y="510" type="curve" smooth="yes"/>
      <point x="183" y="510"/>
      <point x="113" y="436"/>
      <point x="82" y="358" type="curve"/>
      <point x="148" y="330" type="line"/>
      <point x="171" y="393"/>
      <point x="216" y="430"/>
      <point x="276" y="437" type="curve"/>
      <point x="246" y="296" type="line"/>
      <point x="227" y="296" type="line" smooth="yes"/>
      <point x="99" y="296"/>
      <point x="16" y="226"/>
      <point x="16" y="122" type="curve" smooth="yes"/>
      <point x="16" y="34"/>
      <point x="85" y="-14"/>
      <point x="179" y="-14" type="curve" smooth="yes"/>
      <point x="223" y="-14" type="line" smooth="yes"/>
      <point x="353" y="-14"/>
      <point x="441" y="50"/>
      <point x="484" y="142" type="curve"/>
      <point x="414" y="162" type="line"/>
      <point x="391" y="113"/>
      <point x="343" y="70"/>
      <point x="274" y="62" type="curve"/>
      <point x="308" y="224" type="line"/>
      <point x="507" y="224" type="line"/>
      <point x="519" y="278" type="line" smooth="yes"/>
      <point x="522" y="292"/>
      <point x="524" y="306"/>
      <point x="524" y="320" type="curve" smooth="yes"/>
      <point x="524" y="417"/>
      <point x="452" y="510"/>
    </contour>
    <contour>
      <point x="230" y="224" type="line"/>
      <point x="195" y="58" type="line"/>
      <point x="183" y="58" type="line" smooth="yes"/>
      <point x="128" y="58"/>
      <point x="97" y="82"/>
      <point x="97" y="126" type="curve" smooth="yes"/>
      <point x="97" y="196"/>
      <point x="158" y="224"/>
      <point x="219" y="224" type="curve" smooth="yes"/>
    </contour>
    <contour>
      <point x="445" y="296" type="curve"/>
      <point x="324" y="296" type="line"/>
      <point x="353" y="432" type="line"/>
      <point x="410" y="421"/>
      <point x="447" y="380"/>
      <point x="447" y="320" type="curve" smooth="yes"/>
      <point x="447" y="311"/>
      <point x="446" y="303"/>
    </contour>
  </outline>
</glyph>
<glyph name="eth" format="1">
  <advance width="612"/>
  <unicode hex="00F0"/>
  <outline>
    <contour>
      <point x="298" y="578" type="line"/>
      <point x="361" y="547" type="line"/>
      <point x="381" y="586" type="line"/>
      <point x="427" y="554"/>
      <point x="458" y="504"/>
      <point x="463" y="436" type="curve"/>
      <point x="451" y="436" type="line"/>
      <point x="434" y="476"/>
      <point x="391" y="510"/>
      <point x="315" y="510" type="curve" smooth="yes"/>
      <point x="141" y="510"/>
      <point x="20" y="365"/>
      <point x="20" y="199" type="curve" smooth="yes"/>
      <point x="20" y="61"/>
      <point x="111" y="-14"/>
      <point x="227" y="-14" type="curve" smooth="yes"/>
      <point x="451" y="-14"/>
      <point x="545" y="185"/>
      <point x="545" y="376" type="curve" smooth="yes"/>
      <point x="545" y="507"/>
      <point x="501" y="598"/>
      <point x="416" y="654" type="curve"/>
      <point x="435" y="691" type="line"/>
      <point x="373" y="722" type="line"/>
      <point x="354" y="686" type="line"/>
      <point x="320" y="699"/>
      <point x="282" y="709"/>
      <point x="240" y="714" type="curve"/>
      <point x="225" y="639" type="line"/>
      <point x="259" y="635"/>
      <point x="291" y="628"/>
      <point x="319" y="618" type="curve"/>
    </contour>
    <contour>
      <point x="237" y="60" type="curve" smooth="yes"/>
      <point x="154" y="60"/>
      <point x="102" y="113"/>
      <point x="102" y="200" type="curve" smooth="yes"/>
      <point x="102" y="321"/>
      <point x="193" y="436"/>
      <point x="317" y="436" type="curve" smooth="yes"/>
      <point x="397" y="436"/>
      <point x="452" y="382"/>
      <point x="452" y="289" type="curve" smooth="yes"/>
      <point x="452" y="179"/>
      <point x="359" y="60"/>
    </contour>
  </outline>
</glyph>
<glyph name="divide" format="1">
  <advance width="612"/>
  <unicode hex="00F7"/>
  <outline>
    <contour>
      <point x="97" y="314" type="line"/>
      <point x="515" y="314" type="line"/>
      <point x="515" y="386" type="line"/>
      <point x="97" y="386" type="line"/>
    </contour>
    <contour>
      <point x="199" y="184" type="curve" smooth="yes"/>
      <point x="199" y="146"/>
      <point x="231" y="114"/>
      <point x="269" y="114" type="curve" smooth="yes"/>
      <point x="307" y="114"/>
      <point x="339" y="146"/>
      <point x="339" y="184" type="curve" smooth="yes"/>
      <point x="339" y="222"/>
      <point x="307" y="254"/>
      <point x="269" y="254" type="curve" smooth="yes"/>
      <point x="231" y="254"/>
      <point x="199" y="222"/>
    </contour>
    <contour>
      <point x="273" y="516" type="curve" smooth="yes"/>
      <point x="273" y="478"/>
      <point x="305" y="446"/>
      <point x="343" y="446" type="curve" smooth="yes"/>
      <point x="381" y="446"/>
      <point x="413" y="478"/>
      <point x="413" y="516" type="curve" smooth="yes"/>
      <point x="413" y="554"/>
      <point x="381" y="586"/>
      <point x="343" y="586" type="curve" smooth="yes"/>
      <point x="305" y="586"/>
      <point x="273" y="554"/>
    </contour>
  </outline>
</glyph>
<glyph name="oslash" format="1">
  <advance width="612"/>
  <unicode hex="00F8"/>
  <outline>
    <contour>
      <point x="329" y="510" type="curve" smooth="yes"/>
      <point x="161" y="510"/>
      <point x="20" y="380"/>
      <point x="20" y="188" type="curve" smooth="yes"/>
      <point x="20" y="110"/>
      <point x="56" y="49"/>
      <point x="111" y="16" type="curve"/>
      <point x="85" y="-33" type="line"/>
      <point x="145" y="-68" type="line"/>
      <point x="176" y="-9" type="line"/>
      <point x="191" y="-12"/>
      <point x="207" y="-14"/>
      <point x="223" y="-14" type="curve" smooth="yes"/>
      <point x="419" y="-14"/>
      <point x="531" y="142"/>
      <point x="531" y="306" type="curve" smooth="yes"/>
      <point x="531" y="383"/>
      <point x="496" y="445"/>
      <point x="440" y="479" type="curve"/>
      <point x="464" y="524" type="line"/>
      <point x="404" y="558" type="line"/>
      <point x="375" y="505" type="line"/>
      <point x="360" y="508"/>
      <point x="345" y="510"/>
    </contour>
    <contour>
      <point x="240" y="60" type="curve" smooth="yes"/>
      <point x="231" y="60"/>
      <point x="223" y="60"/>
      <point x="215" y="61" type="curve"/>
      <point x="401" y="408" type="line"/>
      <point x="433" y="383"/>
      <point x="451" y="345"/>
      <point x="451" y="300" type="curve" smooth="yes"/>
      <point x="451" y="178"/>
      <point x="364" y="60"/>
    </contour>
    <contour>
      <point x="102" y="196" type="curve" smooth="yes"/>
      <point x="102" y="326"/>
      <point x="198" y="436"/>
      <point x="312" y="436" type="curve" smooth="yes"/>
      <point x="321" y="436"/>
      <point x="329" y="435"/>
      <point x="337" y="434" type="curve"/>
      <point x="150" y="87" type="line"/>
      <point x="119" y="111"/>
      <point x="102" y="149"/>
    </contour>
  </outline>
</glyph>
<glyph name="Aogonek" format="1">
  <advance width="612"/>
  <unicode hex="0104"/>
  <outline>
    <contour>
      <point x="430" y="0" type="line"/>
      <point x="402" y="-66" type="line" smooth="yes"/>
      <point x="396" y="-80"/>
      <point x="394" y="-92"/>
      <point x="394" y="-103" type="curve" smooth="yes"/>
      <point x="394" y="-141"/>
      <point x="423" y="-164"/>
      <point x="456" y="-164" type="curve" smooth="yes"/>
      <point x="526" y="-164" type="line"/>
      <point x="526" y="-98" type="line"/>
      <point x="484" y="-98" type="line" smooth="yes"/>
      <point x="472" y="-98"/>
      <point x="465" y="-92"/>
      <point x="465" y="-81" type="curve" smooth="yes"/>
      <point x="465" y="-76"/>
      <point x="466" y="-73"/>
      <point x="468" y="-68" type="curve" smooth="yes"/>
      <point x="498" y="0" type="line"/>
      <point x="515" y="0" type="line"/>
      <point x="465" y="700" type="line"/>
      <point x="305" y="700" type="line"/>
      <point x="-42" y="0" type="line"/>
      <point x="53" y="0" type="line"/>
      <point x="138" y="174" type="line"/>
      <point x="419" y="174" type="line"/>
    </contour>
    <contour>
      <point x="376" y="663" type="line"/>
      <point x="388" y="663" type="line"/>
      <point x="414" y="252" type="line"/>
      <point x="176" y="252" type="line"/>
    </contour>
  </outline>
</glyph>
<glyph name="Eogonek" format="1">
  <advance width="612"/>
  <unicode hex="0118"/>
  <outline>
    <contour>
      <point x="28" y="0" type="line"/>
      <point x="377" y="0" type="line"/>
      <point x="349" y="-66" type="line" smooth="yes"/>
      <point x="343" y="-80"/>
      <point x="341" y="-92"/>
      <point x="341" y="-103" type="curve" smooth="yes"/>
      <point x="341" y="-141"/>
      <point x="370" y="-164"/>
      <point x="403" y="-164" type="curve" smooth="yes"/>
      <point x="473" y="-164" type="line"/>
      <point x="473" y="-98" type="line"/>
      <point x="431" y="-98" type="line" smooth="yes"/>
      <point x="419" y="-98"/>
      <point x="412" y="-92"/>
      <point x="412" y="-81" type="curve" smooth="yes"/>
      <point x="412" y="-76"/>
      <point x="413" y="-73"/>
      <point x="415" y="-68" type="curve" smooth="yes"/>
      <point x="446" y="0" type="line"/>
      <point x="446" y="78" type="line"/>
      <point x="129" y="78" type="line"/>
      <point x="178" y="312" type="line"/>
      <point x="500" y="312" type="line"/>
      <point x="500" y="390" type="line"/>
      <point x="195" y="390" type="line"/>
      <point x="244" y="622" type="line"/>
      <point x="572" y="622" type="line"/>
      <point x="572" y="700" type="line"/>
      <point x="177" y="700" type="line"/>
    </contour>
  </outline>
</glyph>
<glyph name="iogonek" format="1">
  <advance width="612"/>
  <unicode hex="012F"/>
  <outline>
    <contour>
      <point x="213" y="100" type="line" smooth="yes"/>
      <point x="210" y="88"/>
      <point x="209" y="78"/>
      <point x="209" y="68" type="curve" smooth="yes"/>
      <point x="209" y="35"/>
      <point x="224" y="11"/>
      <point x="246" y="-1" type="curve"/>
      <point x="214" y="-25" type="line" smooth="yes"/>
      <point x="184" y="-47"/>
      <point x="171" y="-74"/>
      <point x="171" y="-99" type="curve" smooth="yes"/>
      <point x="171" y="-134"/>
      <point x="197" y="-164"/>
      <point x="237" y="-164" type="curve" smooth="yes"/>
      <point x="344" y="-164" type="line"/>
      <point x="344" y="-98" type="line"/>
      <point x="257" y="-98" type="line" smooth="yes"/>
      <point x="247" y="-98"/>
      <point x="241" y="-91"/>
      <point x="241" y="-83" type="curve" smooth="yes"/>
      <point x="241" y="-78"/>
      <point x="244" y="-72"/>
      <point x="251" y="-67" type="curve" smooth="yes"/>
      <point x="475" y="85" type="line"/>
      <point x="435" y="144" type="line"/>
      <point x="320" y="66" type="line" smooth="yes"/>
      <point x="315" y="63"/>
      <point x="310" y="61"/>
      <point x="305" y="61" type="curve" smooth="yes"/>
      <point x="293" y="61"/>
      <point x="284" y="71"/>
      <point x="288" y="87" type="curve" smooth="yes"/>
      <point x="362" y="396" type="line" smooth="yes"/>
      <point x="365" y="408"/>
      <point x="366" y="418"/>
      <point x="366" y="428" type="curve" smooth="yes"/>
      <point x="366" y="483"/>
      <point x="327" y="510"/>
      <point x="282" y="510" type="curve" smooth="yes"/>
      <point x="259" y="510"/>
      <point x="236" y="503"/>
      <point x="215" y="489" type="curve" smooth="yes"/>
      <point x="97" y="409" type="line"/>
      <point x="137" y="350" type="line"/>
      <point x="254" y="430" type="line" smooth="yes"/>
      <point x="259" y="433"/>
      <point x="264" y="434"/>
      <point x="269" y="434" type="curve" smooth="yes"/>
      <point x="284" y="434"/>
      <point x="290" y="422"/>
      <point x="287" y="409" type="curve" smooth="yes"/>
    </contour>
    <contour>
      <point x="303" y="644" type="curve" smooth="yes"/>
      <point x="303" y="606"/>
      <point x="335" y="574"/>
      <point x="373" y="574" type="curve" smooth="yes"/>
      <point x="411" y="574"/>
      <point x="443" y="606"/>
      <point x="443" y="644" type="curve" smooth="yes"/>
      <point x="443" y="682"/>
      <point x="411" y="714"/>
      <point x="373" y="714" type="curve" smooth="yes"/>
      <point x="335" y="714"/>
      <point x="303" y="682"/>
    </contour>
  </outline>
</glyph>
<glyph name="dotlessi" format="1">
  <advance width="612"/>
  <unicode hex="0131"/>
  <outline>
    <contour>
      <point x="213" y="100" type="line" smooth="yes"/>
      <point x="210" y="88"/>
      <point x="209" y="78"/>
      <point x="209" y="68" type="curve" smooth="yes"/>
      <point x="209" y="13"/>
      <point x="248" y="-14"/>
      <point x="293" y="-14" type="curve" smooth="yes"/>
      <point x="315" y="-14"/>
      <point x="339" y="-7"/>
      <point x="360" y="7" type="curve" smooth="yes"/>
      <point x="475" y="85" type="line"/>
      <point x="435" y="144" type="line"/>
      <point x="320" y="66" type="line" smooth="yes"/>
      <point x="315" y="63"/>
      <point x="310" y="61"/>
      <point x="305" y="61" type="curve" smooth="yes"/>
      <point x="293" y="61"/>
      <point x="284" y="71"/>
      <point x="288" y="87" type="curve" smooth="yes"/>
      <point x="362" y="396" type="line" smooth="yes"/>
      <point x="365" y="408"/>
      <point x="366" y="418"/>
      <point x="366" y="428" type="curve" smooth="yes"/>
      <point x="366" y="483"/>
      <point x="327" y="510"/>
      <point x="282" y="510" type="curve" smooth="yes"/>
      <point x="259" y="510"/>
      <point x="236" y="503"/>
      <point x="215" y="489" type="curve" smooth="yes"/>
      <point x="97" y="409" type="line"/>
      <point x="137" y="350" type="line"/>
      <point x="254" y="430" type="line" smooth="yes"/>
      <point x="259" y="433"/>
      <point x="264" y="434"/>
      <point x="269" y="434" type="curve" smooth="yes"/>
      <point x="284" y="434"/>
      <point x="290" y="422"/>
      <point x="287" y="409" type="curve" smooth="yes"/>
    </contour>
  </outline>
</glyph>
<glyph name="IJ" format="1">
  <advance width="612"/>
  <unicode hex="0132"/>
  <outline>
    <contour>
      <point x="73" y="342" type="line"/>
      <point x="157" y="342" type="line"/>
      <point x="233" y="700" type="line"/>
      <point x="149" y="700" type="line"/>
    </contour>
    <contour>
      <point x="630" y="700" type="line"/>
      <point x="402" y="700" type="line"/>
      <point x="402" y="622" type="line"/>
      <point x="480" y="622" type="line"/>
      <point x="392" y="210" type="line" smooth="yes"/>
      <point x="374" y="124"/>
      <point x="328" y="64"/>
      <point x="235" y="64" type="curve" smooth="yes"/>
      <point x="158" y="64"/>
      <point x="122" y="97"/>
      <point x="122" y="160" type="curve" smooth="yes"/>
      <point x="122" y="175"/>
      <point x="124" y="192"/>
      <point x="128" y="210" type="curve" smooth="yes"/>
      <point x="140" y="264" type="line"/>
      <point x="56" y="264" type="line"/>
      <point x="44" y="210" type="line" smooth="yes"/>
      <point x="40" y="191"/>
      <point x="38" y="172"/>
      <point x="38" y="155" type="curve" smooth="yes"/>
      <point x="38" y="53"/>
      <point x="108" y="-14"/>
      <point x="224" y="-14" type="curve" smooth="yes"/>
      <point x="374" y="-14"/>
      <point x="445" y="68"/>
      <point x="475" y="206" type="curve" smooth="yes"/>
      <point x="564" y="622" type="line"/>
      <point x="630" y="622" type="line"/>
    </contour>
  </outline>
</glyph>
<glyph name="OE" format="1">
  <advance width="612"/>
  <unicode hex="0152"/>
  <outline>
    <contour>
      <point x="479" y="0" type="line"/>
      <point x="479" y="78" type="line"/>
      <point x="327" y="78" type="line"/>
      <point x="376" y="312" type="line"/>
      <point x="533" y="312" type="line"/>
      <point x="533" y="390" type="line"/>
      <point x="393" y="390" type="line"/>
      <point x="442" y="622" type="line"/>
      <point x="605" y="622" type="line"/>
      <point x="605" y="700" type="line"/>
      <point x="375" y="700" type="line" smooth="yes"/>
      <point x="209" y="700"/>
      <point x="110" y="602"/>
      <point x="73" y="424" type="curve" smooth="yes"/>
      <point x="44" y="286" type="line" smooth="yes"/>
      <point x="37" y="250"/>
      <point x="34" y="226"/>
      <point x="34" y="199" type="curve" smooth="yes"/>
      <point x="34" y="74"/>
      <point x="104" y="0"/>
      <point x="233" y="0" type="curve"/>
    </contour>
    <contour>
      <point x="243" y="78" type="line"/>
      <point x="160" y="78"/>
      <point x="117" y="119"/>
      <point x="117" y="203" type="curve" smooth="yes"/>
      <point x="117" y="226"/>
      <point x="121" y="252"/>
      <point x="127" y="282" type="curve" smooth="yes"/>
      <point x="156" y="416" type="line" smooth="yes"/>
      <point x="185" y="550"/>
      <point x="253" y="622"/>
      <point x="358" y="622" type="curve"/>
    </contour>
  </outline>
</glyph>
<glyph name="Scedilla" format="1">
  <advance width="612"/>
  <unicode hex="015E"/>
  <outline>
    <contour>
      <point x="491" y="462" type="line"/>
      <point x="575" y="462" type="line"/>
      <point x="583" y="498" type="line" smooth="yes"/>
      <point x="586" y="511"/>
      <point x="587" y="525"/>
      <point x="587" y="538" type="curve" smooth="yes"/>
      <point x="587" y="635"/>
      <point x="506" y="714"/>
      <point x="367" y="714" type="curve" smooth="yes"/>
      <point x="215" y="714"/>
      <point x="96" y="636"/>
      <point x="96" y="500" type="curve" smooth="yes"/>
      <point x="96" y="394"/>
      <point x="174" y="344"/>
      <point x="285" y="326" type="curve" smooth="yes"/>
      <point x="401" y="308"/>
      <point x="444" y="281"/>
      <point x="444" y="207" type="curve" smooth="yes"/>
      <point x="444" y="118"/>
      <point x="355" y="64"/>
      <point x="259" y="64" type="curve" smooth="yes"/>
      <point x="160" y="64"/>
      <point x="104" y="105"/>
      <point x="104" y="193" type="curve" smooth="yes"/>
      <point x="104" y="210"/>
      <point x="106" y="228"/>
      <point x="110" y="248" type="curve" smooth="yes"/>
      <point x="115" y="272" type="line"/>
      <point x="31" y="272" type="line"/>
      <point x="25" y="242" type="line" smooth="yes"/>
      <point x="21" y="221"/>
      <point x="19" y="200"/>
      <point x="19" y="181" type="curve" smooth="yes"/>
      <point x="19" y="82"/>
      <point x="76" y="9"/>
      <point x="188" y="-9" type="curve"/>
      <point x="162" y="-86" type="line"/>
      <point x="162" y="-98" type="line"/>
      <point x="237" y="-98" type="line"/>
      <point x="242" y="-90"/>
      <point x="250" y="-84"/>
      <point x="264" y="-84" type="curve" smooth="yes"/>
      <point x="281" y="-84"/>
      <point x="296" y="-94"/>
      <point x="296" y="-118" type="curve" smooth="yes"/>
      <point x="296" y="-146"/>
      <point x="278" y="-164"/>
      <point x="248" y="-164" type="curve" smooth="yes"/>
      <point x="218" y="-164"/>
      <point x="204" y="-146"/>
      <point x="202" y="-125" type="curve"/>
      <point x="152" y="-142" type="line"/>
      <point x="158" y="-183"/>
      <point x="192" y="-212"/>
      <point x="246" y="-212" type="curve" smooth="yes"/>
      <point x="316" y="-212"/>
      <point x="350" y="-170"/>
      <point x="350" y="-110" type="curve" smooth="yes"/>
      <point x="350" y="-70"/>
      <point x="326" y="-36"/>
      <point x="282" y="-36" type="curve" smooth="yes"/>
      <point x="256" y="-36"/>
      <point x="239" y="-47"/>
      <point x="228" y="-68" type="curve"/>
      <point x="222" y="-68" type="line"/>
      <point x="241" y="-14" type="line"/>
      <point x="249" y="-14" type="line" smooth="yes"/>
      <point x="409" y="-14"/>
      <point x="531" y="68"/>
      <point x="531" y="217" type="curve" smooth="yes"/>
      <point x="531" y="314"/>
      <point x="475" y="374"/>
      <point x="353" y="394" type="curve" smooth="yes"/>
      <point x="245" y="412"/>
      <point x="182" y="436"/>
      <point x="182" y="513" type="curve" smooth="yes"/>
      <point x="182" y="592"/>
      <point x="271" y="636"/>
      <point x="360" y="636" type="curve" smooth="yes"/>
      <point x="437" y="636"/>
      <point x="501" y="599"/>
      <point x="501" y="522" type="curve" smooth="yes"/>
      <point x="501" y="511"/>
      <point x="500" y="503"/>
      <point x="497" y="488" type="curve" smooth="yes"/>
    </contour>
  </outline>
</glyph>
<glyph name="uni0163" format="1">
  <advance width="612"/>
  <unicode hex="0163"/>
  <outline>
    <contour>
      <point x="85" y="424" type="line"/>
      <point x="241" y="424" type="line"/>
      <point x="173" y="100" type="line" smooth="yes"/>
      <point x="171" y="90"/>
      <point x="169" y="79"/>
      <point x="169" y="70" type="curve" smooth="yes"/>
      <point x="169" y="39"/>
      <point x="182" y="16"/>
      <point x="201" y="2" type="curve"/>
      <point x="171" y="-86" type="line"/>
      <point x="171" y="-98" type="line"/>
      <point x="246" y="-98" type="line"/>
      <point x="251" y="-90"/>
      <point x="259" y="-84"/>
      <point x="273" y="-84" type="curve" smooth="yes"/>
      <point x="290" y="-84"/>
      <point x="305" y="-94"/>
      <point x="305" y="-118" type="curve" smooth="yes"/>
      <point x="305" y="-146"/>
      <point x="287" y="-164"/>
      <point x="257" y="-164" type="curve" smooth="yes"/>
      <point x="227" y="-164"/>
      <point x="213" y="-146"/>
      <point x="211" y="-125" type="curve"/>
      <point x="161" y="-142" type="line"/>
      <point x="167" y="-183"/>
      <point x="201" y="-212"/>
      <point x="255" y="-212" type="curve" smooth="yes"/>
      <point x="325" y="-212"/>
      <point x="359" y="-170"/>
      <point x="359" y="-110" type="curve" smooth="yes"/>
      <point x="359" y="-70"/>
      <point x="335" y="-36"/>
      <point x="291" y="-36" type="curve" smooth="yes"/>
      <point x="265" y="-36"/>
      <point x="248" y="-47"/>
      <point x="237" y="-68" type="curve"/>
      <point x="231" y="-68" type="line"/>
      <point x="250" y="-14" type="line"/>
      <point x="254" y="-14" type="line"/>
      <point x="276" y="-14"/>
      <point x="299" y="-7"/>
      <point x="320" y="7" type="curve" smooth="yes"/>
      <point x="453" y="97" type="line"/>
      <point x="413" y="156" type="line"/>
      <point x="280" y="66" type="line" smooth="yes"/>
      <point x="275" y="63"/>
      <point x="270" y="61"/>
      <point x="265" y="61" type="curve" smooth="yes"/>
      <point x="253" y="61"/>
      <point x="244" y="71"/>
      <point x="248" y="87" type="curve" smooth="yes"/>
      <point x="319" y="424" type="line"/>
      <point x="511" y="424" type="line"/>
      <point x="511" y="496" type="line"/>
      <point x="335" y="496" type="line"/>
      <point x="381" y="714" type="line"/>
      <point x="303" y="714" type="line"/>
      <point x="257" y="496" type="line"/>
      <point x="85" y="496" type="line"/>
    </contour>
  </outline>
</glyph>
<glyph name="tbar" format="1">
  <advance width="612"/>
  <unicode hex="0167"/>
  <outline>
    <contour>
      <point x="85" y="424" type="line"/>
      <point x="241" y="424" type="line"/>
      <point x="225" y="350" type="line"/>
      <point x="99" y="350" type="line"/>
      <point x="99" y="278" type="line"/>
      <point x="210" y="278" type="line"/>
      <point x="173" y="100" type="line" smooth="yes"/>
      <point x="171" y="90"/>
      <point x="169" y="79"/>
      <point x="169" y="70" type="curve" smooth="yes"/>
      <point x="169" y="14"/>
      <point x="208" y="-14"/>
      <point x="254" y="-14" type="curve" smooth="yes"/>
      <point x="276" y="-14"/>
      <point x="299" y="-7"/>
      <point x="320" y="7" type="curve" smooth="yes"/>
      <point x="453" y="97" type="line"/>
      <point x="413" y="156" type="line"/>
      <point x="280" y="66" type="line" smooth="yes"/>
      <point x="275" y="63"/>
      <point x="270" y="61"/>
      <point x="265" y="61" type="curve" smooth="yes"/>
      <point x="253" y="61"/>
      <point x="244" y="71"/>
      <point x="248" y="87" type="curve" smooth="yes"/>
      <point x="288" y="278" type="line"/>
      <point x="453" y="278" type="line"/>
      <point x="453" y="350" type="line"/>
      <point x="303" y="350" type="line"/>
      <point x="319" y="424" type="line"/>
      <point x="511" y="424" type="line"/>
      <point x="511" y="496" type="line"/>
      <point x="335" y="496" type="line"/>
      <point x="381" y="714" type="line"/>
      <point x="303" y="714" type="line"/>
      <point x="257" y="496" type="line"/>
      <point x="85" y="496" type="line"/>
    </contour>
  </outline>
</glyph>
<glyph name="Uogonek" format="1">
  <advance width="612"/>
  <unicode hex="0172"/>
  <outline>
    <contour>
      <point x="142" y="700" type="line"/>
      <point x="45" y="242" type="line" smooth="yes"/>
      <point x="39" y="216"/>
      <point x="37" y="192"/>
      <point x="37" y="170" type="curve" smooth="yes"/>
      <point x="37" y="51"/>
      <point x="117" y="-14"/>
      <point x="233" y="-14" type="curve"/>
      <point x="223" y="-21" type="line" smooth="yes"/>
      <point x="195" y="-41"/>
      <point x="182" y="-68"/>
      <point x="182" y="-92" type="curve" smooth="yes"/>
      <point x="182" y="-130"/>
      <point x="212" y="-164"/>
      <point x="256" y="-164" type="curve" smooth="yes"/>
      <point x="360" y="-164" type="line"/>
      <point x="360" y="-98" type="line"/>
      <point x="273" y="-98" type="line" smooth="yes"/>
      <point x="264" y="-98"/>
      <point x="257" y="-92"/>
      <point x="257" y="-84" type="curve" smooth="yes"/>
      <point x="257" y="-76"/>
      <point x="262" y="-71"/>
      <point x="267" y="-67" type="curve" smooth="yes"/>
      <point x="405" y="34" type="line" smooth="yes"/>
      <point x="461" y="75"/>
      <point x="498" y="142"/>
      <point x="518" y="236" type="curve" smooth="yes"/>
      <point x="616" y="700" type="line"/>
      <point x="532" y="700" type="line"/>
      <point x="434" y="236" type="line" smooth="yes"/>
      <point x="410" y="122"/>
      <point x="343" y="62"/>
      <point x="244" y="62" type="curve" smooth="yes"/>
      <point x="163" y="62"/>
      <point x="121" y="102"/>
      <point x="121" y="178" type="curve" smooth="yes"/>
      <point x="121" y="195"/>
      <point x="124" y="215"/>
      <point x="128" y="236" type="curve" smooth="yes"/>
      <point x="226" y="700" type="line"/>
    </contour>
  </outline>
</glyph>
<glyph name="uogonek" format="1">
  <advance width="612"/>
  <unicode hex="0173"/>
  <outline>
    <contour>
      <point x="364" y="78" type="line" smooth="yes"/>
      <point x="363" y="71"/>
      <point x="362" y="64"/>
      <point x="362" y="58" type="curve" smooth="yes"/>
      <point x="362" y="30"/>
      <point x="374" y="11"/>
      <point x="390" y="0" type="curve"/>
      <point x="361" y="-21" type="line" smooth="yes"/>
      <point x="333" y="-41"/>
      <point x="320" y="-68"/>
      <point x="320" y="-92" type="curve" smooth="yes"/>
      <point x="320" y="-130"/>
      <point x="348" y="-164"/>
      <point x="394" y="-164" type="curve" smooth="yes"/>
      <point x="498" y="-164" type="line"/>
      <point x="498" y="-98" type="line"/>
      <point x="411" y="-98" type="line" smooth="yes"/>
      <point x="402" y="-98"/>
      <point x="396" y="-92"/>
      <point x="396" y="-84" type="curve" smooth="yes"/>
      <point x="396" y="-79"/>
      <point x="398" y="-74"/>
      <point x="408" y="-66" type="curve" smooth="yes"/>
      <point x="555" y="44" type="line"/>
      <point x="513" y="102" type="line"/>
      <point x="470" y="71" type="line" smooth="yes"/>
      <point x="466" y="68"/>
      <point x="460" y="66"/>
      <point x="456" y="66" type="curve" smooth="yes"/>
      <point x="447" y="66"/>
      <point x="440" y="73"/>
      <point x="443" y="84" type="curve" smooth="yes"/>
      <point x="534" y="496" type="line"/>
      <point x="456" y="496" type="line"/>
      <point x="398" y="238" type="line" smooth="yes"/>
      <point x="374" y="130"/>
      <point x="306" y="60"/>
      <point x="214" y="60" type="curve" smooth="yes"/>
      <point x="148" y="60"/>
      <point x="115" y="89"/>
      <point x="115" y="152" type="curve" smooth="yes"/>
      <point x="115" y="169"/>
      <point x="117" y="188"/>
      <point x="122" y="210" type="curve" smooth="yes"/>
      <point x="186" y="496" type="line"/>
      <point x="108" y="496" type="line"/>
      <point x="42" y="200" type="line" smooth="yes"/>
      <point x="36" y="175"/>
      <point x="34" y="155"/>
      <point x="34" y="135" type="curve" smooth="yes"/>
      <point x="34" y="37"/>
      <point x="95" y="-14"/>
      <point x="182" y="-14" type="curve" smooth="yes"/>
      <point x="262" y="-14"/>
      <point x="317" y="20"/>
      <point x="353" y="84" type="curve"/>
      <point x="365" y="84" type="line"/>
    </contour>
  </outline>
</glyph>
<glyph name="uni018F" format="1">
  <advance width="612"/>
  <unicode hex="018F"/>
  <outline>
    <contour>
      <point x="35" y="250" type="line" smooth="yes"/>
      <point x="30" y="228"/>
      <point x="28" y="206"/>
      <point x="28" y="186" type="curve" smooth="yes"/>
      <point x="28" y="72"/>
      <point x="101" y="-14"/>
      <point x="239" y="-14" type="curve" smooth="yes"/>
      <point x="398" y="-14"/>
      <point x="490" y="78"/>
      <point x="532" y="272" type="curve" smooth="yes"/>
      <point x="563" y="416" type="line" smooth="yes"/>
      <point x="569" y="445"/>
      <point x="572" y="473"/>
      <point x="572" y="499" type="curve" smooth="yes"/>
      <point x="572" y="629"/>
      <point x="495" y="714"/>
      <point x="362" y="714" type="curve" smooth="yes"/>
      <point x="202" y="714"/>
      <point x="110" y="608"/>
      <point x="82" y="472" type="curve" smooth="yes"/>
      <point x="77" y="448" type="line"/>
      <point x="160" y="448" type="line"/>
      <point x="164" y="466" type="line" smooth="yes"/>
      <point x="185" y="562"/>
      <point x="250" y="638"/>
      <point x="354" y="638" type="curve" smooth="yes"/>
      <point x="447" y="638"/>
      <point x="489" y="580"/>
      <point x="489" y="496" type="curve" smooth="yes"/>
      <point x="489" y="475"/>
      <point x="487" y="457"/>
      <point x="481" y="429" type="curve" smooth="yes"/>
      <point x="467" y="362" type="line"/>
      <point x="59" y="362" type="line"/>
    </contour>
    <contour>
      <point x="252" y="62" type="curve" smooth="yes"/>
      <point x="149" y="62"/>
      <point x="112" y="119"/>
      <point x="112" y="190" type="curve" smooth="yes"/>
      <point x="112" y="206"/>
      <point x="113" y="220"/>
      <point x="117" y="240" type="curve" smooth="yes"/>
      <point x="126" y="284" type="line"/>
      <point x="450" y="284" type="line"/>
      <point x="449" y="278" type="line" smooth="yes"/>
      <point x="420" y="142"/>
      <point x="355" y="62"/>
    </contour>
  </outline>
</glyph>
<glyph name="florin" format="1">
  <advance width="612"/>
  <unicode hex="0192"/>
  <outline>
    <contour>
      <point x="196" y="438" type="line"/>
      <point x="196" y="366" type="line"/>
      <point x="271" y="366" type="line"/>
      <point x="236" y="204" type="line" smooth="yes"/>
      <point x="232" y="185"/>
      <point x="222" y="174"/>
      <point x="203" y="174" type="curve" smooth="yes"/>
      <point x="101" y="174" type="line"/>
      <point x="101" y="102" type="line"/>
      <point x="215" y="102" type="line" smooth="yes"/>
      <point x="265" y="102"/>
      <point x="299" y="132"/>
      <point x="309" y="180" type="curve" smooth="yes"/>
      <point x="349" y="366" type="line"/>
      <point x="439" y="366" type="line"/>
      <point x="439" y="438" type="line"/>
      <point x="364" y="438" type="line"/>
      <point x="377" y="496" type="line" smooth="yes"/>
      <point x="381" y="515"/>
      <point x="391" y="526"/>
      <point x="410" y="526" type="curve" smooth="yes"/>
      <point x="512" y="526" type="line"/>
      <point x="512" y="598" type="line"/>
      <point x="399" y="598" type="line" smooth="yes"/>
      <point x="349" y="598"/>
      <point x="315" y="568"/>
      <point x="304" y="520" type="curve" smooth="yes"/>
      <point x="286" y="438" type="line"/>
    </contour>
  </outline>
</glyph>
<glyph name="uni01A1" format="1">
  <advance width="612"/>
  <unicode hex="01A1"/>
  <outline>
    <contour>
      <point x="502" y="426" type="curve" smooth="yes"/>
      <point x="502" y="388"/>
      <point x="534" y="356"/>
      <point x="572" y="356" type="curve" smooth="yes"/>
      <point x="576" y="356" type="line"/>
      <point x="571" y="334" type="line" smooth="yes"/>
      <point x="567" y="315"/>
      <point x="556" y="304"/>
      <point x="537" y="304" type="curve" smooth="yes"/>
      <point x="474" y="304" type="line"/>
      <point x="475" y="316"/>
      <point x="475" y="321"/>
      <point x="475" y="329" type="curve" smooth="yes"/>
      <point x="475" y="444"/>
      <point x="398" y="510"/>
      <point x="300" y="510" type="curve" smooth="yes"/>
      <point x="161" y="510"/>
      <point x="75" y="414"/>
      <point x="41" y="254" type="curve" smooth="yes"/>
      <point x="38" y="242" type="line"/>
      <point x="33" y="214"/>
      <point x="30" y="195"/>
      <point x="30" y="173" type="curve" smooth="yes"/>
      <point x="30" y="62"/>
      <point x="104" y="-14"/>
      <point x="206" y="-14" type="curve" smooth="yes"/>
      <point x="334" y="-14"/>
      <point x="430" y="69"/>
      <point x="464" y="240" type="curve" smooth="yes"/>
      <point x="466" y="250" type="line"/>
      <point x="530" y="250" type="line" smooth="yes"/>
      <point x="582" y="250"/>
      <point x="613" y="278"/>
      <point x="623" y="328" type="curve" smooth="yes"/>
      <point x="641" y="414" type="line" smooth="yes"/>
      <point x="642" y="419"/>
      <point x="642" y="423"/>
      <point x="642" y="426" type="curve" smooth="yes"/>
      <point x="642" y="464"/>
      <point x="610" y="496"/>
      <point x="572" y="496" type="curve" smooth="yes"/>
      <point x="534" y="496"/>
      <point x="502" y="464"/>
    </contour>
    <contour>
      <point x="213" y="60" type="curve" smooth="yes"/>
      <point x="146" y="60"/>
      <point x="111" y="104"/>
      <point x="111" y="178" type="curve" smooth="yes"/>
      <point x="111" y="197"/>
      <point x="113" y="219"/>
      <point x="118" y="242" type="curve" smooth="yes"/>
      <point x="121" y="254" type="line" smooth="yes"/>
      <point x="144" y="362"/>
      <point x="204" y="436"/>
      <point x="292" y="436" type="curve" smooth="yes"/>
      <point x="361" y="436"/>
      <point x="394" y="390"/>
      <point x="394" y="318" type="curve" smooth="yes"/>
      <point x="394" y="298"/>
      <point x="392" y="277"/>
      <point x="387" y="254" type="curve" smooth="yes"/>
      <point x="384" y="242" type="line" smooth="yes"/>
      <point x="353" y="119"/>
      <point x="302" y="60"/>
    </contour>
  </outline>
</glyph>
<glyph name="uni01B0" format="1">
  <advance width="612"/>
  <unicode hex="01B0"/>
  <outline>
    <contour>
      <point x="503" y="426" type="curve" smooth="yes"/>
      <point x="503" y="388"/>
      <point x="535" y="356"/>
      <point x="573" y="356" type="curve" smooth="yes"/>
      <point x="577" y="356" type="line"/>
      <point x="572" y="334" type="line" smooth="yes"/>
      <point x="568" y="315"/>
      <point x="557" y="304"/>
      <point x="538" y="304" type="curve" smooth="yes"/>
      <point x="443" y="304" type="line"/>
      <point x="484" y="496" type="line"/>
      <point x="406" y="496" type="line"/>
      <point x="344" y="208" type="line" smooth="yes"/>
      <point x="326" y="124"/>
      <point x="273" y="60"/>
      <point x="187" y="60" type="curve" smooth="yes"/>
      <point x="132" y="60"/>
      <point x="101" y="90"/>
      <point x="101" y="144" type="curve" smooth="yes"/>
      <point x="101" y="156"/>
      <point x="103" y="170"/>
      <point x="106" y="184" type="curve" smooth="yes"/>
      <point x="172" y="496" type="line"/>
      <point x="94" y="496" type="line"/>
      <point x="29" y="187" type="line" smooth="yes"/>
      <point x="24" y="165"/>
      <point x="22" y="144"/>
      <point x="22" y="126" type="curve" smooth="yes"/>
      <point x="22" y="31"/>
      <point x="81" y="-14"/>
      <point x="164" y="-14" type="curve" smooth="yes"/>
      <point x="227" y="-14"/>
      <point x="271" y="15"/>
      <point x="303" y="68" type="curve"/>
      <point x="315" y="68" type="line"/>
      <point x="300" y="0" type="line"/>
      <point x="378" y="0" type="line"/>
      <point x="431" y="250" type="line"/>
      <point x="531" y="250" type="line" smooth="yes"/>
      <point x="583" y="250"/>
      <point x="614" y="278"/>
      <point x="624" y="328" type="curve" smooth="yes"/>
      <point x="642" y="414" type="line" smooth="yes"/>
      <point x="643" y="419"/>
      <point x="643" y="423"/>
      <point x="643" y="426" type="curve" smooth="yes"/>
      <point x="643" y="464"/>
      <point x="611" y="496"/>
      <point x="573" y="496" type="curve" smooth="yes"/>
      <point x="535" y="496"/>
      <point x="503" y="464"/>
    </contour>
  </outline>
</glyph>
<glyph name="uni01EA" format="1">
  <advance width="612"/>
  <unicode hex="01EA"/>
  <outline>
    <contour>
      <point x="46" y="283" type="line" smooth="yes"/>
      <point x="39" y="252"/>
      <point x="36" y="222"/>
      <point x="36" y="195" type="curve" smooth="yes"/>
      <point x="36" y="66"/>
      <point x="105" y="-12"/>
      <point x="231" y="-14" type="curve"/>
      <point x="221" y="-21" type="line" smooth="yes"/>
      <point x="193" y="-41"/>
      <point x="180" y="-68"/>
      <point x="180" y="-92" type="curve" smooth="yes"/>
      <point x="180" y="-130"/>
      <point x="210" y="-164"/>
      <point x="254" y="-164" type="curve" smooth="yes"/>
      <point x="358" y="-164" type="line"/>
      <point x="358" y="-98" type="line"/>
      <point x="271" y="-98" type="line" smooth="yes"/>
      <point x="262" y="-98"/>
      <point x="255" y="-92"/>
      <point x="255" y="-84" type="curve" smooth="yes"/>
      <point x="255" y="-77"/>
      <point x="258" y="-72"/>
      <point x="265" y="-67" type="curve" smooth="yes"/>
      <point x="405" y="36" type="line" smooth="yes"/>
      <point x="476" y="88"/>
      <point x="515" y="172"/>
      <point x="536" y="272" type="curve" smooth="yes"/>
      <point x="567" y="417" type="line" smooth="yes"/>
      <point x="574" y="448"/>
      <point x="577" y="478"/>
      <point x="577" y="505" type="curve" smooth="yes"/>
      <point x="577" y="635"/>
      <point x="506" y="714"/>
      <point x="377" y="714" type="curve" smooth="yes"/>
      <point x="213" y="714"/>
      <point x="116" y="614"/>
      <point x="77" y="428" type="curve" smooth="yes"/>
    </contour>
    <contour>
      <point x="248" y="62" type="curve" smooth="yes"/>
      <point x="163" y="62"/>
      <point x="120" y="116"/>
      <point x="120" y="202" type="curve" smooth="yes"/>
      <point x="120" y="223"/>
      <point x="123" y="247"/>
      <point x="128" y="272" type="curve" smooth="yes"/>
      <point x="160" y="422" type="line" smooth="yes"/>
      <point x="188" y="553"/>
      <point x="255" y="638"/>
      <point x="365" y="638" type="curve" smooth="yes"/>
      <point x="450" y="638"/>
      <point x="493" y="584"/>
      <point x="493" y="498" type="curve" smooth="yes"/>
      <point x="493" y="477"/>
      <point x="490" y="453"/>
      <point x="485" y="428" type="curve" smooth="yes"/>
      <point x="453" y="278" type="line" smooth="yes"/>
      <point x="425" y="148"/>
      <point x="358" y="62"/>
    </contour>
  </outline>
</glyph>
<glyph name="uni0243" format="1">
  <advance width="612"/>
  <unicode hex="0243"/>
  <outline>
    <contour>
      <point x="2" y="0" type="line"/>
      <point x="256" y="0" type="line" smooth="yes"/>
      <point x="400" y="0"/>
      <point x="506" y="90"/>
      <point x="506" y="219" type="curve" smooth="yes"/>
      <point x="506" y="278"/>
      <point x="473" y="329"/>
      <point x="418" y="345" type="curve"/>
      <point x="418" y="357" type="line"/>
      <point x="515" y="378"/>
      <point x="575" y="454"/>
      <point x="575" y="535" type="curve" smooth="yes"/>
      <point x="575" y="631"/>
      <point x="514" y="700"/>
      <point x="393" y="700" type="curve" smooth="yes"/>
      <point x="117" y="700" type="line"/>
      <point x="117" y="622" type="line"/>
      <point x="183" y="622" type="line"/>
      <point x="101" y="234" type="line"/>
      <point x="30" y="234" type="line"/>
      <point x="30" y="156" type="line"/>
      <point x="84" y="156" type="line"/>
      <point x="68" y="78" type="line"/>
      <point x="2" y="78" type="line"/>
    </contour>
    <contour>
      <point x="267" y="622" type="line"/>
      <point x="382" y="622" type="line" smooth="yes"/>
      <point x="452" y="622"/>
      <point x="493" y="587"/>
      <point x="493" y="532" type="curve" smooth="yes"/>
      <point x="493" y="442"/>
      <point x="417" y="390"/>
      <point x="336" y="390" type="curve" smooth="yes"/>
      <point x="218" y="390" type="line"/>
    </contour>
    <contour>
      <point x="201" y="312" type="line"/>
      <point x="319" y="312" type="line" smooth="yes"/>
      <point x="386" y="312"/>
      <point x="428" y="277"/>
      <point x="428" y="216" type="curve" smooth="yes"/>
      <point x="428" y="135"/>
      <point x="356" y="78"/>
      <point x="267" y="78" type="curve" smooth="yes"/>
      <point x="152" y="78" type="line"/>
      <point x="168" y="156" type="line"/>
      <point x="282" y="156" type="line"/>
      <point x="282" y="234" type="line"/>
      <point x="184" y="234" type="line"/>
    </contour>
  </outline>
</glyph>
<glyph name="uni0258" format="1">
  <advance width="612"/>
  <unicode hex="0258"/>
  <outline>
    <contour>
      <point x="42" y="224" type="line"/>
      <point x="54" y="279" type="line" smooth="yes"/>
      <point x="78" y="389"/>
      <point x="164" y="510"/>
      <point x="328" y="510" type="curve" smooth="yes"/>
      <point x="457" y="510"/>
      <point x="535" y="430"/>
      <point x="535" y="289" type="curve" smooth="yes"/>
      <point x="535" y="135"/>
      <point x="416" y="-14"/>
      <point x="237" y="-14" type="curve" smooth="yes"/>
      <point x="117" y="-14"/>
      <point x="47" y="40"/>
      <point x="31" y="142" type="curve"/>
      <point x="109" y="162" type="line"/>
      <point x="118" y="103"/>
      <point x="148" y="60"/>
      <point x="242" y="60" type="curve" smooth="yes"/>
      <point x="344" y="60"/>
      <point x="418" y="126"/>
      <point x="442" y="224" type="curve"/>
    </contour>
    <contour>
      <point x="317" y="436" type="curve" smooth="yes"/>
      <point x="235" y="436"/>
      <point x="161" y="382"/>
      <point x="139" y="296" type="curve"/>
      <point x="456" y="296" type="line"/>
      <point x="457" y="305"/>
      <point x="457" y="308"/>
      <point x="457" y="309" type="curve" smooth="yes"/>
      <point x="457" y="382"/>
      <point x="400" y="436"/>
    </contour>
  </outline>
</glyph>
<glyph name="uni0265" format="1">
  <advance width="612"/>
  <unicode hex="0265"/>
  <outline>
    <contour>
      <point x="416" y="-200" type="line"/>
      <point x="564" y="496" type="line"/>
      <point x="487" y="496" type="line"/>
      <point x="432" y="238" type="line" smooth="yes"/>
      <point x="409" y="130"/>
      <point x="348" y="60"/>
      <point x="258" y="60" type="curve" smooth="yes"/>
      <point x="198" y="60"/>
      <point x="152" y="87"/>
      <point x="152" y="156" type="curve" smooth="yes"/>
      <point x="152" y="170"/>
      <point x="154" y="182"/>
      <point x="158" y="202" type="curve" smooth="yes"/>
      <point x="204" y="410" type="line" smooth="yes"/>
      <point x="206" y="420"/>
      <point x="207" y="428"/>
      <point x="207" y="436" type="curve" smooth="yes"/>
      <point x="207" y="487"/>
      <point x="170" y="510"/>
      <point x="129" y="510" type="curve" smooth="yes"/>
      <point x="108" y="510"/>
      <point x="85" y="503"/>
      <point x="68" y="491" type="curve" smooth="yes"/>
      <point x="22" y="458" type="line"/>
      <point x="64" y="399" type="line"/>
      <point x="103" y="427" type="line" smooth="yes"/>
      <point x="108" y="431"/>
      <point x="113" y="432"/>
      <point x="116" y="432" type="curve" smooth="yes"/>
      <point x="124" y="432"/>
      <point x="130" y="426"/>
      <point x="128" y="417" type="curve" smooth="yes"/>
      <point x="84" y="208" type="line" smooth="yes"/>
      <point x="79" y="185"/>
      <point x="77" y="164"/>
      <point x="77" y="144" type="curve" smooth="yes"/>
      <point x="77" y="44"/>
      <point x="142" y="-14"/>
      <point x="230" y="-14" type="curve" smooth="yes"/>
      <point x="296" y="-14"/>
      <point x="352" y="12"/>
      <point x="385" y="74" type="curve"/>
      <point x="397" y="74" type="line"/>
      <point x="341" y="-200" type="line"/>
    </contour>
  </outline>
</glyph>
<glyph name="uni0279" format="1">
  <advance width="612"/>
  <unicode hex="0279"/>
  <outline>
    <contour>
      <point x="493" y="424" type="line"/>
      <point x="615" y="424" type="line"/>
      <point x="615" y="496" type="line"/>
      <point x="297" y="496" type="line"/>
      <point x="297" y="424" type="line"/>
      <point x="415" y="424" type="line"/>
      <point x="368" y="202" type="line" smooth="yes"/>
      <point x="352" y="126"/>
      <point x="302" y="60"/>
      <point x="222" y="60" type="curve" smooth="yes"/>
      <point x="167" y="60"/>
      <point x="127" y="90"/>
      <point x="127" y="154" type="curve" smooth="yes"/>
      <point x="127" y="167"/>
      <point x="129" y="181"/>
      <point x="132" y="196" type="curve"/>
      <point x="47" y="190" type="line"/>
      <point x="43" y="172"/>
      <point x="41" y="154"/>
      <point x="41" y="137" type="curve" smooth="yes"/>
      <point x="41" y="47"/>
      <point x="100" y="-14"/>
      <point x="195" y="-14" type="curve" smooth="yes"/>
      <point x="247" y="-14"/>
      <point x="297" y="6"/>
      <point x="335" y="60" type="curve"/>
      <point x="347" y="60" type="line"/>
      <point x="351" y="11"/>
      <point x="386" y="-14"/>
      <point x="427" y="-14" type="curve" smooth="yes"/>
      <point x="449" y="-14"/>
      <point x="474" y="-6"/>
      <point x="496" y="9" type="curve" smooth="yes"/>
      <point x="585" y="69" type="line"/>
      <point x="545" y="128" type="line"/>
      <point x="454" y="66" type="line" smooth="yes"/>
      <point x="450" y="63"/>
      <point x="445" y="61"/>
      <point x="439" y="61" type="curve" smooth="yes"/>
      <point x="427" y="61"/>
      <point x="417" y="69"/>
      <point x="421" y="86" type="curve" smooth="yes"/>
    </contour>
  </outline>
</glyph>
<glyph name="uni0287" format="1">
  <advance width="612"/>
  <unicode hex="0287"/>
  <outline>
    <contour>
      <point x="511" y="72" type="line"/>
      <point x="355" y="72" type="line"/>
      <point x="423" y="396" type="line" smooth="yes"/>
      <point x="425" y="407"/>
      <point x="426" y="417"/>
      <point x="426" y="426" type="curve" smooth="yes"/>
      <point x="426" y="482"/>
      <point x="387" y="510"/>
      <point x="342" y="510" type="curve" smooth="yes"/>
      <point x="320" y="510"/>
      <point x="297" y="503"/>
      <point x="276" y="489" type="curve" smooth="yes"/>
      <point x="143" y="399" type="line"/>
      <point x="183" y="340" type="line"/>
      <point x="316" y="430" type="line" smooth="yes"/>
      <point x="321" y="433"/>
      <point x="326" y="435"/>
      <point x="331" y="435" type="curve" smooth="yes"/>
      <point x="343" y="435"/>
      <point x="352" y="425"/>
      <point x="348" y="409" type="curve" smooth="yes"/>
      <point x="277" y="72" type="line"/>
      <point x="85" y="72" type="line"/>
      <point x="85" y="0" type="line"/>
      <point x="261" y="0" type="line"/>
      <point x="219" y="-200" type="line"/>
      <point x="297" y="-200" type="line"/>
      <point x="339" y="0" type="line"/>
      <point x="511" y="0" type="line"/>
    </contour>
  </outline>
</glyph>
<glyph name="uni029E" format="1">
  <advance width="612"/>
  <unicode hex="029E"/>
  <outline>
    <contour>
      <point x="456" y="496" type="line"/>
      <point x="410" y="278" type="line"/>
      <point x="380" y="278" type="line"/>
      <point x="242" y="467" type="line" smooth="yes"/>
      <point x="219" y="498"/>
      <point x="194" y="510"/>
      <point x="168" y="510" type="curve" smooth="yes"/>
      <point x="146" y="510"/>
      <point x="125" y="501"/>
      <point x="107" y="487" type="curve" smooth="yes"/>
      <point x="62" y="453" type="line"/>
      <point x="104" y="394" type="line"/>
      <point x="152" y="429" type="line" smooth="yes"/>
      <point x="156" y="432"/>
      <point x="161" y="434"/>
      <point x="165" y="434" type="curve" smooth="yes"/>
      <point x="171" y="434"/>
      <point x="174" y="432"/>
      <point x="178" y="427" type="curve" smooth="yes"/>
      <point x="307" y="251" type="line"/>
      <point x="307" y="233" type="line"/>
      <point x="41" y="0" type="line"/>
      <point x="147" y="0" type="line"/>
      <point x="382" y="206" type="line"/>
      <point x="394" y="206" type="line"/>
      <point x="329" y="-103" type="line" smooth="yes"/>
      <point x="327" y="-113"/>
      <point x="326" y="-121"/>
      <point x="326" y="-129" type="curve" smooth="yes"/>
      <point x="326" y="-181"/>
      <point x="363" y="-212"/>
      <point x="407" y="-212" type="curve" smooth="yes"/>
      <point x="427" y="-212"/>
      <point x="449" y="-205"/>
      <point x="470" y="-191" type="curve" smooth="yes"/>
      <point x="522" y="-156" type="line"/>
      <point x="482" y="-97" type="line"/>
      <point x="431" y="-132" type="line" smooth="yes"/>
      <point x="428" y="-134"/>
      <point x="425" y="-135"/>
      <point x="421" y="-135" type="curve" smooth="yes"/>
      <point x="410" y="-135"/>
      <point x="402" y="-128"/>
      <point x="405" y="-112" type="curve" smooth="yes"/>
      <point x="534" y="496" type="line"/>
    </contour>
  </outline>
</glyph>
<glyph name="circumflex" format="1">
  <advance width="612"/>
  <unicode hex="02C6"/>
  <outline>
    <contour>
      <point x="295" y="570" type="line"/>
      <point x="363" y="658" type="line"/>
      <point x="375" y="658" type="line"/>
      <point x="414" y="570" type="line"/>
      <point x="489" y="570" type="line"/>
      <point x="434" y="688" type="line"/>
      <point x="310" y="688" type="line"/>
      <point x="210" y="576" type="line"/>
      <point x="210" y="570" type="line"/>
    </contour>
  </outline>
</glyph>
<glyph name="breve" format="1">
  <advance width="612"/>
  <unicode hex="02D8"/>
  <outline>
    <contour>
      <point x="410" y="688" type="line"/>
      <point x="407" y="676" type="line" smooth="yes"/>
      <point x="402" y="655"/>
      <point x="390" y="635"/>
      <point x="361" y="635" type="curve" smooth="yes"/>
      <point x="334" y="635"/>
      <point x="320" y="652"/>
      <point x="327" y="677" type="curve" smooth="yes"/>
      <point x="330" y="688" type="line"/>
      <point x="262" y="688" type="line"/>
      <point x="259" y="674" type="line" smooth="yes"/>
      <point x="247" y="616"/>
      <point x="285" y="570"/>
      <point x="351" y="570" type="curve" smooth="yes"/>
      <point x="423" y="570"/>
      <point x="462" y="606"/>
      <point x="477" y="674" type="curve" smooth="yes"/>
      <point x="480" y="688" type="line"/>
    </contour>
  </outline>
</glyph>
<glyph name="dotaccent" format="1">
  <advance width="612"/>
  <unicode hex="02D9"/>
  <outline>
    <contour>
      <point x="288" y="644" type="curve" smooth="yes"/>
      <point x="288" y="606"/>
      <point x="320" y="574"/>
      <point x="358" y="574" type="curve" smooth="yes"/>
      <point x="396" y="574"/>
      <point x="428" y="606"/>
      <point x="428" y="644" type="curve" smooth="yes"/>
      <point x="428" y="682"/>
      <point x="396" y="714"/>
      <point x="358" y="714" type="curve" smooth="yes"/>
      <point x="320" y="714"/>
      <point x="288" y="682"/>
    </contour>
  </outline>
</glyph>
<glyph name="ogonek" format="1">
  <advance width="612"/>
  <unicode hex="02DB"/>
  <outline>
    <contour>
      <point x="300" y="30" type="line"/>
      <point x="259" y="-66" type="line" smooth="yes"/>
      <point x="253" y="-80"/>
      <point x="251" y="-92"/>
      <point x="251" y="-103" type="curve" smooth="yes"/>
      <point x="251" y="-141"/>
      <point x="280" y="-164"/>
      <point x="313" y="-164" type="curve" smooth="yes"/>
      <point x="383" y="-164" type="line"/>
      <point x="383" y="-98" type="line"/>
      <point x="341" y="-98" type="line" smooth="yes"/>
      <point x="329" y="-98"/>
      <point x="322" y="-92"/>
      <point x="322" y="-81" type="curve" smooth="yes"/>
      <point x="322" y="-76"/>
      <point x="323" y="-73"/>
      <point x="325" y="-68" type="curve" smooth="yes"/>
      <point x="369" y="30" type="line"/>
    </contour>
  </outline>
</glyph>
<glyph name="uni0309" format="1">
  <advance width="612"/>
  <unicode hex="0309"/>
  <outline>
    <contour>
      <point x="257" y="546" type="line"/>
      <point x="257" y="614" type="line"/>
      <point x="263" y="614" type="line"/>
      <point x="271" y="594"/>
      <point x="289" y="582"/>
      <point x="315" y="582" type="curve" smooth="yes"/>
      <point x="366" y="582"/>
      <point x="406" y="624"/>
      <point x="406" y="674" type="curve" smooth="yes"/>
      <point x="406" y="722"/>
      <point x="370" y="758"/>
      <point x="320" y="758" type="curve" smooth="yes"/>
      <point x="268" y="758"/>
      <point x="235" y="728"/>
      <point x="218" y="688" type="curve"/>
      <point x="262" y="670" type="line"/>
      <point x="271" y="690"/>
      <point x="286" y="710"/>
      <point x="315" y="710" type="curve" smooth="yes"/>
      <point x="338" y="710"/>
      <point x="351" y="694"/>
      <point x="351" y="672" type="curve" smooth="yes"/>
      <point x="351" y="649"/>
      <point x="335" y="630"/>
      <point x="311" y="630" type="curve" smooth="yes"/>
      <point x="299" y="630"/>
      <point x="290" y="634"/>
      <point x="285" y="644" type="curve"/>
      <point x="213" y="644" type="line"/>
      <point x="208" y="638" type="line"/>
      <point x="208" y="546" type="line"/>
    </contour>
  </outline>
</glyph>
<glyph name="uni031B" format="1">
  <advance width="612"/>
  <unicode hex="031B"/>
  <outline>
    <contour>
      <point x="263" y="630" type="curve" smooth="yes"/>
      <point x="263" y="592"/>
      <point x="295" y="560"/>
      <point x="333" y="560" type="curve" smooth="yes"/>
      <point x="337" y="560" type="line"/>
      <point x="332" y="538" type="line" smooth="yes"/>
      <point x="328" y="519"/>
      <point x="317" y="508"/>
      <point x="298" y="508" type="curve" smooth="yes"/>
      <point x="203" y="508" type="line"/>
      <point x="203" y="454" type="line"/>
      <point x="291" y="454" type="line" smooth="yes"/>
      <point x="343" y="454"/>
      <point x="374" y="482"/>
      <point x="384" y="532" type="curve" smooth="yes"/>
      <point x="402" y="618" type="line" smooth="yes"/>
      <point x="403" y="623"/>
      <point x="403" y="627"/>
      <point x="403" y="630" type="curve" smooth="yes"/>
      <point x="403" y="668"/>
      <point x="371" y="700"/>
      <point x="333" y="700" type="curve" smooth="yes"/>
      <point x="295" y="700"/>
      <point x="263" y="668"/>
    </contour>
  </outline>
</glyph>
<glyph name="uni1E9E" format="1">
  <advance width="612"/>
  <unicode hex="1E9E"/>
  <outline>
    <contour>
      <point x="340" y="348" type="line" smooth="yes"/>
      <point x="416" y="348"/>
      <point x="460" y="312"/>
      <point x="460" y="234" type="curve" smooth="yes"/>
      <point x="460" y="138"/>
      <point x="382" y="78"/>
      <point x="269" y="78" type="curve" smooth="yes"/>
      <point x="183" y="78" type="line"/>
      <point x="183" y="0" type="line"/>
      <point x="254" y="0" type="line" smooth="yes"/>
      <point x="434" y="0"/>
      <point x="544" y="96"/>
      <point x="544" y="236" type="curve" smooth="yes"/>
      <point x="544" y="358"/>
      <point x="470" y="414"/>
      <point x="374" y="414" type="curve" smooth="yes"/>
      <point x="328" y="414" type="line"/>
      <point x="328" y="426" type="line"/>
      <point x="576" y="576" type="line"/>
      <point x="576" y="700" type="line"/>
      <point x="366" y="700" type="line" smooth="yes"/>
      <point x="237" y="700"/>
      <point x="157" y="636"/>
      <point x="130" y="510" type="curve" smooth="yes"/>
      <point x="127" y="496" type="line"/>
      <point x="50" y="496" type="line"/>
      <point x="50" y="418" type="line"/>
      <point x="110" y="418" type="line"/>
      <point x="21" y="0" type="line"/>
      <point x="105" y="0" type="line"/>
      <point x="211" y="496" type="line" smooth="yes"/>
      <point x="230" y="584"/>
      <point x="280" y="622"/>
      <point x="360" y="622" type="curve" smooth="yes"/>
      <point x="504" y="622" type="line"/>
      <point x="504" y="611" type="line"/>
      <point x="262" y="468" type="line"/>
      <point x="262" y="348" type="line"/>
    </contour>
  </outline>
</glyph>
<glyph name="uni1EA2" format="1">
  <advance width="612"/>
  <unicode hex="1EA2"/>
  <outline>
    <contour>
      <point x="409" y="750" type="line"/>
      <point x="409" y="818" type="line"/>
      <point x="415" y="818" type="line"/>
      <point x="423" y="798"/>
      <point x="445" y="786"/>
      <point x="473" y="786" type="curve" smooth="yes"/>
      <point x="521" y="786"/>
      <point x="557" y="828"/>
      <point x="557" y="878" type="curve" smooth="yes"/>
      <point x="557" y="926"/>
      <point x="519" y="962"/>
      <point x="467" y="962" type="curve" smooth="yes"/>
      <point x="413" y="962"/>
      <point x="385" y="932"/>
      <point x="369" y="892" type="curve"/>
      <point x="414" y="874" type="line"/>
      <point x="421" y="898"/>
      <point x="437" y="914"/>
      <point x="461" y="914" type="curve" smooth="yes"/>
      <point x="487" y="914"/>
      <point x="503" y="898"/>
      <point x="503" y="874" type="curve"/>
      <point x="503" y="848"/>
      <point x="489" y="833"/>
      <point x="465" y="833" type="curve" smooth="yes"/>
      <point x="453" y="833"/>
      <point x="443" y="838"/>
      <point x="437" y="848" type="curve"/>
      <point x="365" y="848" type="line"/>
      <point x="360" y="842" type="line"/>
      <point x="360" y="750" type="line"/>
    </contour>
    <component base="A"/>
  </outline>
</glyph>
<glyph name="uni1EA9" format="1">
  <advance width="612"/>
  <unicode hex="1EA9"/>
  <outline>
    <contour>
      <point x="483" y="658" type="line"/>
      <point x="483" y="726" type="line"/>
      <point x="489" y="726" type="line"/>
      <point x="497" y="706"/>
      <point x="519" y="694"/>
      <point x="547" y="694" type="curve" smooth="yes"/>
      <point x="595" y="694"/>
      <point x="631" y="736"/>
      <point x="631" y="786" type="curve" smooth="yes"/>
      <point x="631" y="834"/>
      <point x="593" y="870"/>
      <point x="541" y="870" type="curve" smooth="yes"/>
      <point x="487" y="870"/>
      <point x="459" y="840"/>
      <point x="443" y="800" type="curve"/>
      <point x="488" y="782" type="line"/>
      <point x="495" y="806"/>
      <point x="511" y="822"/>
      <point x="535" y="822" type="curve" smooth="yes"/>
      <point x="561" y="822"/>
      <point x="577" y="806"/>
      <point x="577" y="782" type="curve" smooth="yes"/>
      <point x="577" y="756"/>
      <point x="563" y="741"/>
      <point x="539" y="741" type="curve" smooth="yes"/>
      <point x="527" y="741"/>
      <point x="517" y="746"/>
      <point x="511" y="756" type="curve"/>
      <point x="439" y="756" type="line"/>
      <point x="434" y="750" type="line"/>
      <point x="434" y="658" type="line"/>
    </contour>
    <component base="a"/>
    <component base="circumflex" xOffset="-50"/>
  </outline>
</glyph>
<glyph name="uni1EB2" format="1">
  <advance width="612"/>
  <unicode hex="1EB2"/>
  <outline>
    <contour>
      <point x="442" y="878" type="line"/>
      <point x="442" y="946" type="line"/>
      <point x="448" y="946" type="line"/>
      <point x="456" y="926"/>
      <point x="478" y="914"/>
      <point x="506" y="914" type="curve" smooth="yes"/>
      <point x="554" y="914"/>
      <point x="590" y="956"/>
      <point x="590" y="1006" type="curve" smooth="yes"/>
      <point x="590" y="1054"/>
      <point x="552" y="1090"/>
      <point x="500" y="1090" type="curve" smooth="yes"/>
      <point x="446" y="1090"/>
      <point x="418" y="1060"/>
      <point x="402" y="1020" type="curve"/>
      <point x="447" y="1002" type="line"/>
      <point x="454" y="1026"/>
      <point x="470" y="1042"/>
      <point x="494" y="1042" type="curve" smooth="yes"/>
      <point x="520" y="1042"/>
      <point x="536" y="1026"/>
      <point x="536" y="1002" type="curve" smooth="yes"/>
      <point x="536" y="976"/>
      <point x="522" y="961"/>
      <point x="498" y="961" type="curve" smooth="yes"/>
      <point x="486" y="961"/>
      <point x="476" y="966"/>
      <point x="470" y="976" type="curve"/>
      <point x="398" y="976" type="line"/>
      <point x="393" y="970" type="line"/>
      <point x="393" y="878" type="line"/>
    </contour>
    <component base="A"/>
    <component base="breve" xOffset="39" yOffset="160"/>
  </outline>
</glyph>
<glyph name="uni1EB3" format="1">
  <advance width="612"/>
  <unicode hex="1EB3"/>
  <outline>
    <contour>
      <point x="361" y="718" type="line"/>
      <point x="361" y="786" type="line"/>
      <point x="367" y="786" type="line"/>
      <point x="375" y="766"/>
      <point x="393" y="754"/>
      <point x="419" y="754" type="curve" smooth="yes"/>
      <point x="470" y="754"/>
      <point x="510" y="796"/>
      <point x="510" y="846" type="curve" smooth="yes"/>
      <point x="510" y="894"/>
      <point x="474" y="930"/>
      <point x="424" y="930" type="curve" smooth="yes"/>
      <point x="372" y="930"/>
      <point x="339" y="900"/>
      <point x="322" y="860" type="curve"/>
      <point x="366" y="842" type="line"/>
      <point x="375" y="862"/>
      <point x="390" y="882"/>
      <point x="419" y="882" type="curve" smooth="yes"/>
      <point x="442" y="882"/>
      <point x="455" y="866"/>
      <point x="455" y="844" type="curve" smooth="yes"/>
      <point x="455" y="821"/>
      <point x="439" y="802"/>
      <point x="415" y="802" type="curve" smooth="yes"/>
      <point x="403" y="802"/>
      <point x="394" y="806"/>
      <point x="389" y="816" type="curve"/>
      <point x="317" y="816" type="line"/>
      <point x="312" y="810" type="line"/>
      <point x="312" y="718" type="line"/>
    </contour>
    <component base="breve" xOffset="-37"/>
    <component base="a"/>
  </outline>
</glyph>
<glyph name="uni1EBA" format="1">
  <advance width="612"/>
  <unicode hex="1EBA"/>
  <outline>
    <contour>
      <point x="390" y="750" type="line"/>
      <point x="390" y="818" type="line"/>
      <point x="396" y="818" type="line"/>
      <point x="404" y="798"/>
      <point x="426" y="786"/>
      <point x="454" y="786" type="curve" smooth="yes"/>
      <point x="502" y="786"/>
      <point x="538" y="828"/>
      <point x="538" y="878" type="curve" smooth="yes"/>
      <point x="538" y="926"/>
      <point x="500" y="962"/>
      <point x="448" y="962" type="curve" smooth="yes"/>
      <point x="394" y="962"/>
      <point x="366" y="932"/>
      <point x="350" y="892" type="curve"/>
      <point x="395" y="874" type="line"/>
      <point x="402" y="898"/>
      <point x="418" y="914"/>
      <point x="442" y="914" type="curve" smooth="yes"/>
      <point x="468" y="914"/>
      <point x="484" y="898"/>
      <point x="484" y="874" type="curve" smooth="yes"/>
      <point x="484" y="848"/>
      <point x="470" y="833"/>
      <point x="446" y="833" type="curve" smooth="yes"/>
      <point x="434" y="833"/>
      <point x="424" y="838"/>
      <point x="418" y="848" type="curve"/>
      <point x="346" y="848" type="line"/>
      <point x="341" y="842" type="line"/>
      <point x="341" y="750" type="line"/>
    </contour>
    <component base="E"/>
  </outline>
</glyph>
<glyph name="uni1EC3" format="1">
  <advance width="612"/>
  <unicode hex="1EC3"/>
  <outline>
    <contour>
      <point x="540" y="658" type="line"/>
      <point x="540" y="726" type="line"/>
      <point x="546" y="726" type="line"/>
      <point x="554" y="706"/>
      <point x="572" y="694"/>
      <point x="598" y="694" type="curve" smooth="yes"/>
      <point x="649" y="694"/>
      <point x="689" y="736"/>
      <point x="689" y="786" type="curve" smooth="yes"/>
      <point x="689" y="834"/>
      <point x="653" y="870"/>
      <point x="603" y="870" type="curve" smooth="yes"/>
      <point x="551" y="870"/>
      <point x="518" y="840"/>
      <point x="501" y="800" type="curve"/>
      <point x="545" y="782" type="line"/>
      <point x="554" y="802"/>
      <point x="569" y="822"/>
      <point x="598" y="822" type="curve" smooth="yes"/>
      <point x="621" y="822"/>
      <point x="634" y="806"/>
      <point x="634" y="784" type="curve" smooth="yes"/>
      <point x="634" y="761"/>
      <point x="618" y="742"/>
      <point x="594" y="742" type="curve" smooth="yes"/>
      <point x="582" y="742"/>
      <point x="573" y="746"/>
      <point x="568" y="756" type="curve"/>
      <point x="496" y="756" type="line"/>
      <point x="491" y="750" type="line"/>
      <point x="491" y="658" type="line"/>
    </contour>
    <component base="e"/>
    <component base="circumflex" xOffset="3"/>
  </outline>
</glyph>
<glyph name="uni1ECF" format="1">
  <advance width="612"/>
  <unicode hex="1ECF"/>
  <outline>
    <contour>
      <point x="361" y="546" type="line"/>
      <point x="361" y="614" type="line"/>
      <point x="367" y="614" type="line"/>
      <point x="375" y="594"/>
      <point x="393" y="582"/>
      <point x="419" y="582" type="curve" smooth="yes"/>
      <point x="470" y="582"/>
      <point x="510" y="624"/>
      <point x="510" y="674" type="curve" smooth="yes"/>
      <point x="510" y="722"/>
      <point x="474" y="758"/>
      <point x="424" y="758" type="curve" smooth="yes"/>
      <point x="372" y="758"/>
      <point x="339" y="728"/>
      <point x="322" y="688" type="curve"/>
      <point x="366" y="670" type="line"/>
      <point x="375" y="690"/>
      <point x="390" y="710"/>
      <point x="419" y="710" type="curve" smooth="yes"/>
      <point x="442" y="710"/>
      <point x="455" y="694"/>
      <point x="455" y="672" type="curve" smooth="yes"/>
      <point x="455" y="649"/>
      <point x="439" y="630"/>
      <point x="415" y="630" type="curve" smooth="yes"/>
      <point x="403" y="630"/>
      <point x="394" y="634"/>
      <point x="389" y="644" type="curve"/>
      <point x="317" y="644" type="line"/>
      <point x="312" y="638" type="line"/>
      <point x="312" y="546" type="line"/>
    </contour>
    <component base="o"/>
  </outline>
</glyph>
<glyph name="uni1ED4" format="1">
  <advance width="612"/>
  <unicode hex="1ED4"/>
  <outline>
    <contour>
      <point x="587" y="858" type="line"/>
      <point x="587" y="926" type="line"/>
      <point x="593" y="926" type="line"/>
      <point x="601" y="906"/>
      <point x="623" y="894"/>
      <point x="651" y="894" type="curve" smooth="yes"/>
      <point x="699" y="894"/>
      <point x="735" y="936"/>
      <point x="735" y="986" type="curve" smooth="yes"/>
      <point x="735" y="1034"/>
      <point x="697" y="1070"/>
      <point x="645" y="1070" type="curve" smooth="yes"/>
      <point x="591" y="1070"/>
      <point x="563" y="1040"/>
      <point x="547" y="1000" type="curve"/>
      <point x="592" y="982" type="line"/>
      <point x="599" y="1006"/>
      <point x="615" y="1022"/>
      <point x="639" y="1022" type="curve" smooth="yes"/>
      <point x="665" y="1022"/>
      <point x="681" y="1006"/>
      <point x="681" y="982" type="curve" smooth="yes"/>
      <point x="681" y="956"/>
      <point x="667" y="941"/>
      <point x="643" y="941" type="curve" smooth="yes"/>
      <point x="631" y="941"/>
      <point x="621" y="946"/>
      <point x="615" y="956" type="curve"/>
      <point x="543" y="956" type="line"/>
      <point x="538" y="950" type="line"/>
      <point x="538" y="858" type="line"/>
    </contour>
    <component base="O"/>
    <component base="circumflex" xOffset="52" yOffset="204"/>
  </outline>
</glyph>
<glyph name="uni1ED5" format="1">
  <advance width="612"/>
  <unicode hex="1ED5"/>
  <outline>
    <contour>
      <point x="544" y="658" type="line"/>
      <point x="544" y="726" type="line"/>
      <point x="550" y="726" type="line"/>
      <point x="558" y="706"/>
      <point x="576" y="694"/>
      <point x="602" y="694" type="curve" smooth="yes"/>
      <point x="653" y="694"/>
      <point x="693" y="736"/>
      <point x="693" y="786" type="curve" smooth="yes"/>
      <point x="693" y="834"/>
      <point x="657" y="870"/>
      <point x="607" y="870" type="curve" smooth="yes"/>
      <point x="555" y="870"/>
      <point x="522" y="840"/>
      <point x="505" y="800" type="curve"/>
      <point x="549" y="782" type="line"/>
      <point x="558" y="802"/>
      <point x="573" y="822"/>
      <point x="602" y="822" type="curve" smooth="yes"/>
      <point x="625" y="822"/>
      <point x="638" y="806"/>
      <point x="638" y="784" type="curve" smooth="yes"/>
      <point x="638" y="761"/>
      <point x="622" y="742"/>
      <point x="598" y="742" type="curve" smooth="yes"/>
      <point x="586" y="742"/>
      <point x="577" y="746"/>
      <point x="572" y="756" type="curve"/>
      <point x="500" y="756" type="line"/>
      <point x="495" y="750" type="line"/>
      <point x="495" y="658" type="line"/>
    </contour>
    <component base="o"/>
    <component base="circumflex" xOffset="7"/>
  </outline>
</glyph>
<glyph name="uni1EE7" format="1">
  <advance width="612"/>
  <unicode hex="1EE7"/>
  <outline>
    <contour>
      <point x="343" y="546" type="line"/>
      <point x="343" y="614" type="line"/>
      <point x="349" y="614" type="line"/>
      <point x="357" y="594"/>
      <point x="375" y="582"/>
      <point x="401" y="582" type="curve" smooth="yes"/>
      <point x="452" y="582"/>
      <point x="492" y="624"/>
      <point x="492" y="674" type="curve" smooth="yes"/>
      <point x="492" y="722"/>
      <point x="456" y="758"/>
      <point x="406" y="758" type="curve" smooth="yes"/>
      <point x="354" y="758"/>
      <point x="321" y="728"/>
      <point x="304" y="688" type="curve"/>
      <point x="348" y="670" type="line"/>
      <point x="357" y="690"/>
      <point x="372" y="710"/>
      <point x="401" y="710" type="curve" smooth="yes"/>
      <point x="424" y="710"/>
      <point x="437" y="694"/>
      <point x="437" y="672" type="curve" smooth="yes"/>
      <point x="437" y="649"/>
      <point x="421" y="630"/>
      <point x="397" y="630" type="curve" smooth="yes"/>
      <point x="385" y="630"/>
      <point x="376" y="634"/>
      <point x="371" y="644" type="curve"/>
      <point x="299" y="644" type="line"/>
      <point x="294" y="638" type="line"/>
      <point x="294" y="546" type="line"/>
    </contour>
    <component base="u"/>
  </outline>
</glyph>
<glyph name="uni1EEC" format="1">
  <advance width="612"/>
  <unicode hex="1EEC"/>
  <outline>
    <contour>
      <point x="335" y="750" type="line"/>
      <point x="335" y="818" type="line"/>
      <point x="341" y="818" type="line"/>
      <point x="349" y="798"/>
      <point x="367" y="786"/>
      <point x="393" y="786" type="curve" smooth="yes"/>
      <point x="444" y="786"/>
      <point x="484" y="828"/>
      <point x="484" y="878" type="curve" smooth="yes"/>
      <point x="484" y="926"/>
      <point x="448" y="962"/>
      <point x="398" y="962" type="curve" smooth="yes"/>
      <point x="346" y="962"/>
      <point x="313" y="932"/>
      <point x="296" y="892" type="curve"/>
      <point x="340" y="874" type="line"/>
      <point x="349" y="894"/>
      <point x="364" y="914"/>
      <point x="393" y="914" type="curve" smooth="yes"/>
      <point x="416" y="914"/>
      <point x="429" y="898"/>
      <point x="429" y="876" type="curve" smooth="yes"/>
      <point x="429" y="853"/>
      <point x="413" y="834"/>
      <point x="389" y="834" type="curve" smooth="yes"/>
      <point x="377" y="834"/>
      <point x="368" y="838"/>
      <point x="363" y="848" type="curve"/>
      <point x="291" y="848" type="line"/>
      <point x="286" y="842" type="line"/>
      <point x="286" y="750" type="line"/>
    </contour>
    <component base="uni01AF"/>
  </outline>
</glyph>
<glyph name="uni1EF6" format="1">
  <advance width="612"/>
  <unicode hex="1EF6"/>
  <outline>
    <contour>
      <point x="387" y="750" type="line"/>
      <point x="387" y="818" type="line"/>
      <point x="393" y="818" type="line"/>
      <point x="401" y="798"/>
      <point x="423" y="786"/>
      <point x="451" y="786" type="curve" smooth="yes"/>
      <point x="499" y="786"/>
      <point x="535" y="828"/>
      <point x="535" y="878" type="curve" smooth="yes"/>
      <point x="535" y="926"/>
      <point x="497" y="962"/>
      <point x="445" y="962" type="curve" smooth="yes"/>
      <point x="391" y="962"/>
      <point x="363" y="932"/>
      <point x="347" y="892" type="curve"/>
      <point x="392" y="874" type="line"/>
      <point x="399" y="898"/>
      <point x="415" y="914"/>
      <point x="439" y="914" type="curve" smooth="yes"/>
      <point x="465" y="914"/>
      <point x="481" y="898"/>
      <point x="481" y="874" type="curve" smooth="yes"/>
      <point x="481" y="848"/>
      <point x="467" y="833"/>
      <point x="443" y="833" type="curve" smooth="yes"/>
      <point x="431" y="833"/>
      <point x="421" y="838"/>
      <point x="415" y="848" type="curve"/>
      <point x="343" y="848" type="line"/>
      <point x="338" y="842" type="line"/>
      <point x="338" y="750" type="line"/>
    </contour>
    <component base="Y"/>
  </outline>
</glyph>
<glyph name="quoteleft" format="1">
  <advance width="612"/>
  <unicode hex="2018"/>
  <outline>
    <contour>
      <point x="418" y="538" type="curve"/>
      <point x="418" y="576"/>
      <point x="386" y="608"/>
      <point x="348" y="608" type="curve" smooth="yes"/>
      <point x="344" y="608" type="line"/>
      <point x="349" y="630" type="line" smooth="yes"/>
      <point x="353" y="649"/>
      <point x="364" y="660"/>
      <point x="383" y="660" type="curve" smooth="yes"/>
      <point x="442" y="660" type="line"/>
      <point x="442" y="714" type="line"/>
      <point x="390" y="714" type="line" smooth="yes"/>
      <point x="338" y="714"/>
      <point x="307" y="686"/>
      <point x="297" y="636" type="curve" smooth="yes"/>
      <point x="279" y="550" type="line" smooth="yes"/>
      <point x="278" y="545"/>
      <point x="278" y="541"/>
      <point x="278" y="538" type="curve" smooth="yes"/>
      <point x="278" y="500"/>
      <point x="310" y="468"/>
      <point x="348" y="468" type="curve" smooth="yes"/>
      <point x="386" y="468"/>
      <point x="418" y="500"/>
    </contour>
  </outline>
</glyph>
<glyph name="quoteright" format="1">
  <advance width="612"/>
  <unicode hex="2019"/>
  <outline>
    <contour>
      <point x="298" y="644" type="curve" smooth="yes"/>
      <point x="298" y="606"/>
      <point x="330" y="574"/>
      <point x="368" y="574" type="curve" smooth="yes"/>
      <point x="372" y="574" type="line"/>
      <point x="367" y="552" type="line" smooth="yes"/>
      <point x="363" y="533"/>
      <point x="352" y="522"/>
      <point x="333" y="522" type="curve" smooth="yes"/>
      <point x="274" y="522" type="line"/>
      <point x="274" y="468" type="line"/>
      <point x="326" y="468" type="line" smooth="yes"/>
      <point x="378" y="468"/>
      <point x="409" y="496"/>
      <point x="419" y="546" type="curve" smooth="yes"/>
      <point x="437" y="632" type="line" smooth="yes"/>
      <point x="438" y="637"/>
      <point x="438" y="641"/>
      <point x="438" y="644" type="curve" smooth="yes"/>
      <point x="438" y="682"/>
      <point x="406" y="714"/>
      <point x="368" y="714" type="curve" smooth="yes"/>
      <point x="330" y="714"/>
      <point x="298" y="682"/>
    </contour>
  </outline>
</glyph>
<glyph name="quotesinglbase" format="1">
  <advance width="612"/>
  <unicode hex="201A"/>
  <outline>
    <contour>
      <point x="198" y="70" type="curve" smooth="yes"/>
      <point x="198" y="32"/>
      <point x="230" y="0"/>
      <point x="268" y="0" type="curve" smooth="yes"/>
      <point x="272" y="0" type="line"/>
      <point x="267" y="-22" type="line" smooth="yes"/>
      <point x="263" y="-41"/>
      <point x="252" y="-52"/>
      <point x="233" y="-52" type="curve" smooth="yes"/>
      <point x="174" y="-52" type="line"/>
      <point x="174" y="-106" type="line"/>
      <point x="226" y="-106" type="line" smooth="yes"/>
      <point x="278" y="-106"/>
      <point x="309" y="-78"/>
      <point x="319" y="-28" type="curve" smooth="yes"/>
      <point x="337" y="58" type="line" smooth="yes"/>
      <point x="338" y="63"/>
      <point x="338" y="67"/>
      <point x="338" y="70" type="curve" smooth="yes"/>
      <point x="338" y="108"/>
      <point x="306" y="140"/>
      <point x="268" y="140" type="curve" smooth="yes"/>
      <point x="230" y="140"/>
      <point x="198" y="108"/>
    </contour>
  </outline>
</glyph>
<glyph name="quotedblbase" format="1">
  <advance width="612"/>
  <unicode hex="201E"/>
  <outline>
    <contour>
      <point x="90" y="70" type="curve" smooth="yes"/>
      <point x="90" y="32"/>
      <point x="122" y="0"/>
      <point x="160" y="0" type="curve" smooth="yes"/>
      <point x="164" y="0" type="line"/>
      <point x="159" y="-22" type="line" smooth="yes"/>
      <point x="155" y="-41"/>
      <point x="144" y="-52"/>
      <point x="125" y="-52" type="curve" smooth="yes"/>
      <point x="66" y="-52" type="line"/>
      <point x="66" y="-106" type="line"/>
      <point x="118" y="-106" type="line" smooth="yes"/>
      <point x="170" y="-106"/>
      <point x="201" y="-78"/>
      <point x="211" y="-28" type="curve" smooth="yes"/>
      <point x="229" y="58" type="line" smooth="yes"/>
      <point x="230" y="63"/>
      <point x="230" y="67"/>
      <point x="230" y="70" type="curve" smooth="yes"/>
      <point x="230" y="108"/>
      <point x="198" y="140"/>
      <point x="160" y="140" type="curve" smooth="yes"/>
      <point x="122" y="140"/>
      <point x="90" y="108"/>
    </contour>
    <contour>
      <point x="272" y="70" type="curve" smooth="yes"/>
      <point x="272" y="32"/>
      <point x="304" y="0"/>
      <point x="342" y="0" type="curve" smooth="yes"/>
      <point x="346" y="0" type="line"/>
      <point x="341" y="-22" type="line" smooth="yes"/>
      <point x="337" y="-41"/>
      <point x="326" y="-52"/>
      <point x="307" y="-52" type="curve" smooth="yes"/>
      <point x="248" y="-52" type="line"/>
      <point x="248" y="-106" type="line"/>
      <point x="300" y="-106" type="line" smooth="yes"/>
      <point x="352" y="-106"/>
      <point x="383" y="-78"/>
      <point x="393" y="-28" type="curve" smooth="yes"/>
      <point x="411" y="58" type="line" smooth="yes"/>
      <point x="412" y="63"/>
      <point x="412" y="67"/>
      <point x="412" y="70" type="curve" smooth="yes"/>
      <point x="412" y="108"/>
      <point x="380" y="140"/>
      <point x="342" y="140" type="curve" smooth="yes"/>
      <point x="304" y="140"/>
      <point x="272" y="108"/>
    </contour>
  </outline>
</glyph>
<glyph name="bullet" format="1">
  <advance width="612"/>
  <unicode hex="2022"/>
  <outline>
    <contour>
      <point x="188" y="350" type="curve" smooth="yes"/>
      <point x="188" y="286"/>
      <point x="242" y="232"/>
      <point x="306" y="232" type="curve" smooth="yes"/>
      <point x="370" y="232"/>
      <point x="424" y="286"/>
      <point x="424" y="350" type="curve" smooth="yes"/>
      <point x="424" y="414"/>
      <point x="370" y="468"/>
      <point x="306" y="468" type="curve" smooth="yes"/>
      <point x="242" y="468"/>
      <point x="188" y="414"/>
    </contour>
  </outline>
</glyph>
<glyph name="perthousand" format="1">
  <advance width="612"/>
  <unicode hex="2030"/>
  <outline>
    <contour>
      <point x="257" y="90" type="line" smooth="yes"/>
      <point x="255" y="80"/>
      <point x="254" y="74"/>
      <point x="254" y="66" type="curve" smooth="yes"/>
      <point x="254" y="23"/>
      <point x="282" y="-6"/>
      <point x="325" y="-6" type="curve" smooth="yes"/>
      <point x="357" y="-6"/>
      <point x="379" y="8"/>
      <point x="392" y="26" type="curve"/>
      <point x="398" y="26" type="line"/>
      <point x="407" y="8"/>
      <point x="427" y="-6"/>
      <point x="457" y="-6" type="curve" smooth="yes"/>
      <point x="517" y="-6"/>
      <point x="548" y="28"/>
      <point x="559" y="81" type="curve" smooth="yes"/>
      <point x="584" y="196" type="line" smooth="yes"/>
      <point x="586" y="206"/>
      <point x="587" y="215"/>
      <point x="587" y="224" type="curve" smooth="yes"/>
      <point x="587" y="268"/>
      <point x="560" y="294"/>
      <point x="516" y="294" type="curve" smooth="yes"/>
      <point x="486" y="294"/>
      <point x="464" y="280"/>
      <point x="449" y="262" type="curve"/>
      <point x="443" y="262" type="line"/>
      <point x="436" y="279"/>
      <point x="413" y="294"/>
      <point x="385" y="294" type="curve" smooth="yes"/>
      <point x="322" y="294"/>
      <point x="293" y="256"/>
      <point x="281" y="202" type="curve" smooth="yes"/>
    </contour>
    <contour>
      <point x="379" y="240" type="curve" smooth="yes"/>
      <point x="395" y="240"/>
      <point x="404" y="229"/>
      <point x="404" y="213" type="curve" smooth="yes"/>
      <point x="404" y="209"/>
      <point x="404" y="206"/>
      <point x="403" y="202" type="curve" smooth="yes"/>
      <point x="378" y="86" type="line" smooth="yes"/>
      <point x="373" y="64"/>
      <point x="359" y="48"/>
      <point x="337" y="48" type="curve" smooth="yes"/>
      <point x="321" y="48"/>
      <point x="313" y="58"/>
      <point x="313" y="73" type="curve" smooth="yes"/>
      <point x="313" y="77"/>
      <point x="314" y="81"/>
      <point x="315" y="86" type="curve" smooth="yes"/>
      <point x="341" y="202" type="line" smooth="yes"/>
      <point x="346" y="224"/>
      <point x="358" y="240"/>
    </contour>
    <contour>
      <point x="345" y="579" type="curve" smooth="yes"/>
      <point x="345" y="658"/>
      <point x="293" y="706"/>
      <point x="215" y="706" type="curve" smooth="yes"/>
      <point x="115" y="706"/>
      <point x="45" y="632"/>
      <point x="45" y="530" type="curve" smooth="yes"/>
      <point x="45" y="451"/>
      <point x="101" y="406"/>
      <point x="171" y="406" type="curve" smooth="yes"/>
      <point x="278" y="406"/>
      <point x="345" y="488"/>
    </contour>
    <contour>
      <point x="173" y="460" type="curve" smooth="yes"/>
      <point x="133" y="460"/>
      <point x="105" y="484"/>
      <point x="105" y="539" type="curve" smooth="yes"/>
      <point x="105" y="600"/>
      <point x="148" y="652"/>
      <point x="212" y="652" type="curve" smooth="yes"/>
      <point x="261" y="652"/>
      <point x="285" y="616"/>
      <point x="285" y="568" type="curve" smooth="yes"/>
      <point x="285" y="512"/>
      <point x="240" y="460"/>
    </contour>
    <contour>
      <point x="501" y="240" type="curve" smooth="yes"/>
      <point x="517" y="240"/>
      <point x="526" y="229"/>
      <point x="526" y="213" type="curve" smooth="yes"/>
      <point x="526" y="209"/>
      <point x="526" y="208"/>
      <point x="525" y="202" type="curve" smooth="yes"/>
      <point x="500" y="86" type="line" smooth="yes"/>
      <point x="495" y="64"/>
      <point x="483" y="48"/>
      <point x="461" y="48" type="curve" smooth="yes"/>
      <point x="445" y="48"/>
      <point x="436" y="59"/>
      <point x="436" y="75" type="curve" smooth="yes"/>
      <point x="436" y="79"/>
      <point x="436" y="81"/>
      <point x="437" y="86" type="curve" smooth="yes"/>
      <point x="463" y="202" type="line" smooth="yes"/>
      <point x="468" y="224"/>
      <point x="480" y="240"/>
    </contour>
    <component base="fraction" xOffset="-5"/>
  </outline>
</glyph>
<glyph name="uni2032" format="1">
  <advance width="612"/>
  <unicode hex="2032"/>
  <outline>
    <contour>
      <point x="252" y="644" type="curve" smooth="yes"/>
      <point x="252" y="624"/>
      <point x="260" y="605"/>
      <point x="274" y="593" type="curve"/>
      <point x="231" y="492" type="line"/>
      <point x="281" y="472" type="line"/>
      <point x="323" y="574" type="line"/>
      <point x="362" y="575"/>
      <point x="392" y="605"/>
      <point x="392" y="644" type="curve" smooth="yes"/>
      <point x="392" y="683"/>
      <point x="361" y="714"/>
      <point x="322" y="714" type="curve" smooth="yes"/>
      <point x="283" y="714"/>
      <point x="252" y="683"/>
    </contour>
  </outline>
</glyph>
<glyph name="guilsinglright" format="1">
  <advance width="612"/>
  <unicode hex="203A"/>
  <outline>
    <contour>
      <point x="221" y="484" type="line"/>
      <point x="221" y="388" type="line"/>
      <point x="382" y="254" type="line"/>
      <point x="382" y="244" type="line"/>
      <point x="120" y="100" type="line"/>
      <point x="120" y="12" type="line"/>
      <point x="126" y="12" type="line"/>
      <point x="412" y="172" type="line"/>
      <point x="412" y="328" type="line"/>
      <point x="227" y="484" type="line"/>
    </contour>
  </outline>
</glyph>
<glyph name="fraction" format="1">
  <advance width="612"/>
  <unicode hex="2044"/>
  <outline>
    <contour>
      <point x="29" y="251" type="line"/>
      <point x="51" y="205" type="line"/>
      <point x="582" y="449" type="line"/>
      <point x="560" y="495" type="line"/>
    </contour>
  </outline>
</glyph>
<glyph name="uni2071" format="1">
  <advance width="612"/>
  <unicode hex="2071"/>
  <outline>
    <contour>
      <point x="220" y="412" type="line"/>
      <point x="460" y="412" type="line"/>
      <point x="460" y="460" type="line"/>
      <point x="375" y="460" type="line"/>
      <point x="426" y="700" type="line"/>
      <point x="279" y="700" type="line"/>
      <point x="279" y="652" type="line"/>
      <point x="362" y="652" type="line"/>
      <point x="321" y="460" type="line"/>
      <point x="220" y="460" type="line"/>
    </contour>
    <contour>
      <point x="462" y="785" type="curve" smooth="yes"/>
      <point x="462" y="810"/>
      <point x="442" y="830"/>
      <point x="417" y="830" type="curve" smooth="yes"/>
      <point x="392" y="830"/>
      <point x="372" y="810"/>
      <point x="372" y="785" type="curve" smooth="yes"/>
      <point x="372" y="760"/>
      <point x="392" y="740"/>
      <point x="417" y="740" type="curve" smooth="yes"/>
      <point x="442" y="740"/>
      <point x="462" y="760"/>
    </contour>
  </outline>
</glyph>
<glyph name="uni2076" format="1">
  <advance width="612"/>
  <unicode hex="2076"/>
  <outline>
    <contour>
      <point x="413" y="616" type="line"/>
      <point x="414" y="622"/>
      <point x="415" y="629"/>
      <point x="415" y="635" type="curve" smooth="yes"/>
      <point x="415" y="677"/>
      <point x="382" y="706"/>
      <point x="331" y="706" type="curve" smooth="yes"/>
      <point x="273" y="706"/>
      <point x="229" y="668"/>
      <point x="217" y="608" type="curve" smooth="yes"/>
      <point x="197" y="513" type="line" smooth="yes"/>
      <point x="195" y="503"/>
      <point x="194" y="494"/>
      <point x="194" y="486" type="curve" smooth="yes"/>
      <point x="194" y="435"/>
      <point x="231" y="406"/>
      <point x="278" y="406" type="curve" smooth="yes"/>
      <point x="354" y="406"/>
      <point x="397" y="467"/>
      <point x="397" y="518" type="curve" smooth="yes"/>
      <point x="397" y="567"/>
      <point x="371" y="596"/>
      <point x="330" y="596" type="curve" smooth="yes"/>
      <point x="302" y="596"/>
      <point x="280" y="582"/>
      <point x="268" y="566" type="curve"/>
      <point x="262" y="566" type="line"/>
      <point x="271" y="608" type="line" smooth="yes"/>
      <point x="277" y="638"/>
      <point x="295" y="658"/>
      <point x="325" y="658" type="curve" smooth="yes"/>
      <point x="349" y="658"/>
      <point x="360" y="646"/>
      <point x="360" y="627" type="curve" smooth="yes"/>
      <point x="360" y="625"/>
      <point x="360" y="623"/>
      <point x="359" y="616" type="curve"/>
    </contour>
    <contour>
      <point x="302" y="548" type="curve" smooth="yes"/>
      <point x="324" y="548"/>
      <point x="341" y="534"/>
      <point x="341" y="509" type="curve" smooth="yes"/>
      <point x="341" y="479"/>
      <point x="315" y="454"/>
      <point x="285" y="454" type="curve" smooth="yes"/>
      <point x="263" y="454"/>
      <point x="247" y="468"/>
      <point x="247" y="492" type="curve" smooth="yes"/>
      <point x="247" y="524"/>
      <point x="274" y="548"/>
    </contour>
  </outline>
</glyph>
<glyph name="uni2079" format="1">
  <advance width="612"/>
  <unicode hex="2079"/>
  <outline>
    <contour>
      <point x="193" y="496" type="line"/>
      <point x="192" y="490"/>
      <point x="191" y="483"/>
      <point x="191" y="477" type="curve" smooth="yes"/>
      <point x="191" y="435"/>
      <point x="224" y="406"/>
      <point x="275" y="406" type="curve" smooth="yes"/>
      <point x="333" y="406"/>
      <point x="377" y="444"/>
      <point x="389" y="504" type="curve" smooth="yes"/>
      <point x="409" y="599" type="line" smooth="yes"/>
      <point x="411" y="609"/>
      <point x="412" y="618"/>
      <point x="412" y="626" type="curve" smooth="yes"/>
      <point x="412" y="677"/>
      <point x="375" y="706"/>
      <point x="328" y="706" type="curve" smooth="yes"/>
      <point x="252" y="706"/>
      <point x="209" y="645"/>
      <point x="209" y="594" type="curve" smooth="yes"/>
      <point x="209" y="545"/>
      <point x="235" y="516"/>
      <point x="276" y="516" type="curve" smooth="yes"/>
      <point x="304" y="516"/>
      <point x="326" y="530"/>
      <point x="338" y="546" type="curve"/>
      <point x="344" y="546" type="line"/>
      <point x="335" y="504" type="line" smooth="yes"/>
      <point x="329" y="474"/>
      <point x="311" y="454"/>
      <point x="281" y="454" type="curve" smooth="yes"/>
      <point x="257" y="454"/>
      <point x="246" y="466"/>
      <point x="246" y="485" type="curve" smooth="yes"/>
      <point x="246" y="487"/>
      <point x="246" y="489"/>
      <point x="247" y="496" type="curve"/>
    </contour>
    <contour>
      <point x="304" y="564" type="curve" smooth="yes"/>
      <point x="282" y="564"/>
      <point x="265" y="578"/>
      <point x="265" y="603" type="curve" smooth="yes"/>
      <point x="265" y="633"/>
      <point x="291" y="658"/>
      <point x="321" y="658" type="curve" smooth="yes"/>
      <point x="343" y="658"/>
      <point x="359" y="644"/>
      <point x="359" y="620" type="curve" smooth="yes"/>
      <point x="359" y="588"/>
      <point x="332" y="564"/>
    </contour>
  </outline>
</glyph>
<glyph name="uni2082" format="1">
  <advance width="612"/>
  <unicode hex="2082"/>
  <outline>
    <contour>
      <point x="191" y="-152" type="line"/>
      <point x="193" y="-146" type="line" smooth="yes"/>
      <point x="198" y="-120"/>
      <point x="214" y="-104"/>
      <point x="264" y="-94" type="curve" smooth="yes"/>
      <point x="325" y="-82"/>
      <point x="371" y="-49"/>
      <point x="371" y="11" type="curve" smooth="yes"/>
      <point x="371" y="59"/>
      <point x="336" y="94"/>
      <point x="281" y="94" type="curve" smooth="yes"/>
      <point x="213" y="94"/>
      <point x="176" y="53"/>
      <point x="163" y="-4" type="curve" smooth="yes"/>
      <point x="158" y="-26" type="line"/>
      <point x="212" y="-26" type="line"/>
      <point x="216" y="-8" type="line" smooth="yes"/>
      <point x="223" y="26"/>
      <point x="244" y="46"/>
      <point x="273" y="46" type="curve" smooth="yes"/>
      <point x="299" y="46"/>
      <point x="315" y="31"/>
      <point x="315" y="7" type="curve" smooth="yes"/>
      <point x="315" y="-25"/>
      <point x="285" y="-43"/>
      <point x="256" y="-48" type="curve" smooth="yes"/>
      <point x="177" y="-63"/>
      <point x="153" y="-85"/>
      <point x="139" y="-146" type="curve" smooth="yes"/>
      <point x="127" y="-200" type="line"/>
      <point x="322" y="-200" type="line"/>
      <point x="332" y="-152" type="line"/>
    </contour>
  </outline>
</glyph>
<glyph name="uni2083" format="1">
  <advance width="612"/>
  <unicode hex="2083"/>
  <outline>
    <contour>
      <point x="227" y="-70" type="line"/>
      <point x="227" y="4" type="line"/>
      <point x="322" y="34" type="line"/>
      <point x="322" y="40" type="line"/>
      <point x="179" y="40" type="line"/>
      <point x="179" y="88" type="line"/>
      <point x="364" y="88" type="line"/>
      <point x="364" y="6" type="line"/>
      <point x="269" y="-24" type="line"/>
      <point x="269" y="-30" type="line"/>
      <point x="277" y="-30" type="line" smooth="yes"/>
      <point x="311" y="-30"/>
      <point x="344" y="-52"/>
      <point x="344" y="-98" type="curve" smooth="yes"/>
      <point x="344" y="-162"/>
      <point x="299" y="-206"/>
      <point x="225" y="-206" type="curve" smooth="yes"/>
      <point x="165" y="-206"/>
      <point x="136" y="-169"/>
      <point x="136" y="-128" type="curve" smooth="yes"/>
      <point x="136" y="-121"/>
      <point x="137" y="-116"/>
      <point x="138" y="-110" type="curve" smooth="yes"/>
      <point x="141" y="-94" type="line"/>
      <point x="195" y="-94" type="line"/>
      <point x="192" y="-108" type="line" smooth="yes"/>
      <point x="191" y="-114"/>
      <point x="191" y="-117"/>
      <point x="191" y="-121" type="curve" smooth="yes"/>
      <point x="191" y="-143"/>
      <point x="204" y="-158"/>
      <point x="231" y="-158" type="curve" smooth="yes"/>
      <point x="263" y="-158"/>
      <point x="288" y="-136"/>
      <point x="288" y="-103" type="curve" smooth="yes"/>
      <point x="288" y="-80"/>
      <point x="273" y="-70"/>
      <point x="251" y="-70" type="curve" smooth="yes"/>
    </contour>
  </outline>
</glyph>
<glyph name="uni2085" format="1">
  <advance width="612"/>
  <unicode hex="2085"/>
  <outline>
    <contour>
      <point x="150" y="-73" type="line"/>
      <point x="184" y="88" type="line"/>
      <point x="367" y="88" type="line"/>
      <point x="367" y="40" type="line"/>
      <point x="228" y="40" type="line"/>
      <point x="211" y="-40" type="line"/>
      <point x="217" y="-40" type="line"/>
      <point x="232" y="-18"/>
      <point x="253" y="-5"/>
      <point x="282" y="-5" type="curve" smooth="yes"/>
      <point x="324" y="-5"/>
      <point x="353" y="-34"/>
      <point x="353" y="-80" type="curve" smooth="yes"/>
      <point x="353" y="-156"/>
      <point x="305" y="-206"/>
      <point x="232" y="-206" type="curve" smooth="yes"/>
      <point x="164" y="-206"/>
      <point x="135" y="-170"/>
      <point x="135" y="-121" type="curve" smooth="yes"/>
      <point x="135" y="-116"/>
      <point x="135" y="-115"/>
      <point x="136" y="-107" type="curve"/>
      <point x="190" y="-107" type="line"/>
      <point x="189" y="-113"/>
      <point x="189" y="-115"/>
      <point x="189" y="-119" type="curve" smooth="yes"/>
      <point x="189" y="-142"/>
      <point x="204" y="-158"/>
      <point x="236" y="-158" type="curve" smooth="yes"/>
      <point x="273" y="-158"/>
      <point x="298" y="-127"/>
      <point x="298" y="-91" type="curve" smooth="yes"/>
      <point x="298" y="-67"/>
      <point x="285" y="-53"/>
      <point x="268" y="-53" type="curve" smooth="yes"/>
      <point x="251" y="-53"/>
      <point x="239" y="-63"/>
      <point x="234" y="-73" type="curve"/>
    </contour>
  </outline>
</glyph>
<glyph name="uni2086" format="1">
  <advance width="612"/>
  <unicode hex="2086"/>
  <outline>
    <contour>
      <point x="363" y="4" type="line"/>
      <point x="364" y="10"/>
      <point x="365" y="17"/>
      <point x="365" y="23" type="curve" smooth="yes"/>
      <point x="365" y="65"/>
      <point x="332" y="94"/>
      <point x="281" y="94" type="curve" smooth="yes"/>
      <point x="223" y="94"/>
      <point x="179" y="56"/>
      <point x="167" y="-4" type="curve" smooth="yes"/>
      <point x="147" y="-99" type="line" smooth="yes"/>
      <point x="145" y="-109"/>
      <point x="144" y="-118"/>
      <point x="144" y="-126" type="curve" smooth="yes"/>
      <point x="144" y="-177"/>
      <point x="181" y="-206"/>
      <point x="228" y="-206" type="curve" smooth="yes"/>
      <point x="304" y="-206"/>
      <point x="347" y="-145"/>
      <point x="347" y="-94" type="curve" smooth="yes"/>
      <point x="347" y="-45"/>
      <point x="321" y="-16"/>
      <point x="280" y="-16" type="curve" smooth="yes"/>
      <point x="252" y="-16"/>
      <point x="230" y="-30"/>
      <point x="218" y="-46" type="curve"/>
      <point x="212" y="-46" type="line"/>
      <point x="221" y="-4" type="line" smooth="yes"/>
      <point x="227" y="26"/>
      <point x="245" y="46"/>
      <point x="275" y="46" type="curve" smooth="yes"/>
      <point x="299" y="46"/>
      <point x="310" y="34"/>
      <point x="310" y="15" type="curve" smooth="yes"/>
      <point x="310" y="13"/>
      <point x="310" y="11"/>
      <point x="309" y="4" type="curve"/>
    </contour>
    <contour>
      <point x="252" y="-64" type="curve"/>
      <point x="274" y="-64"/>
      <point x="291" y="-78"/>
      <point x="291" y="-103" type="curve" smooth="yes"/>
      <point x="291" y="-133"/>
      <point x="265" y="-158"/>
      <point x="235" y="-158" type="curve" smooth="yes"/>
      <point x="213" y="-158"/>
      <point x="197" y="-144"/>
      <point x="197" y="-120" type="curve" smooth="yes"/>
      <point x="197" y="-88"/>
      <point x="224" y="-64"/>
    </contour>
  </outline>
</glyph>
<glyph name="uni2087" format="1">
  <advance width="612"/>
  <unicode hex="2087"/>
  <outline>
    <contour>
      <point x="175" y="38" type="line"/>
      <point x="316" y="38" type="line"/>
      <point x="316" y="32" type="line"/>
      <point x="176" y="-126" type="line" smooth="yes"/>
      <point x="157" y="-147"/>
      <point x="147" y="-164"/>
      <point x="142" y="-185" type="curve" smooth="yes"/>
      <point x="139" y="-200" type="line"/>
      <point x="198" y="-200" type="line"/>
      <point x="200" y="-188" type="line" smooth="yes"/>
      <point x="202" y="-176"/>
      <point x="212" y="-164"/>
      <point x="225" y="-149" type="curve" smooth="yes"/>
      <point x="366" y="14" type="line"/>
      <point x="366" y="88" type="line"/>
      <point x="175" y="88" type="line"/>
    </contour>
  </outline>
</glyph>
<glyph name="uni208D" format="1">
  <advance width="612"/>
  <unicode hex="208D"/>
  <outline>
    <contour>
      <point x="342" y="-261" type="line" smooth="yes"/>
      <point x="281" y="-261"/>
      <point x="238" y="-227"/>
      <point x="238" y="-160" type="curve" smooth="yes"/>
      <point x="238" y="-148"/>
      <point x="239" y="-135"/>
      <point x="242" y="-121" type="curve" smooth="yes"/>
      <point x="270" y="19" type="line" smooth="yes"/>
      <point x="285" y="90"/>
      <point x="338" y="149"/>
      <point x="429" y="149" type="curve" smooth="yes"/>
      <point x="452" y="149" type="line"/>
      <point x="452" y="197" type="line"/>
      <point x="439" y="197" type="line" smooth="yes"/>
      <point x="340" y="197"/>
      <point x="250" y="148"/>
      <point x="225" y="28" type="curve" smooth="yes"/>
      <point x="194" y="-119" type="line" smooth="yes"/>
      <point x="191" y="-134"/>
      <point x="189" y="-148"/>
      <point x="189" y="-162" type="curve" smooth="yes"/>
      <point x="189" y="-249"/>
      <point x="249" y="-309"/>
      <point x="332" y="-309" type="curve" smooth="yes"/>
      <point x="355" y="-309" type="line"/>
      <point x="355" y="-261" type="line"/>
    </contour>
  </outline>
</glyph>
<glyph name="uni208E" format="1">
  <advance width="612"/>
  <unicode hex="208E"/>
  <outline>
    <contour>
      <point x="269" y="149" type="line" smooth="yes"/>
      <point x="330" y="149"/>
      <point x="373" y="115"/>
      <point x="373" y="48" type="curve" smooth="yes"/>
      <point x="373" y="36"/>
      <point x="372" y="23"/>
      <point x="369" y="9" type="curve" smooth="yes"/>
      <point x="341" y="-131" type="line" smooth="yes"/>
      <point x="326" y="-202"/>
      <point x="273" y="-261"/>
      <point x="182" y="-261" type="curve" smooth="yes"/>
      <point x="159" y="-261" type="line"/>
      <point x="159" y="-309" type="line"/>
      <point x="172" y="-309" type="line" smooth="yes"/>
      <point x="271" y="-309"/>
      <point x="361" y="-260"/>
      <point x="386" y="-140" type="curve" smooth="yes"/>
      <point x="417" y="7" type="line" smooth="yes"/>
      <point x="420" y="22"/>
      <point x="422" y="36"/>
      <point x="422" y="50" type="curve" smooth="yes"/>
      <point x="422" y="137"/>
      <point x="362" y="197"/>
      <point x="279" y="197" type="curve" smooth="yes"/>
      <point x="256" y="197" type="line"/>
      <point x="256" y="149" type="line"/>
    </contour>
  </outline>
</glyph>
<glyph name="uni20A1" format="1">
  <advance width="612"/>
  <unicode hex="20A1"/>
  <outline>
    <contour>
      <point x="456" y="296" type="line"/>
      <point x="439" y="239"/>
      <point x="390" y="181"/>
      <point x="312" y="166" type="curve"/>
      <point x="452" y="496" type="line"/>
      <point x="470" y="475"/>
      <point x="478" y="448"/>
      <point x="478" y="419" type="curve" smooth="yes"/>
      <point x="478" y="418"/>
      <point x="478" y="415"/>
      <point x="477" y="404" type="curve"/>
      <point x="559" y="422" type="line"/>
      <point x="559" y="489"/>
      <point x="531" y="542"/>
      <point x="486" y="575" type="curve"/>
      <point x="519" y="652" type="line"/>
      <point x="456" y="677" type="line"/>
      <point x="425" y="604" type="line"/>
      <point x="414" y="607"/>
      <point x="404" y="609"/>
      <point x="392" y="610" type="curve"/>
      <point x="410" y="652" type="line"/>
      <point x="347" y="677" type="line"/>
      <point x="318" y="609" type="line"/>
      <point x="145" y="586"/>
      <point x="45" y="439"/>
      <point x="45" y="284" type="curve" smooth="yes"/>
      <point x="45" y="215"/>
      <point x="72" y="164"/>
      <point x="114" y="131" type="curve"/>
      <point x="79" y="48" type="line"/>
      <point x="142" y="23" type="line"/>
      <point x="175" y="100" type="line"/>
      <point x="185" y="96"/>
      <point x="196" y="94"/>
      <point x="207" y="92" type="curve"/>
      <point x="188" y="48" type="line"/>
      <point x="251" y="23" type="line"/>
      <point x="279" y="89" type="line"/>
      <point x="406" y="97"/>
      <point x="491" y="171"/>
      <point x="530" y="278" type="curve"/>
    </contour>
    <contour>
      <point x="127" y="297" type="curve" smooth="yes"/>
      <point x="127" y="396"/>
      <point x="184" y="497"/>
      <point x="283" y="528" type="curve"/>
      <point x="150" y="215" type="line"/>
      <point x="135" y="236"/>
      <point x="127" y="264"/>
    </contour>
    <contour>
      <point x="206" y="172" type="curve"/>
      <point x="361" y="537" type="line"/>
      <point x="373" y="536"/>
      <point x="384" y="535"/>
      <point x="394" y="532" type="curve"/>
      <point x="238" y="164" type="line"/>
      <point x="226" y="166"/>
      <point x="216" y="169"/>
    </contour>
  </outline>
</glyph>
<glyph name="uni20A4" format="1">
  <advance width="612"/>
  <unicode hex="20A4"/>
  <outline>
    <contour>
      <point x="88" y="222" type="line"/>
      <point x="141" y="222" type="line"/>
      <point x="131" y="174" type="line"/>
      <point x="63" y="174" type="line"/>
      <point x="63" y="102" type="line"/>
      <point x="443" y="102" type="line"/>
      <point x="443" y="174" type="line"/>
      <point x="209" y="174" type="line"/>
      <point x="219" y="222" type="line"/>
      <point x="315" y="222" type="line"/>
      <point x="315" y="294" type="line"/>
      <point x="234" y="294" type="line"/>
      <point x="242" y="330" type="line"/>
      <point x="339" y="330" type="line"/>
      <point x="339" y="402" type="line"/>
      <point x="257" y="402" type="line"/>
      <point x="265" y="440" type="line" smooth="yes"/>
      <point x="280" y="508"/>
      <point x="319" y="540"/>
      <point x="374" y="540" type="curve" smooth="yes"/>
      <point x="416" y="540"/>
      <point x="445" y="518"/>
      <point x="445" y="470" type="curve" smooth="yes"/>
      <point x="445" y="460"/>
      <point x="444" y="451"/>
      <point x="441" y="438" type="curve" smooth="yes"/>
      <point x="436" y="416" type="line"/>
      <point x="514" y="416" type="line"/>
      <point x="518" y="435" type="line" smooth="yes"/>
      <point x="521" y="451"/>
      <point x="523" y="465"/>
      <point x="523" y="479" type="curve" smooth="yes"/>
      <point x="523" y="562"/>
      <point x="467" y="612"/>
      <point x="381" y="612" type="curve" smooth="yes"/>
      <point x="277" y="612"/>
      <point x="211" y="550"/>
      <point x="187" y="440" type="curve" smooth="yes"/>
      <point x="179" y="402" type="line"/>
      <point x="111" y="402" type="line"/>
      <point x="111" y="330" type="line"/>
      <point x="164" y="330" type="line"/>
      <point x="156" y="294" type="line"/>
      <point x="88" y="294" type="line"/>
    </contour>
  </outline>
</glyph>
<glyph name="uni20A6" format="1">
  <advance width="612"/>
  <unicode hex="20A6"/>
  <outline>
    <contour>
      <point x="517" y="330" type="line"/>
      <point x="465" y="330" type="line"/>
      <point x="472" y="366" type="line"/>
      <point x="540" y="366" type="line"/>
      <point x="540" y="438" type="line"/>
      <point x="488" y="438" type="line"/>
      <point x="522" y="598" type="line"/>
      <point x="444" y="598" type="line"/>
      <point x="410" y="438" type="line"/>
      <point x="342" y="438" type="line"/>
      <point x="345" y="598" type="line"/>
      <point x="192" y="598" type="line"/>
      <point x="158" y="438" type="line"/>
      <point x="90" y="438" type="line"/>
      <point x="90" y="366" type="line"/>
      <point x="142" y="366" type="line"/>
      <point x="135" y="330" type="line"/>
      <point x="67" y="330" type="line"/>
      <point x="67" y="258" type="line"/>
      <point x="120" y="258" type="line"/>
      <point x="87" y="102" type="line"/>
      <point x="165" y="102" type="line"/>
      <point x="198" y="258" type="line"/>
      <point x="266" y="258" type="line"/>
      <point x="262" y="102" type="line"/>
      <point x="417" y="102" type="line"/>
      <point x="450" y="258" type="line"/>
      <point x="517" y="258" type="line"/>
    </contour>
    <contour>
      <point x="261" y="556" type="line"/>
      <point x="273" y="556" type="line"/>
      <point x="270" y="438" type="line"/>
      <point x="236" y="438" type="line"/>
    </contour>
    <contour>
      <point x="336" y="144" type="line"/>
      <point x="338" y="258" type="line"/>
      <point x="372" y="258" type="line"/>
      <point x="348" y="144" type="line"/>
    </contour>
    <contour>
      <point x="220" y="366" type="line"/>
      <point x="268" y="366" type="line"/>
      <point x="268" y="330" type="line"/>
      <point x="213" y="330" type="line"/>
    </contour>
    <contour>
      <point x="340" y="366" type="line"/>
      <point x="394" y="366" type="line"/>
      <point x="387" y="330" type="line"/>
      <point x="340" y="330" type="line"/>
    </contour>
  </outline>
</glyph>
<glyph name="uni20A7" format="1">
  <advance width="612"/>
  <unicode hex="20A7"/>
  <outline>
    <contour>
      <point x="105" y="407" type="line"/>
      <point x="157" y="407" type="line"/>
      <point x="93" y="102" type="line"/>
      <point x="171" y="102" type="line"/>
      <point x="210" y="288" type="line"/>
      <point x="304" y="288" type="line" smooth="yes"/>
      <point x="400" y="288"/>
      <point x="466" y="339"/>
      <point x="490" y="407" type="curve"/>
      <point x="553" y="407" type="line"/>
      <point x="553" y="479" type="line"/>
      <point x="498" y="479" type="line"/>
      <point x="491" y="552"/>
      <point x="435" y="598"/>
      <point x="360" y="598" type="curve" smooth="yes"/>
      <point x="198" y="598" type="line"/>
      <point x="173" y="479" type="line"/>
      <point x="105" y="479" type="line"/>
    </contour>
    <contour>
      <point x="314" y="360" type="curve"/>
      <point x="226" y="360" type="line"/>
      <point x="236" y="407" type="line"/>
      <point x="406" y="407" type="line"/>
      <point x="390" y="378"/>
      <point x="358" y="360"/>
    </contour>
    <contour>
      <point x="261" y="526" type="line"/>
      <point x="341" y="526" type="line" smooth="yes"/>
      <point x="381" y="526"/>
      <point x="407" y="511"/>
      <point x="415" y="479" type="curve"/>
      <point x="251" y="479" type="line"/>
    </contour>
  </outline>
</glyph>
<glyph name="uni20B2" format="1">
  <advance width="612"/>
  <unicode hex="20B2"/>
  <outline>
    <contour>
      <point x="406" y="672" type="line"/>
      <point x="334" y="672" type="line"/>
      <point x="321" y="610" type="line"/>
      <point x="219" y="599"/>
      <point x="160" y="527"/>
      <point x="138" y="423" type="curve" smooth="yes"/>
      <point x="110" y="292" type="line" smooth="yes"/>
      <point x="105" y="268"/>
      <point x="103" y="252"/>
      <point x="103" y="234" type="curve" smooth="yes"/>
      <point x="103" y="149"/>
      <point x="151" y="100"/>
      <point x="210" y="90" type="curve"/>
      <point x="197" y="28" type="line"/>
      <point x="269" y="28" type="line"/>
      <point x="283" y="96" type="line"/>
      <point x="316" y="107"/>
      <point x="340" y="130"/>
      <point x="353" y="158" type="curve"/>
      <point x="365" y="158" type="line"/>
      <point x="353" y="102" type="line"/>
      <point x="425" y="102" type="line"/>
      <point x="477" y="348" type="line"/>
      <point x="337" y="348" type="line"/>
      <point x="377" y="534" type="line"/>
      <point x="407" y="522"/>
      <point x="420" y="494"/>
      <point x="420" y="461" type="curve" smooth="yes"/>
      <point x="420" y="452"/>
      <point x="419" y="442"/>
      <point x="417" y="432" type="curve" smooth="yes"/>
      <point x="414" y="420" type="line"/>
      <point x="492" y="420" type="line"/>
      <point x="495" y="432" type="line" smooth="yes"/>
      <point x="498" y="445"/>
      <point x="500" y="459"/>
      <point x="500" y="472" type="curve" smooth="yes"/>
      <point x="500" y="534"/>
      <point x="463" y="590"/>
      <point x="392" y="607" type="curve"/>
    </contour>
    <contour>
      <point x="187" y="286" type="curve"/>
      <point x="214" y="412" type="line" smooth="yes"/>
      <point x="227" y="475"/>
      <point x="256" y="520"/>
      <point x="305" y="535" type="curve"/>
      <point x="226" y="166" type="line"/>
      <point x="196" y="178"/>
      <point x="181" y="204"/>
      <point x="181" y="241" type="curve" smooth="yes"/>
      <point x="181" y="255"/>
      <point x="185" y="276"/>
    </contour>
    <contour>
      <point x="389" y="276" type="line"/>
      <point x="387" y="268" type="line" smooth="yes"/>
      <point x="375" y="220"/>
      <point x="340" y="180"/>
      <point x="298" y="165" type="curve"/>
      <point x="322" y="276" type="line"/>
    </contour>
  </outline>
</glyph>
<glyph name="uni20B9" format="1">
  <advance width="612"/>
  <unicode hex="20B9"/>
  <outline>
    <contour>
      <point x="448" y="526" type="line"/>
      <point x="538" y="526" type="line"/>
      <point x="538" y="598" type="line"/>
      <point x="172" y="598" type="line"/>
      <point x="172" y="526" type="line"/>
      <point x="300" y="526" type="line" smooth="yes"/>
      <point x="339" y="526"/>
      <point x="365" y="511"/>
      <point x="375" y="485" type="curve"/>
      <point x="148" y="485" type="line"/>
      <point x="148" y="413" type="line"/>
      <point x="365" y="413" type="line"/>
      <point x="348" y="387"/>
      <point x="316" y="372"/>
      <point x="274" y="372" type="curve" smooth="yes"/>
      <point x="124" y="372" type="line"/>
      <point x="124" y="300" type="line"/>
      <point x="289" y="300" type="line" smooth="yes"/>
      <point x="312" y="300"/>
      <point x="321" y="291"/>
      <point x="321" y="275" type="curve" smooth="yes"/>
      <point x="321" y="271"/>
      <point x="320" y="267"/>
      <point x="319" y="262" type="curve" smooth="yes"/>
      <point x="285" y="102" type="line"/>
      <point x="363" y="102" type="line"/>
      <point x="400" y="277" type="line" smooth="yes"/>
      <point x="401" y="283"/>
      <point x="402" y="288"/>
      <point x="402" y="295" type="curve" smooth="yes"/>
      <point x="402" y="319"/>
      <point x="390" y="333"/>
      <point x="368" y="336" type="curve"/>
      <point x="368" y="348" type="line"/>
      <point x="403" y="360"/>
      <point x="431" y="382"/>
      <point x="447" y="413" type="curve"/>
      <point x="514" y="413" type="line"/>
      <point x="514" y="485" type="line"/>
      <point x="459" y="485" type="line"/>
      <point x="458" y="501"/>
      <point x="454" y="511"/>
      <point x="448" y="520" type="curve"/>
    </contour>
  </outline>
</glyph>
<glyph name="trademark" format="1">
  <advance width="612"/>
  <unicode hex="2122"/>
  <outline>
    <contour>
      <point x="118" y="652" type="line"/>
      <point x="193" y="652" type="line"/>
      <point x="142" y="412" type="line"/>
      <point x="196" y="412" type="line"/>
      <point x="247" y="652" type="line"/>
      <point x="322" y="652" type="line"/>
      <point x="322" y="700" type="line"/>
      <point x="118" y="700" type="line"/>
    </contour>
    <contour>
      <point x="295" y="412" type="line"/>
      <point x="349" y="412" type="line"/>
      <point x="404" y="670" type="line"/>
      <point x="413" y="670" type="line"/>
      <point x="372" y="412" type="line"/>
      <point x="462" y="412" type="line"/>
      <point x="532" y="670" type="line"/>
      <point x="541" y="670" type="line"/>
      <point x="486" y="412" type="line"/>
      <point x="540" y="412" type="line"/>
      <point x="601" y="700" type="line"/>
      <point x="497" y="700" type="line"/>
      <point x="428" y="448" type="line"/>
      <point x="422" y="448" type="line"/>
      <point x="460" y="700" type="line"/>
      <point x="356" y="700" type="line"/>
    </contour>
  </outline>
</glyph>
<glyph name="arrowleft" format="1">
  <advance width="612"/>
  <unicode hex="2190"/>
  <outline>
    <contour>
      <point x="189" y="149" type="line"/>
      <point x="240" y="200" type="line"/>
      <point x="152" y="288" type="line"/>
      <point x="102" y="316" type="line"/>
      <point x="107" y="328" type="line"/>
      <point x="152" y="314" type="line"/>
      <point x="576" y="314" type="line"/>
      <point x="576" y="386" type="line"/>
      <point x="152" y="386" type="line"/>
      <point x="107" y="372" type="line"/>
      <point x="102" y="384" type="line"/>
      <point x="152" y="412" type="line"/>
      <point x="240" y="500" type="line"/>
      <point x="189" y="551" type="line"/>
      <point x="36" y="398" type="line"/>
      <point x="36" y="302" type="line"/>
    </contour>
  </outline>
</glyph>
<glyph name="arrowdown" format="1">
  <advance width="612"/>
  <unicode hex="2193"/>
  <outline>
    <contour>
      <point x="507" y="233" type="line"/>
      <point x="456" y="284" type="line"/>
      <point x="368" y="196" type="line"/>
      <point x="340" y="146" type="line"/>
      <point x="328" y="151" type="line"/>
      <point x="342" y="196" type="line"/>
      <point x="342" y="620" type="line"/>
      <point x="270" y="620" type="line"/>
      <point x="270" y="196" type="line"/>
      <point x="284" y="151" type="line"/>
      <point x="272" y="146" type="line"/>
      <point x="244" y="196" type="line"/>
      <point x="156" y="284" type="line"/>
      <point x="105" y="233" type="line"/>
      <point x="258" y="80" type="line"/>
      <point x="354" y="80" type="line"/>
    </contour>
  </outline>
</glyph>
<glyph name="partialdiff" format="1">
  <advance width="612"/>
  <unicode hex="2202"/>
  <outline>
    <contour>
      <point x="460" y="438" type="curve"/>
      <point x="448" y="438" type="line"/>
      <point x="431" y="478"/>
      <point x="391" y="510"/>
      <point x="315" y="510" type="curve" smooth="yes"/>
      <point x="141" y="510"/>
      <point x="20" y="358"/>
      <point x="20" y="186" type="curve" smooth="yes"/>
      <point x="20" y="54"/>
      <point x="111" y="-14"/>
      <point x="227" y="-14" type="curve" smooth="yes"/>
      <point x="451" y="-14"/>
      <point x="545" y="185"/>
      <point x="545" y="390" type="curve" smooth="yes"/>
      <point x="545" y="572"/>
      <point x="441" y="690"/>
      <point x="240" y="714" type="curve"/>
      <point x="225" y="639" type="line"/>
      <point x="357" y="624"/>
      <point x="451" y="564"/>
    </contour>
    <contour>
      <point x="237" y="60" type="curve" smooth="yes"/>
      <point x="157" y="60"/>
      <point x="102" y="108"/>
      <point x="102" y="195" type="curve" smooth="yes"/>
      <point x="102" y="316"/>
      <point x="193" y="436"/>
      <point x="317" y="436" type="curve" smooth="yes"/>
      <point x="397" y="436"/>
      <point x="452" y="382"/>
      <point x="452" y="299" type="curve" smooth="yes"/>
      <point x="452" y="179"/>
      <point x="359" y="60"/>
    </contour>
  </outline>
</glyph>
<glyph name="product" format="1">
  <advance width="612"/>
  <unicode hex="220F"/>
  <outline>
    <contour>
      <point x="-2" y="0" type="line"/>
      <point x="81" y="0" type="line"/>
      <point x="213" y="622" type="line"/>
      <point x="511" y="622" type="line"/>
      <point x="379" y="0" type="line"/>
      <point x="463" y="0" type="line"/>
      <point x="611" y="700" type="line"/>
      <point x="145" y="700" type="line"/>
    </contour>
  </outline>
</glyph>
<glyph name="summation" format="1">
  <advance width="612"/>
  <unicode hex="2211"/>
  <outline>
    <contour>
      <point x="319" y="354" type="line"/>
      <point x="11" y="125" type="line"/>
      <point x="11" y="0" type="line"/>
      <point x="473" y="0" type="line"/>
      <point x="473" y="78" type="line"/>
      <point x="87" y="78" type="line"/>
      <point x="87" y="90" type="line"/>
      <point x="389" y="315" type="line"/>
      <point x="389" y="399" type="line"/>
      <point x="208" y="610" type="line"/>
      <point x="208" y="622" type="line"/>
      <point x="606" y="622" type="line"/>
      <point x="606" y="700" type="line"/>
      <point x="132" y="700" type="line"/>
      <point x="132" y="582" type="line"/>
      <point x="319" y="366" type="line"/>
    </contour>
  </outline>
</glyph>
<glyph name="fl" format="1">
  <advance width="612"/>
  <unicode hex="FB02"/>
  <outline>
    <contour>
      <point x="223" y="496" type="line"/>
      <point x="244" y="598" type="line" smooth="yes"/>
      <point x="248" y="617"/>
      <point x="259" y="628"/>
      <point x="278" y="628" type="curve" smooth="yes"/>
      <point x="393" y="628" type="line" smooth="yes"/>
      <point x="412" y="628"/>
      <point x="424" y="618"/>
      <point x="424" y="600" type="curve" smooth="yes"/>
      <point x="424" y="596"/>
      <point x="423" y="593"/>
      <point x="422" y="588" type="curve" smooth="yes"/>
      <point x="316" y="100" type="line" smooth="yes"/>
      <point x="313" y="86"/>
      <point x="312" y="79"/>
      <point x="312" y="69" type="curve" smooth="yes"/>
      <point x="312" y="14"/>
      <point x="352" y="-14"/>
      <point x="396" y="-14" type="curve" smooth="yes"/>
      <point x="418" y="-14"/>
      <point x="442" y="-7"/>
      <point x="463" y="7" type="curve" smooth="yes"/>
      <point x="578" y="85" type="line"/>
      <point x="538" y="144" type="line"/>
      <point x="423" y="66" type="line" smooth="yes"/>
      <point x="418" y="63"/>
      <point x="414" y="61"/>
      <point x="408" y="61" type="curve" smooth="yes"/>
      <point x="396" y="61"/>
      <point x="387" y="71"/>
      <point x="391" y="87" type="curve" smooth="yes"/>
      <point x="496" y="570" type="line" smooth="yes"/>
      <point x="499" y="585"/>
      <point x="501" y="599"/>
      <point x="501" y="611" type="curve" smooth="yes"/>
      <point x="501" y="674"/>
      <point x="459" y="700"/>
      <point x="392" y="700" type="curve" smooth="yes"/>
      <point x="265" y="700" type="line" smooth="yes"/>
      <point x="220" y="700"/>
      <point x="181" y="667"/>
      <point x="171" y="622" type="curve" smooth="yes"/>
      <point x="145" y="496" type="line"/>
      <point x="17" y="496" type="line"/>
      <point x="17" y="424" type="line"/>
      <point x="129" y="424" type="line"/>
      <point x="39" y="0" type="line"/>
      <point x="117" y="0" type="line"/>
      <point x="207" y="424" type="line"/>
      <point x="344" y="424" type="line"/>
      <point x="344" y="496" type="line"/>
    </contour>
  </outline>
</glyph>
<glyph name="D.alt" format="1">
  <advance width="612"/>
  <outline>
    <contour>
      <point x="24" y="0" type="line"/>
      <point x="212" y="0" type="line" smooth="yes"/>
      <point x="402" y="0"/>
      <point x="468" y="70"/>
      <point x="509" y="260" type="curve" smooth="yes"/>
      <point x="547" y="434" type="line" smooth="yes"/>
      <point x="553" y="463"/>
      <point x="557" y="490"/>
      <point x="557" y="515" type="curve" smooth="yes"/>
      <point x="557" y="634"/>
      <point x="484" y="700"/>
      <point x="343" y="700" type="curve" smooth="yes"/>
      <point x="171" y="700" type="line"/>
      <point x="24" y="6" type="line"/>
    </contour>
    <contour>
      <point x="211" y="78" type="curve"/>
      <point x="123" y="78" type="line"/>
      <point x="238" y="622" type="line"/>
      <point x="326" y="622" type="line" smooth="yes"/>
      <point x="423" y="622"/>
      <point x="471" y="595"/>
      <point x="471" y="510" type="curve" smooth="yes"/>
      <point x="471" y="489"/>
      <point x="469" y="468"/>
      <point x="462" y="434" type="curve" smooth="yes"/>
      <point x="427" y="266" type="line" smooth="yes"/>
      <point x="397" y="120"/>
      <point x="335" y="78"/>
    </contour>
  </outline>
</glyph>
<glyph name="Eth.alt" format="1">
  <advance width="612"/>
  <outline>
    <contour>
      <point x="34" y="0" type="line"/>
      <point x="222" y="0" type="line" smooth="yes"/>
      <point x="412" y="0"/>
      <point x="478" y="70"/>
      <point x="519" y="260" type="curve" smooth="yes"/>
      <point x="557" y="434" type="line" smooth="yes"/>
      <point x="563" y="463"/>
      <point x="567" y="490"/>
      <point x="567" y="515" type="curve" smooth="yes"/>
      <point x="567" y="634"/>
      <point x="494" y="700"/>
      <point x="353" y="700" type="curve" smooth="yes"/>
      <point x="181" y="700" type="line"/>
      <point x="115" y="389" type="line"/>
      <point x="47" y="389" type="line"/>
      <point x="47" y="311" type="line"/>
      <point x="98" y="311" type="line"/>
      <point x="34" y="6" type="line"/>
    </contour>
    <contour>
      <point x="221" y="78" type="curve"/>
      <point x="133" y="78" type="line"/>
      <point x="182" y="311" type="line"/>
      <point x="299" y="311" type="line"/>
      <point x="299" y="389" type="line"/>
      <point x="199" y="389" type="line"/>
      <point x="248" y="622" type="line"/>
      <point x="336" y="622" type="line" smooth="yes"/>
      <point x="433" y="622"/>
      <point x="481" y="595"/>
      <point x="481" y="510" type="curve" smooth="yes"/>
      <point x="481" y="489"/>
      <point x="479" y="468"/>
      <point x="472" y="434" type="curve" smooth="yes"/>
      <point x="437" y="266" type="line" smooth="yes"/>
      <point x="407" y="120"/>
      <point x="345" y="78"/>
    </contour>
  </outline>
</glyph>
<glyph name="Euro.cap" format="1">
  <advance width="612"/>
  <outline>
    <contour>
      <point x="263" y="64" type="curve" smooth="yes"/>
      <point x="177" y="64"/>
      <point x="138" y="108"/>
      <point x="138" y="197" type="curve" smooth="yes"/>
      <point x="138" y="214"/>
      <point x="140" y="232"/>
      <point x="143" y="252" type="curve"/>
      <point x="309" y="252" type="line"/>
      <point x="309" y="330" type="line"/>
      <point x="159" y="330" type="line"/>
      <point x="167" y="366" type="line"/>
      <point x="333" y="366" type="line"/>
      <point x="333" y="444" type="line"/>
      <point x="184" y="444" type="line"/>
      <point x="213" y="560"/>
      <point x="275" y="638"/>
      <point x="384" y="638" type="curve" smooth="yes"/>
      <point x="476" y="638"/>
      <point x="519" y="590"/>
      <point x="519" y="518" type="curve" smooth="yes"/>
      <point x="519" y="500"/>
      <point x="516" y="481"/>
      <point x="511" y="460" type="curve" smooth="yes"/>
      <point x="508" y="448" type="line"/>
      <point x="595" y="460" type="line"/>
      <point x="601" y="483"/>
      <point x="604" y="504"/>
      <point x="604" y="525" type="curve" smooth="yes"/>
      <point x="604" y="634"/>
      <point x="526" y="714"/>
      <point x="397" y="714" type="curve" smooth="yes"/>
      <point x="244" y="714"/>
      <point x="142" y="621"/>
      <point x="99" y="444" type="curve"/>
      <point x="31" y="444" type="line"/>
      <point x="31" y="366" type="line"/>
      <point x="83" y="366" type="line"/>
      <point x="75" y="330" type="line"/>
      <point x="7" y="330" type="line"/>
      <point x="7" y="252" type="line"/>
      <point x="59" y="252" type="line"/>
      <point x="54" y="225"/>
      <point x="53" y="200"/>
      <point x="53" y="178" type="curve" smooth="yes"/>
      <point x="53" y="64"/>
      <point x="123" y="-14"/>
      <point x="248" y="-14" type="curve" smooth="yes"/>
      <point x="429" y="-14"/>
      <point x="508" y="89"/>
      <point x="548" y="240" type="curve"/>
      <point x="467" y="252" type="line"/>
      <point x="464" y="240" type="line" smooth="yes"/>
      <point x="438" y="136"/>
      <point x="379" y="64"/>
    </contour>
  </outline>
</glyph>
<glyph name="IJ.alt" format="1">
  <advance width="612"/>
  <outline>
    <contour>
      <point x="89" y="342" type="line"/>
      <point x="173" y="342" type="line"/>
      <point x="249" y="700" type="line"/>
      <point x="165" y="700" type="line"/>
    </contour>
    <contour>
      <point x="514" y="700" type="line"/>
      <point x="409" y="210" type="line" smooth="yes"/>
      <point x="391" y="124"/>
      <point x="345" y="64"/>
      <point x="252" y="64" type="curve" smooth="yes"/>
      <point x="175" y="64"/>
      <point x="139" y="97"/>
      <point x="139" y="160" type="curve" smooth="yes"/>
      <point x="139" y="175"/>
      <point x="141" y="192"/>
      <point x="145" y="210" type="curve" smooth="yes"/>
      <point x="157" y="264" type="line"/>
      <point x="73" y="264" type="line"/>
      <point x="61" y="210" type="line" smooth="yes"/>
      <point x="57" y="191"/>
      <point x="55" y="172"/>
      <point x="55" y="155" type="curve" smooth="yes"/>
      <point x="55" y="53"/>
      <point x="125" y="-14"/>
      <point x="241" y="-14" type="curve" smooth="yes"/>
      <point x="391" y="-14"/>
      <point x="463" y="68"/>
      <point x="492" y="206" type="curve" smooth="yes"/>
      <point x="597" y="700" type="line"/>
    </contour>
  </outline>
</glyph>
